<svg width="48" height="47" viewBox="0 0 48 47" fill="none" xmlns="http://www.w3.org/2000/svg">
<path d="M23.7656 47C36.7443 47 47.2656 36.4787 47.2656 23.5C47.2656 10.5213 36.7443 0 23.7656 0C10.7869 0 0.265625 10.5213 0.265625 23.5C0.265625 36.4787 10.7869 47 23.7656 47Z" fill="#328332"/>
<path d="M23.7495 24.3122L13.878 23.4648L23.748 17.8806V24.3122H23.7495ZM23.7495 30.8628V41.056C20.317 35.7127 16.5335 29.8318 13.4844 25.0716C17.0828 27.0984 20.8399 29.2178 23.7495 30.8643V30.8628ZM23.7495 16.0755L13.4844 21.8036L23.7495 5.875V16.0755Z" fill="white"/>
<path d="M33.6198 23.4648L23.7483 24.3122V17.8806L33.6183 23.4648H33.6198ZM23.7483 30.8643C26.6564 29.2193 30.412 27.0984 34.0119 25.0716C30.9628 29.8333 27.1793 35.7141 23.7483 41.0545V30.8643ZM23.7483 16.0755V5.875L34.0119 21.8036L23.7483 16.0755Z" fill="white" fill-opacity="0.601"/>
<path opacity="0.2" fill-rule="evenodd" clip-rule="evenodd" d="M23.7483 24.3123L33.6183 23.4648L23.7483 29.0094V24.3123Z" fill="white"/>
<path opacity="0.603" fill-rule="evenodd" clip-rule="evenodd" d="M23.7473 24.3123L13.8758 23.4648L23.7473 29.0094V24.3123Z" fill="white"/>
</svg>
