<svg width="35" height="35" viewBox="0 0 35 35" fill="none" xmlns="http://www.w3.org/2000/svg">
<path d="M13.7165 20.9212C12.7607 20.9212 11.9919 20.1524 11.9919 19.2173C11.9919 18.2615 12.7607 17.4927 13.7165 17.4927C14.6585 17.4927 15.4203 18.2615 15.4203 19.2173C15.4203 20.1593 14.6515 20.9212 13.7165 20.9212ZM34.6681 17.4927C34.6681 26.9815 26.9801 34.6695 17.4913 34.6695C8.00246 34.6695 0.314453 26.9815 0.314453 17.4927C0.314453 8.00392 8.00246 0.315918 17.4913 0.315918C26.9801 0.315918 34.6681 8.00392 34.6681 17.4927ZM25.5048 14.6392C24.8537 14.6392 24.2789 14.9093 23.8564 15.3318C22.3049 14.2582 20.2132 13.5656 17.893 13.4894L19.0981 8.06626L22.9352 8.93203C22.9352 9.87398 23.704 10.6359 24.639 10.6359C25.5948 10.6359 26.3636 9.8532 26.3636 8.91125C26.3636 7.96929 25.5948 7.18664 24.639 7.18664C23.9672 7.18664 23.3923 7.58836 23.1084 8.14245L18.8696 7.20049C18.6618 7.14508 18.4471 7.29746 18.3917 7.50524L17.0688 13.4894C14.7693 13.5864 12.6984 14.2721 11.1469 15.3456C10.7244 14.9024 10.1288 14.6392 9.47773 14.6392C7.06051 14.6392 6.27093 17.8875 8.48036 18.9888C8.40418 19.3351 8.36262 19.6952 8.36262 20.0623C8.36262 23.7055 12.4629 26.656 17.5051 26.656C22.5681 26.656 26.6684 23.7055 26.6684 20.0623C26.6684 19.6952 26.6268 19.3143 26.5368 18.968C28.7047 17.8598 27.9082 14.6392 25.5048 14.6392ZM20.7327 22.6873C19.4721 23.9479 15.4619 23.9271 14.2498 22.6873C14.0975 22.535 13.8273 22.535 13.675 22.6873C13.5018 22.8605 13.5018 23.1306 13.675 23.283C15.2541 24.8621 19.7215 24.8621 21.3076 23.283C21.4807 23.1306 21.4807 22.8605 21.3076 22.6873C21.1552 22.535 20.8851 22.535 20.7327 22.6873ZM21.266 17.4927C20.324 17.4927 19.5622 18.2615 19.5622 19.2173C19.5622 20.1593 20.331 20.9212 21.266 20.9212C22.2218 20.9212 22.9906 20.1524 22.9906 19.2173C22.9906 18.2615 22.2287 17.4927 21.266 17.4927Z" fill="white"/>
</svg>
