<svg width="37" height="37" viewBox="0 0 37 37" fill="none" xmlns="http://www.w3.org/2000/svg">
<path d="M0.395508 0.0361328V36.6381H36.9975V0.0361328H0.395508ZM30.8026 8.70775L28.8398 10.5897C28.7566 10.6531 28.6922 10.738 28.6538 10.8353C28.6153 10.9326 28.6042 11.0386 28.6217 11.1418V24.9697C28.6045 25.0726 28.6158 25.1783 28.6542 25.2753C28.6926 25.3723 28.7568 25.457 28.8398 25.5203L30.7568 27.4022V27.8155H21.1153V27.4037L23.1009 25.4745C23.2961 25.2793 23.2961 25.2229 23.2961 24.9255V13.7466L17.7753 27.7698H17.0281L10.5983 13.7466V23.1457C10.5719 23.3406 10.5901 23.539 10.6517 23.7258C10.7132 23.9126 10.8165 24.0829 10.9537 24.2239L13.5371 27.3565V27.7698H6.2137V27.358L8.79871 24.2239C8.93474 24.0828 9.03571 23.9117 9.09346 23.7244C9.15121 23.5372 9.16413 23.3389 9.13118 23.1457V12.278C9.1464 12.1291 9.1263 11.9787 9.07251 11.8391C9.01872 11.6994 8.93275 11.5744 8.82159 11.4742L6.52481 8.70775V8.29598H13.653L19.1632 20.3792L24.0068 8.29445H30.8026V8.70775Z" fill="white"/>
</svg>
