<svg width="38" height="36" viewBox="0 0 38 36" fill="none" xmlns="http://www.w3.org/2000/svg">
<path fill-rule="evenodd" clip-rule="evenodd" d="M19.2678 0.0361328C9.16145 0.0361328 0.967773 8.23028 0.967773 18.3381C0.967773 26.4238 6.2103 33.2834 13.4833 35.7019C14.3993 35.8713 14.7325 35.3078 14.7325 34.8211C14.7325 34.3876 14.7165 33.2374 14.7085 31.7086C9.61757 32.8155 8.54344 29.2548 8.54344 29.2548C7.71098 27.1408 6.5111 26.5787 6.5111 26.5787C4.84946 25.444 6.63733 25.4661 6.63733 25.4661C8.47399 25.596 9.44066 27.3515 9.44066 27.3515C11.0727 30.1483 13.7245 29.3388 14.7667 28.8733C14.9324 27.6884 15.4063 26.8837 15.9286 26.4252C11.8653 25.9635 7.5932 24.3933 7.5932 17.3808C7.5932 15.3822 8.306 13.7483 9.47632 12.4686C9.28909 12.0078 8.65982 10.1472 9.65605 7.62635C9.65605 7.62635 11.1924 7.13457 14.6893 9.50384C16.1482 9.09606 17.7141 8.8924 19.2706 8.8863C20.8248 8.89287 22.3912 9.09606 23.852 9.50384C27.3465 7.13457 28.8805 7.62635 28.8805 7.62635C29.8791 10.1472 29.2503 12.0078 29.0626 12.4686C30.2357 13.7483 30.9434 15.3822 30.9434 17.3808C30.9434 24.4098 26.6652 25.9583 22.5883 26.4097C23.2443 26.9752 23.8299 28.0944 23.8299 29.802C23.8299 32.2473 23.8079 34.2205 23.8079 34.8207C23.8079 35.311 24.1368 35.8812 25.0659 35.6996C32.331 33.2759 37.5697 26.4215 37.5697 18.3381C37.5697 8.23028 29.3761 0.0361328 19.2678 0.0361328Z" fill="white"/>
</svg>
