<svg width="34" height="28" viewBox="0 0 34 28" fill="none" xmlns="http://www.w3.org/2000/svg">
<path d="M33.7361 3.8931C32.5147 4.42856 31.2072 4.79694 29.8291 4.96401C31.2352 4.12036 32.3103 2.78587 32.8229 1.1961C31.504 1.964 30.045 2.52021 28.4936 2.83464C27.2566 1.51052 25.4884 0.677246 23.5261 0.677246C19.7644 0.677246 16.7156 3.72499 16.7156 7.48149C16.7156 8.02213 16.781 8.54099 16.8941 9.03286C11.2355 8.76824 6.21922 6.04945 2.86431 1.94221C2.2749 2.94256 1.93972 4.10479 1.93972 5.36976C1.93972 7.73676 3.14449 9.81218 4.96567 11.0325C3.85221 11.0004 2.80413 10.6922 1.88576 10.1847V10.2667C1.88576 13.5676 4.23097 16.3196 7.34409 16.9464C6.77647 17.0969 6.17045 17.184 5.55509 17.184C5.11821 17.184 4.70105 17.1415 4.28493 17.0647C5.16076 19.7669 7.66786 21.7344 10.6565 21.7935C8.33303 23.6147 5.38802 24.7002 2.21471 24.7002C1.67406 24.7002 1.13446 24.6742 0.592773 24.6088C3.61976 26.539 7.19259 27.668 11.0518 27.668C23.5738 27.668 30.4165 17.2961 30.4165 8.31373C30.4165 8.02732 30.4165 7.73573 30.3947 7.44309C31.7302 6.49152 32.8862 5.2857 33.7994 3.91904L33.7361 3.8931Z" fill="white"/>
</svg>
