<svg width="34" height="34" viewBox="0 0 34 34" fill="none" xmlns="http://www.w3.org/2000/svg">
<path fill-rule="evenodd" clip-rule="evenodd" d="M0.900391 17.305C0.900391 25.5249 6.8703 32.3594 14.6771 33.7448V21.8049H10.5441V17.2127H14.6771V13.5389C14.6771 9.4059 17.3406 7.10979 21.1063 7.10979C22.3002 7.10979 23.5861 7.29347 24.78 7.47716V11.702H22.6676C20.647 11.702 20.1878 12.7123 20.1878 13.9981V17.2127H24.5963L23.8616 21.8049H20.1878V33.7448C27.9946 32.3594 33.9645 25.5249 33.9645 17.305C33.9645 8.16166 26.5251 0.680664 17.4324 0.680664C8.33982 0.680664 0.900391 8.16166 0.900391 17.305H0.900391Z" fill="white"/>
</svg>
