<svg width="464" height="464" viewBox="0 0 464 464" fill="none" xmlns="http://www.w3.org/2000/svg">
<circle cx="232" cy="232" r="230" fill="#0A0F04" stroke="#DBFF00" stroke-width="4"/>
<path d="M135.975 94.8164C135.892 94.0411 135.543 93.4374 134.928 93.0053C134.318 92.5733 133.525 92.3572 132.548 92.3572C131.862 92.3572 131.273 92.4608 130.782 92.668C130.29 92.8751 129.915 93.1562 129.654 93.5114C129.394 93.8665 129.261 94.2719 129.255 94.7276C129.255 95.1064 129.34 95.4349 129.512 95.7131C129.69 95.9912 129.929 96.228 130.231 96.4233C130.533 96.6127 130.867 96.7725 131.234 96.9027C131.601 97.0329 131.971 97.1424 132.344 97.2312L134.049 97.6573C134.735 97.8171 135.395 98.0331 136.028 98.3054C136.668 98.5777 137.239 98.9209 137.742 99.3352C138.251 99.7495 138.653 100.25 138.949 100.836C139.245 101.422 139.393 102.108 139.393 102.895C139.393 103.961 139.121 104.899 138.576 105.71C138.032 106.514 137.245 107.145 136.215 107.6C135.191 108.05 133.951 108.275 132.495 108.275C131.08 108.275 129.852 108.056 128.811 107.618C127.775 107.18 126.964 106.541 126.378 105.701C125.798 104.86 125.484 103.836 125.437 102.629H128.678C128.725 103.262 128.92 103.789 129.263 104.209C129.607 104.629 130.054 104.943 130.604 105.15C131.16 105.357 131.782 105.461 132.468 105.461C133.185 105.461 133.812 105.354 134.35 105.141C134.895 104.922 135.321 104.621 135.629 104.236C135.937 103.845 136.094 103.389 136.099 102.869C136.094 102.395 135.954 102.004 135.682 101.697C135.41 101.383 135.028 101.123 134.537 100.915C134.052 100.702 133.483 100.513 132.832 100.347L130.764 99.8146C129.266 99.4299 128.083 98.8469 127.213 98.0657C126.349 97.2785 125.917 96.2339 125.917 94.9318C125.917 93.8606 126.207 92.9225 126.787 92.1175C127.373 91.3126 128.169 90.6882 129.175 90.2443C130.181 89.7945 131.32 89.5696 132.593 89.5696C133.883 89.5696 135.013 89.7945 135.984 90.2443C136.961 90.6882 137.727 91.3067 138.283 92.0998C138.84 92.887 139.127 93.7925 139.145 94.8164H135.975ZM148.224 108.266C146.857 108.266 145.676 107.982 144.682 107.414C143.694 106.84 142.933 106.029 142.4 104.982C141.868 103.928 141.601 102.688 141.601 101.262C141.601 99.859 141.868 98.628 142.4 97.5685C142.939 96.5032 143.691 95.6746 144.655 95.0827C145.62 94.485 146.754 94.1861 148.056 94.1861C148.896 94.1861 149.689 94.3222 150.435 94.5945C151.187 94.8608 151.849 95.2751 152.424 95.8374C153.004 96.3996 153.459 97.1158 153.791 97.9858C154.122 98.8499 154.288 99.8797 154.288 101.075V102.061H143.111V99.8945H151.207C151.201 99.279 151.068 98.7315 150.808 98.2521C150.547 97.7668 150.183 97.3851 149.716 97.1069C149.254 96.8287 148.716 96.6896 148.1 96.6896C147.443 96.6896 146.866 96.8494 146.369 97.169C145.872 97.4827 145.484 97.897 145.206 98.4119C144.934 98.9209 144.795 99.4802 144.789 100.09V101.981C144.789 102.774 144.934 103.455 145.224 104.023C145.514 104.585 145.919 105.017 146.44 105.319C146.961 105.615 147.57 105.763 148.269 105.763C148.736 105.763 149.159 105.698 149.538 105.567C149.917 105.431 150.246 105.233 150.524 104.973C150.802 104.712 151.012 104.39 151.154 104.005L154.155 104.342C153.965 105.135 153.604 105.828 153.072 106.42C152.545 107.006 151.87 107.461 151.047 107.787C150.225 108.107 149.284 108.266 148.224 108.266ZM160.221 89.8182V108H157.007V89.8182H160.221ZM169.562 108.266C168.195 108.266 167.014 107.982 166.02 107.414C165.032 106.84 164.271 106.029 163.738 104.982C163.206 103.928 162.939 102.688 162.939 101.262C162.939 99.859 163.206 98.628 163.738 97.5685C164.277 96.5032 165.029 95.6746 165.993 95.0827C166.958 94.485 168.091 94.1861 169.394 94.1861C170.234 94.1861 171.027 94.3222 171.773 94.5945C172.524 94.8608 173.187 95.2751 173.761 95.8374C174.341 96.3996 174.797 97.1158 175.129 97.9858C175.46 98.8499 175.626 99.8797 175.626 101.075V102.061H164.449V99.8945H172.545C172.539 99.279 172.406 98.7315 172.146 98.2521C171.885 97.7668 171.521 97.3851 171.054 97.1069C170.592 96.8287 170.053 96.6896 169.438 96.6896C168.781 96.6896 168.204 96.8494 167.707 97.169C167.21 97.4827 166.822 97.897 166.544 98.4119C166.272 98.9209 166.132 99.4802 166.127 100.09V101.981C166.127 102.774 166.272 103.455 166.562 104.023C166.852 104.585 167.257 105.017 167.778 105.319C168.299 105.615 168.908 105.763 169.607 105.763C170.074 105.763 170.497 105.698 170.876 105.567C171.255 105.431 171.583 105.233 171.862 104.973C172.14 104.712 172.35 104.39 172.492 104.005L175.493 104.342C175.303 105.135 174.942 105.828 174.41 106.42C173.883 107.006 173.208 107.461 172.385 107.787C171.563 108.107 170.622 108.266 169.562 108.266ZM184.293 108.266C182.932 108.266 181.763 107.967 180.786 107.37C179.815 106.772 179.067 105.946 178.54 104.893C178.019 103.833 177.759 102.614 177.759 101.235C177.759 99.8501 178.025 98.628 178.558 97.5685C179.09 96.5032 179.842 95.6746 180.813 95.0827C181.789 94.485 182.943 94.1861 184.275 94.1861C185.382 94.1861 186.361 94.3903 187.214 94.7987C188.072 95.2011 188.755 95.7723 189.264 96.5121C189.773 97.246 190.063 98.1042 190.134 99.0866H187.063C186.938 98.4297 186.642 97.8822 186.175 97.4442C185.713 97.0004 185.095 96.7784 184.319 96.7784C183.662 96.7784 183.085 96.956 182.588 97.3111C182.091 97.6603 181.703 98.1634 181.425 98.8203C181.153 99.4773 181.017 100.264 181.017 101.182C181.017 102.111 181.153 102.91 181.425 103.579C181.698 104.242 182.079 104.754 182.57 105.115C183.068 105.47 183.651 105.647 184.319 105.647C184.793 105.647 185.216 105.559 185.589 105.381C185.968 105.198 186.284 104.934 186.539 104.591C186.793 104.248 186.968 103.83 187.063 103.339H190.134C190.057 104.304 189.773 105.159 189.282 105.905C188.791 106.645 188.122 107.225 187.276 107.645C186.429 108.059 185.435 108.266 184.293 108.266ZM199.583 94.3636V96.8494H191.744V94.3636H199.583ZM193.679 91.0966H196.893V103.898C196.893 104.33 196.958 104.662 197.088 104.893C197.224 105.118 197.402 105.272 197.621 105.354C197.84 105.437 198.082 105.479 198.349 105.479C198.55 105.479 198.733 105.464 198.899 105.434C199.071 105.405 199.201 105.378 199.29 105.354L199.831 107.867C199.66 107.926 199.414 107.991 199.094 108.062C198.781 108.133 198.396 108.175 197.94 108.186C197.135 108.21 196.41 108.089 195.765 107.822C195.12 107.55 194.608 107.13 194.229 106.562C193.856 105.994 193.673 105.283 193.679 104.431V91.0966ZM210.949 108H207.433L213.834 89.8182H217.9L224.31 108H220.794L215.938 93.5469H215.796L210.949 108ZM211.064 100.871H220.652V103.517H211.064V100.871ZM232.906 108V89.8182H239.724C241.121 89.8182 242.292 90.0786 243.239 90.5994C244.192 91.1203 244.911 91.8364 245.397 92.7479C245.888 93.6534 246.134 94.6832 246.134 95.8374C246.134 97.0033 245.888 98.0391 245.397 98.9446C244.906 99.8501 244.18 100.563 243.222 101.084C242.263 101.599 241.082 101.857 239.679 101.857H235.161V99.1488H239.236C240.052 99.1488 240.721 99.0067 241.242 98.7227C241.763 98.4386 242.147 98.0479 242.396 97.5508C242.651 97.0536 242.778 96.4825 242.778 95.8374C242.778 95.1922 242.651 94.6241 242.396 94.1328C242.147 93.6416 241.76 93.2598 241.233 92.9876C240.712 92.7094 240.04 92.5703 239.218 92.5703H236.199V108H232.906ZM248.852 108V94.3636H251.969V96.6364H252.111C252.359 95.8492 252.785 95.2425 253.389 94.8164C253.999 94.3844 254.694 94.1683 255.475 94.1683C255.653 94.1683 255.851 94.1772 256.07 94.195C256.295 94.2068 256.481 94.2275 256.629 94.2571V97.2134C256.493 97.1661 256.277 97.1246 255.981 97.0891C255.691 97.0477 255.41 97.027 255.138 97.027C254.552 97.027 254.025 97.1542 253.558 97.4087C253.096 97.6573 252.732 98.0036 252.466 98.4474C252.199 98.8913 252.066 99.4033 252.066 99.9833V108H248.852ZM264.151 108.266C262.82 108.266 261.665 107.973 260.689 107.387C259.712 106.801 258.955 105.982 258.416 104.928C257.883 103.875 257.617 102.644 257.617 101.235C257.617 99.8265 257.883 98.5924 258.416 97.533C258.955 96.4736 259.712 95.6509 260.689 95.065C261.665 94.479 262.82 94.1861 264.151 94.1861C265.483 94.1861 266.637 94.479 267.614 95.065C268.59 95.6509 269.345 96.4736 269.877 97.533C270.416 98.5924 270.685 99.8265 270.685 101.235C270.685 102.644 270.416 103.875 269.877 104.928C269.345 105.982 268.59 106.801 267.614 107.387C266.637 107.973 265.483 108.266 264.151 108.266ZM264.169 105.692C264.891 105.692 265.495 105.493 265.98 105.097C266.465 104.694 266.826 104.156 267.063 103.481C267.306 102.806 267.427 102.055 267.427 101.226C267.427 100.392 267.306 99.6371 267.063 98.9624C266.826 98.2817 266.465 97.7402 265.98 97.3377C265.495 96.9353 264.891 96.734 264.169 96.734C263.429 96.734 262.814 96.9353 262.322 97.3377C261.837 97.7402 261.473 98.2817 261.23 98.9624C260.994 99.6371 260.875 100.392 260.875 101.226C260.875 102.055 260.994 102.806 261.23 103.481C261.473 104.156 261.837 104.694 262.322 105.097C262.814 105.493 263.429 105.692 264.169 105.692ZM285.13 94.3636L280.273 108H276.722L271.866 94.3636H275.293L278.427 104.493H278.569L281.712 94.3636H285.13ZM287.353 108V94.3636H290.567V108H287.353ZM288.969 92.4283C288.46 92.4283 288.022 92.2596 287.655 91.9222C287.288 91.579 287.105 91.1676 287.105 90.6882C287.105 90.2029 287.288 89.7915 287.655 89.4542C288.022 89.1109 288.46 88.9393 288.969 88.9393C289.484 88.9393 289.922 89.1109 290.283 89.4542C290.65 89.7915 290.834 90.2029 290.834 90.6882C290.834 91.1676 290.65 91.579 290.283 91.9222C289.922 92.2596 289.484 92.4283 288.969 92.4283ZM298.932 108.24C297.861 108.24 296.902 107.964 296.056 107.414C295.21 106.864 294.541 106.065 294.05 105.017C293.558 103.969 293.313 102.697 293.313 101.2C293.313 99.6844 293.561 98.406 294.058 97.3643C294.561 96.3168 295.239 95.5266 296.091 94.994C296.944 94.4554 297.894 94.1861 298.941 94.1861C299.74 94.1861 300.397 94.3222 300.912 94.5945C301.427 94.8608 301.835 95.1834 302.137 95.5621C302.439 95.935 302.673 96.2872 302.839 96.6186H302.972V89.8182H306.194V108H303.034V105.852H302.839C302.673 106.183 302.433 106.535 302.119 106.908C301.806 107.275 301.392 107.589 300.877 107.849C300.362 108.109 299.714 108.24 298.932 108.24ZM299.829 105.603C300.51 105.603 301.09 105.42 301.569 105.053C302.048 104.68 302.412 104.162 302.661 103.499C302.91 102.836 303.034 102.064 303.034 101.182C303.034 100.3 302.91 99.5335 302.661 98.8825C302.418 98.2314 302.057 97.7254 301.578 97.3643C301.104 97.0033 300.521 96.8228 299.829 96.8228C299.113 96.8228 298.515 97.0092 298.036 97.3821C297.556 97.755 297.195 98.2699 296.953 98.9268C296.71 99.5838 296.589 100.335 296.589 101.182C296.589 102.034 296.71 102.795 296.953 103.463C297.201 104.126 297.565 104.65 298.045 105.035C298.53 105.414 299.125 105.603 299.829 105.603ZM315.656 108.266C314.289 108.266 313.108 107.982 312.114 107.414C311.125 106.84 310.365 106.029 309.832 104.982C309.299 103.928 309.033 102.688 309.033 101.262C309.033 99.859 309.299 98.628 309.832 97.5685C310.371 96.5032 311.122 95.6746 312.087 95.0827C313.052 94.485 314.185 94.1861 315.487 94.1861C316.328 94.1861 317.121 94.3222 317.867 94.5945C318.618 94.8608 319.281 95.2751 319.855 95.8374C320.435 96.3996 320.891 97.1158 321.222 97.9858C321.554 98.8499 321.72 99.8797 321.72 101.075V102.061H310.542V99.8945H318.639C318.633 99.279 318.5 98.7315 318.239 98.2521C317.979 97.7668 317.615 97.3851 317.147 97.1069C316.686 96.8287 316.147 96.6896 315.532 96.6896C314.875 96.6896 314.298 96.8494 313.801 97.169C313.303 97.4827 312.916 97.897 312.638 98.4119C312.365 98.9209 312.226 99.4802 312.22 100.09V101.981C312.22 102.774 312.365 103.455 312.655 104.023C312.945 104.585 313.351 105.017 313.872 105.319C314.392 105.615 315.002 105.763 315.7 105.763C316.168 105.763 316.591 105.698 316.97 105.567C317.349 105.431 317.677 105.233 317.955 104.973C318.234 104.712 318.444 104.39 318.586 104.005L321.586 104.342C321.397 105.135 321.036 105.828 320.503 106.42C319.977 107.006 319.302 107.461 318.479 107.787C317.656 108.107 316.715 108.266 315.656 108.266ZM324.438 108V94.3636H327.555V96.6364H327.697C327.945 95.8492 328.371 95.2425 328.975 94.8164C329.585 94.3844 330.28 94.1683 331.061 94.1683C331.239 94.1683 331.437 94.1772 331.656 94.195C331.881 94.2068 332.067 94.2275 332.215 94.2571V97.2134C332.079 97.1661 331.863 97.1246 331.567 97.0891C331.277 97.0477 330.996 97.027 330.724 97.027C330.138 97.027 329.611 97.1542 329.144 97.4087C328.682 97.6573 328.318 98.0036 328.052 98.4474C327.785 98.8913 327.652 99.4033 327.652 99.9833V108H324.438Z" fill="white"/>
<path d="M163.181 360L158.665 344H161.782L164.665 355.758H164.813L167.892 344H170.728L173.813 355.766H173.954L176.837 344H179.954L175.438 360H172.579L169.376 348.773H169.251L166.04 360H163.181ZM184.067 360.242C183.307 360.242 182.622 360.107 182.013 359.836C181.409 359.56 180.929 359.154 180.575 358.617C180.226 358.081 180.052 357.419 180.052 356.633C180.052 355.956 180.177 355.396 180.427 354.953C180.677 354.51 181.018 354.156 181.45 353.891C181.882 353.625 182.369 353.424 182.911 353.289C183.458 353.148 184.023 353.047 184.606 352.984C185.31 352.911 185.88 352.846 186.317 352.789C186.755 352.727 187.073 352.633 187.271 352.508C187.474 352.378 187.575 352.177 187.575 351.906V351.859C187.575 351.271 187.401 350.815 187.052 350.492C186.703 350.169 186.2 350.008 185.544 350.008C184.851 350.008 184.302 350.159 183.896 350.461C183.494 350.763 183.224 351.12 183.083 351.531L180.442 351.156C180.651 350.427 180.994 349.818 181.474 349.328C181.953 348.833 182.539 348.464 183.231 348.219C183.924 347.969 184.69 347.844 185.528 347.844C186.106 347.844 186.682 347.911 187.255 348.047C187.828 348.182 188.351 348.406 188.825 348.719C189.299 349.026 189.679 349.445 189.966 349.977C190.257 350.508 190.403 351.172 190.403 351.969V360H187.685V358.352H187.591C187.419 358.685 187.177 358.997 186.864 359.289C186.557 359.576 186.169 359.807 185.7 359.984C185.237 360.156 184.692 360.242 184.067 360.242ZM184.802 358.164C185.369 358.164 185.862 358.052 186.278 357.828C186.695 357.599 187.015 357.297 187.239 356.922C187.468 356.547 187.583 356.138 187.583 355.695V354.281C187.494 354.354 187.343 354.422 187.13 354.484C186.922 354.547 186.687 354.602 186.427 354.648C186.166 354.695 185.909 354.737 185.653 354.773C185.398 354.81 185.177 354.841 184.989 354.867C184.567 354.924 184.19 355.018 183.856 355.148C183.523 355.279 183.26 355.461 183.067 355.695C182.875 355.924 182.778 356.221 182.778 356.586C182.778 357.107 182.968 357.5 183.349 357.766C183.729 358.031 184.213 358.164 184.802 358.164ZM196.075 344V360H193.247V344H196.075ZM201.812 344V360H198.983V344H201.812ZM210.032 360.234C208.829 360.234 207.79 359.984 206.915 359.484C206.045 358.979 205.376 358.266 204.907 357.344C204.438 356.417 204.204 355.326 204.204 354.07C204.204 352.836 204.438 351.753 204.907 350.82C205.381 349.883 206.043 349.154 206.892 348.633C207.741 348.107 208.738 347.844 209.884 347.844C210.623 347.844 211.321 347.964 211.978 348.203C212.639 348.437 213.222 348.802 213.728 349.297C214.238 349.792 214.639 350.422 214.931 351.187C215.222 351.948 215.368 352.854 215.368 353.906V354.773H205.532V352.867H212.657C212.652 352.326 212.535 351.844 212.306 351.422C212.076 350.995 211.756 350.659 211.345 350.414C210.938 350.169 210.465 350.047 209.923 350.047C209.345 350.047 208.837 350.187 208.399 350.469C207.962 350.745 207.621 351.109 207.376 351.562C207.136 352.01 207.014 352.503 207.009 353.039V354.703C207.009 355.401 207.136 356 207.392 356.5C207.647 356.995 208.004 357.375 208.462 357.641C208.92 357.901 209.457 358.031 210.071 358.031C210.483 358.031 210.855 357.974 211.188 357.859C211.522 357.74 211.811 357.565 212.056 357.336C212.3 357.107 212.485 356.823 212.61 356.484L215.251 356.781C215.084 357.479 214.767 358.089 214.298 358.609C213.834 359.125 213.241 359.526 212.517 359.812C211.793 360.094 210.965 360.234 210.032 360.234ZM223.753 348V350.187H216.854V348H223.753ZM218.558 345.125H221.386V356.391C221.386 356.771 221.443 357.063 221.558 357.266C221.677 357.464 221.834 357.599 222.026 357.672C222.219 357.745 222.433 357.781 222.667 357.781C222.844 357.781 223.006 357.768 223.151 357.742C223.302 357.716 223.417 357.693 223.495 357.672L223.972 359.883C223.821 359.935 223.604 359.992 223.323 360.055C223.047 360.117 222.709 360.154 222.308 360.164C221.599 360.185 220.961 360.078 220.394 359.844C219.826 359.604 219.375 359.234 219.042 358.734C218.714 358.234 218.552 357.609 218.558 356.859V345.125ZM245.396 349.398H242.474C242.39 348.919 242.237 348.495 242.013 348.125C241.789 347.75 241.51 347.432 241.177 347.172C240.843 346.911 240.463 346.716 240.036 346.586C239.614 346.451 239.159 346.383 238.669 346.383C237.799 346.383 237.028 346.602 236.356 347.039C235.685 347.471 235.159 348.107 234.778 348.945C234.398 349.779 234.208 350.797 234.208 352C234.208 353.224 234.398 354.255 234.778 355.094C235.164 355.927 235.69 356.557 236.356 356.984C237.028 357.406 237.797 357.617 238.661 357.617C239.14 357.617 239.588 357.555 240.005 357.43C240.427 357.299 240.804 357.109 241.138 356.859C241.476 356.609 241.76 356.302 241.989 355.937C242.224 355.573 242.385 355.156 242.474 354.687L245.396 354.703C245.286 355.464 245.049 356.177 244.685 356.844C244.325 357.51 243.854 358.099 243.271 358.609C242.687 359.115 242.005 359.51 241.224 359.797C240.442 360.078 239.575 360.219 238.622 360.219C237.216 360.219 235.961 359.893 234.856 359.242C233.752 358.591 232.882 357.651 232.247 356.422C231.612 355.193 231.294 353.719 231.294 352C231.294 350.276 231.614 348.802 232.255 347.578C232.896 346.349 233.768 345.409 234.872 344.758C235.976 344.107 237.226 343.781 238.622 343.781C239.513 343.781 240.341 343.906 241.106 344.156C241.872 344.406 242.554 344.773 243.153 345.258C243.752 345.737 244.244 346.326 244.63 347.023C245.021 347.716 245.276 348.508 245.396 349.398ZM253.159 360.234C251.987 360.234 250.972 359.977 250.112 359.461C249.253 358.945 248.586 358.224 248.112 357.297C247.644 356.37 247.409 355.286 247.409 354.047C247.409 352.807 247.644 351.721 248.112 350.789C248.586 349.857 249.253 349.133 250.112 348.617C250.972 348.102 251.987 347.844 253.159 347.844C254.331 347.844 255.347 348.102 256.206 348.617C257.065 349.133 257.729 349.857 258.198 350.789C258.672 351.721 258.909 352.807 258.909 354.047C258.909 355.286 258.672 356.37 258.198 357.297C257.729 358.224 257.065 358.945 256.206 359.461C255.347 359.977 254.331 360.234 253.159 360.234ZM253.175 357.969C253.81 357.969 254.341 357.794 254.769 357.445C255.196 357.091 255.513 356.617 255.722 356.023C255.935 355.43 256.042 354.768 256.042 354.039C256.042 353.305 255.935 352.641 255.722 352.047C255.513 351.448 255.196 350.971 254.769 350.617C254.341 350.263 253.81 350.086 253.175 350.086C252.524 350.086 251.982 350.263 251.55 350.617C251.123 350.971 250.802 351.448 250.589 352.047C250.381 352.641 250.276 353.305 250.276 354.039C250.276 354.768 250.381 355.43 250.589 356.023C250.802 356.617 251.123 357.091 251.55 357.445C251.982 357.794 252.524 357.969 253.175 357.969ZM264.138 352.969V360H261.31V348H264.013V350.039H264.153C264.429 349.367 264.869 348.833 265.474 348.437C266.083 348.042 266.836 347.844 267.731 347.844C268.56 347.844 269.281 348.021 269.896 348.375C270.515 348.729 270.994 349.242 271.333 349.914C271.677 350.586 271.846 351.401 271.841 352.359V360H269.013V352.797C269.013 351.995 268.804 351.367 268.388 350.914C267.976 350.461 267.406 350.234 266.677 350.234C266.182 350.234 265.742 350.344 265.356 350.562C264.976 350.776 264.677 351.086 264.458 351.492C264.244 351.898 264.138 352.391 264.138 352.969ZM277.544 352.969V360H274.716V348H277.419V350.039H277.56C277.836 349.367 278.276 348.833 278.88 348.437C279.489 348.042 280.242 347.844 281.138 347.844C281.966 347.844 282.687 348.021 283.302 348.375C283.922 348.729 284.401 349.242 284.739 349.914C285.083 350.586 285.252 351.401 285.247 352.359V360H282.419V352.797C282.419 351.995 282.211 351.367 281.794 350.914C281.382 350.461 280.812 350.234 280.083 350.234C279.588 350.234 279.148 350.344 278.763 350.562C278.382 350.776 278.083 351.086 277.864 351.492C277.651 351.898 277.544 352.391 277.544 352.969ZM293.435 360.234C292.231 360.234 291.192 359.984 290.317 359.484C289.448 358.979 288.778 358.266 288.31 357.344C287.841 356.417 287.606 355.326 287.606 354.07C287.606 352.836 287.841 351.753 288.31 350.82C288.784 349.883 289.445 349.154 290.294 348.633C291.143 348.107 292.14 347.844 293.286 347.844C294.026 347.844 294.724 347.964 295.38 348.203C296.041 348.437 296.625 348.802 297.13 349.297C297.64 349.792 298.041 350.422 298.333 351.187C298.625 351.948 298.771 352.854 298.771 353.906V354.773H288.935V352.867H296.06C296.054 352.326 295.937 351.844 295.708 351.422C295.479 350.995 295.159 350.659 294.747 350.414C294.341 350.169 293.867 350.047 293.325 350.047C292.747 350.047 292.239 350.187 291.802 350.469C291.364 350.745 291.023 351.109 290.778 351.562C290.539 352.01 290.416 352.503 290.411 353.039V354.703C290.411 355.401 290.539 356 290.794 356.5C291.049 356.995 291.406 357.375 291.864 357.641C292.323 357.901 292.859 358.031 293.474 358.031C293.885 358.031 294.257 357.974 294.591 357.859C294.924 357.74 295.213 357.565 295.458 357.336C295.703 357.107 295.888 356.823 296.013 356.484L298.653 356.781C298.487 357.479 298.169 358.089 297.7 358.609C297.237 359.125 296.643 359.526 295.919 359.812C295.195 360.094 294.367 360.234 293.435 360.234ZM306.397 360.234C305.2 360.234 304.171 359.971 303.312 359.445C302.457 358.919 301.799 358.193 301.335 357.266C300.877 356.333 300.647 355.26 300.647 354.047C300.647 352.828 300.882 351.753 301.351 350.82C301.819 349.883 302.481 349.154 303.335 348.633C304.194 348.107 305.21 347.844 306.382 347.844C307.356 347.844 308.218 348.023 308.968 348.383C309.723 348.737 310.325 349.24 310.772 349.891C311.22 350.536 311.476 351.292 311.538 352.156H308.835C308.726 351.578 308.465 351.096 308.054 350.711C307.647 350.32 307.103 350.125 306.421 350.125C305.843 350.125 305.335 350.281 304.897 350.594C304.46 350.901 304.119 351.344 303.874 351.922C303.634 352.5 303.515 353.193 303.515 354C303.515 354.818 303.634 355.521 303.874 356.109C304.114 356.693 304.45 357.143 304.882 357.461C305.319 357.773 305.832 357.93 306.421 357.93C306.838 357.93 307.21 357.852 307.538 357.695C307.871 357.534 308.15 357.302 308.374 357C308.598 356.698 308.752 356.331 308.835 355.898H311.538C311.47 356.747 311.22 357.5 310.788 358.156C310.356 358.807 309.767 359.318 309.022 359.687C308.278 360.052 307.403 360.234 306.397 360.234ZM319.853 348V350.187H312.954V348H319.853ZM314.657 345.125H317.485V356.391C317.485 356.771 317.543 357.063 317.657 357.266C317.777 357.464 317.933 357.599 318.126 357.672C318.319 357.745 318.532 357.781 318.767 357.781C318.944 357.781 319.105 357.768 319.251 357.742C319.402 357.716 319.517 357.693 319.595 357.672L320.071 359.883C319.92 359.935 319.704 359.992 319.423 360.055C319.147 360.117 318.808 360.154 318.407 360.164C317.699 360.185 317.061 360.078 316.493 359.844C315.925 359.604 315.475 359.234 315.142 358.734C314.813 358.234 314.652 357.609 314.657 356.859V345.125Z" fill="white"/>
<path d="M222.283 295.229C232.068 285.59 247.932 285.59 257.717 295.229L258.894 296.389C259.384 296.871 259.384 297.653 258.894 298.134L254.866 302.103C254.621 302.344 254.225 302.344 253.98 302.103L252.36 300.506C245.534 293.782 234.466 293.782 227.64 300.506L225.905 302.216C225.66 302.457 225.264 302.457 225.019 302.216L220.991 298.248C220.501 297.766 220.501 296.984 220.991 296.502L222.283 295.229ZM266.048 303.436L269.633 306.968C270.122 307.45 270.122 308.231 269.633 308.713L253.467 324.639C252.978 325.12 252.185 325.12 251.695 324.639C251.695 324.639 251.695 324.639 251.695 324.639L240.222 313.336C240.099 313.215 239.901 313.215 239.779 313.336C239.779 313.336 239.779 313.336 239.779 313.336L228.305 324.639C227.816 325.12 227.023 325.12 226.533 324.639C226.533 324.639 226.533 324.639 226.533 324.639L210.367 308.713C209.878 308.231 209.878 307.45 210.367 306.968L213.952 303.436C214.441 302.954 215.235 302.954 215.724 303.436L227.198 314.739C227.32 314.859 227.518 314.859 227.641 314.739C227.641 314.739 227.641 314.739 227.641 314.739L239.114 303.436C239.603 302.954 240.396 302.954 240.886 303.436C240.886 303.436 240.886 303.436 240.886 303.436L252.36 314.739C252.482 314.859 252.68 314.859 252.802 314.739L264.276 303.436C264.765 302.954 265.559 302.954 266.048 303.436Z" fill="#3B99FC"/>
<path d="M275.78 238H279.327L284.077 249.594H284.265L289.015 238H292.562V254H289.78V243.008H289.632L285.21 253.953H283.132L278.71 242.984H278.562V254H275.78V238ZM300.905 254.234C299.702 254.234 298.663 253.984 297.788 253.484C296.918 252.979 296.249 252.266 295.78 251.344C295.312 250.417 295.077 249.326 295.077 248.07C295.077 246.836 295.312 245.753 295.78 244.82C296.254 243.883 296.916 243.154 297.765 242.633C298.614 242.107 299.611 241.844 300.757 241.844C301.496 241.844 302.194 241.964 302.851 242.203C303.512 242.437 304.095 242.802 304.601 243.297C305.111 243.792 305.512 244.422 305.804 245.187C306.095 245.948 306.241 246.854 306.241 247.906V248.773H296.405V246.867H303.53C303.525 246.326 303.408 245.844 303.179 245.422C302.95 244.995 302.629 244.659 302.218 244.414C301.812 244.169 301.338 244.047 300.796 244.047C300.218 244.047 299.71 244.187 299.272 244.469C298.835 244.745 298.494 245.109 298.249 245.562C298.009 246.01 297.887 246.503 297.882 247.039V248.703C297.882 249.401 298.009 250 298.265 250.5C298.52 250.995 298.877 251.375 299.335 251.641C299.793 251.901 300.33 252.031 300.944 252.031C301.356 252.031 301.728 251.974 302.062 251.859C302.395 251.74 302.684 251.565 302.929 251.336C303.174 251.107 303.358 250.823 303.483 250.484L306.124 250.781C305.957 251.479 305.64 252.089 305.171 252.609C304.707 253.125 304.114 253.526 303.39 253.812C302.666 254.094 301.838 254.234 300.905 254.234ZM314.626 242V244.187H307.728V242H314.626ZM309.431 239.125H312.259V250.391C312.259 250.771 312.316 251.063 312.431 251.266C312.55 251.464 312.707 251.599 312.899 251.672C313.092 251.745 313.306 251.781 313.54 251.781C313.717 251.781 313.879 251.768 314.024 251.742C314.175 251.716 314.29 251.693 314.368 251.672L314.845 253.883C314.694 253.935 314.478 253.992 314.196 254.055C313.92 254.117 313.582 254.154 313.181 254.164C312.472 254.185 311.834 254.078 311.267 253.844C310.699 253.604 310.248 253.234 309.915 252.734C309.587 252.234 309.425 251.609 309.431 250.859V239.125ZM320.444 254.242C319.684 254.242 318.999 254.107 318.39 253.836C317.785 253.56 317.306 253.154 316.952 252.617C316.603 252.081 316.429 251.419 316.429 250.633C316.429 249.956 316.554 249.396 316.804 248.953C317.054 248.51 317.395 248.156 317.827 247.891C318.259 247.625 318.746 247.424 319.288 247.289C319.835 247.148 320.4 247.047 320.983 246.984C321.687 246.911 322.257 246.846 322.694 246.789C323.132 246.727 323.45 246.633 323.647 246.508C323.851 246.378 323.952 246.177 323.952 245.906V245.859C323.952 245.271 323.778 244.815 323.429 244.492C323.08 244.169 322.577 244.008 321.921 244.008C321.228 244.008 320.679 244.159 320.272 244.461C319.871 244.763 319.601 245.12 319.46 245.531L316.819 245.156C317.028 244.427 317.371 243.818 317.851 243.328C318.33 242.833 318.916 242.464 319.608 242.219C320.301 241.969 321.067 241.844 321.905 241.844C322.483 241.844 323.059 241.911 323.632 242.047C324.205 242.182 324.728 242.406 325.202 242.719C325.676 243.026 326.056 243.445 326.343 243.977C326.634 244.508 326.78 245.172 326.78 245.969V254H324.062V252.352H323.968C323.796 252.685 323.554 252.997 323.241 253.289C322.934 253.576 322.546 253.807 322.077 253.984C321.614 254.156 321.069 254.242 320.444 254.242ZM321.179 252.164C321.746 252.164 322.239 252.052 322.655 251.828C323.072 251.599 323.392 251.297 323.616 250.922C323.845 250.547 323.96 250.138 323.96 249.695V248.281C323.871 248.354 323.72 248.422 323.507 248.484C323.299 248.547 323.064 248.602 322.804 248.648C322.543 248.695 322.285 248.737 322.03 248.773C321.775 248.81 321.554 248.841 321.366 248.867C320.944 248.924 320.567 249.018 320.233 249.148C319.9 249.279 319.637 249.461 319.444 249.695C319.252 249.924 319.155 250.221 319.155 250.586C319.155 251.107 319.345 251.5 319.726 251.766C320.106 252.031 320.59 252.164 321.179 252.164ZM335.206 238H338.753L343.503 249.594H343.69L348.44 238H351.987V254H349.206V243.008H349.058L344.636 253.953H342.558L338.136 242.984H337.987V254H335.206V238ZM358.472 254.242C357.711 254.242 357.026 254.107 356.417 253.836C355.813 253.56 355.334 253.154 354.979 252.617C354.631 252.081 354.456 251.419 354.456 250.633C354.456 249.956 354.581 249.396 354.831 248.953C355.081 248.51 355.422 248.156 355.854 247.891C356.287 247.625 356.774 247.424 357.315 247.289C357.862 247.148 358.427 247.047 359.011 246.984C359.714 246.911 360.284 246.846 360.722 246.789C361.159 246.727 361.477 246.633 361.675 246.508C361.878 246.378 361.979 246.177 361.979 245.906V245.859C361.979 245.271 361.805 244.815 361.456 244.492C361.107 244.169 360.604 244.008 359.948 244.008C359.256 244.008 358.706 244.159 358.3 244.461C357.899 244.763 357.628 245.12 357.487 245.531L354.847 245.156C355.055 244.427 355.399 243.818 355.878 243.328C356.357 242.833 356.943 242.464 357.636 242.219C358.328 241.969 359.094 241.844 359.933 241.844C360.511 241.844 361.086 241.911 361.659 242.047C362.232 242.182 362.756 242.406 363.229 242.719C363.703 243.026 364.084 243.445 364.37 243.977C364.662 244.508 364.808 245.172 364.808 245.969V254H362.089V252.352H361.995C361.823 252.685 361.581 252.997 361.269 253.289C360.961 253.576 360.573 253.807 360.104 253.984C359.641 254.156 359.097 254.242 358.472 254.242ZM359.206 252.164C359.774 252.164 360.266 252.052 360.683 251.828C361.099 251.599 361.42 251.297 361.644 250.922C361.873 250.547 361.987 250.138 361.987 249.695V248.281C361.899 248.354 361.748 248.422 361.534 248.484C361.326 248.547 361.091 248.602 360.831 248.648C360.571 248.695 360.313 248.737 360.058 248.773C359.802 248.81 359.581 248.841 359.394 248.867C358.972 248.924 358.594 249.018 358.261 249.148C357.927 249.279 357.664 249.461 357.472 249.695C357.279 249.924 357.183 250.221 357.183 250.586C357.183 251.107 357.373 251.5 357.753 251.766C358.133 252.031 358.618 252.164 359.206 252.164ZM377.136 245.172L374.558 245.453C374.485 245.193 374.357 244.948 374.175 244.719C373.998 244.49 373.758 244.305 373.456 244.164C373.154 244.023 372.784 243.953 372.347 243.953C371.758 243.953 371.263 244.081 370.862 244.336C370.466 244.591 370.271 244.922 370.276 245.328C370.271 245.677 370.399 245.961 370.659 246.18C370.925 246.398 371.362 246.578 371.972 246.719L374.019 247.156C375.154 247.401 375.998 247.789 376.55 248.32C377.107 248.852 377.388 249.547 377.394 250.406C377.388 251.161 377.167 251.828 376.729 252.406C376.297 252.979 375.696 253.427 374.925 253.75C374.154 254.073 373.269 254.234 372.269 254.234C370.8 254.234 369.618 253.927 368.722 253.312C367.826 252.693 367.292 251.831 367.12 250.727L369.878 250.461C370.003 251.003 370.269 251.411 370.675 251.687C371.081 251.964 371.61 252.102 372.261 252.102C372.933 252.102 373.472 251.964 373.878 251.687C374.289 251.411 374.495 251.07 374.495 250.664C374.495 250.32 374.362 250.036 374.097 249.812C373.836 249.589 373.43 249.417 372.878 249.297L370.831 248.867C369.68 248.628 368.828 248.224 368.276 247.656C367.724 247.083 367.451 246.359 367.456 245.484C367.451 244.745 367.651 244.104 368.058 243.562C368.469 243.016 369.039 242.594 369.769 242.297C370.503 241.995 371.349 241.844 372.308 241.844C373.714 241.844 374.821 242.143 375.628 242.742C376.44 243.341 376.943 244.151 377.136 245.172ZM382.304 250.234L382.296 246.82H382.749L387.062 242H390.366L385.062 247.906H384.476L382.304 250.234ZM379.726 254V238H382.554V254H379.726ZM387.257 254L383.351 248.539L385.257 246.547L390.64 254H387.257Z" fill="white"/>
<path fill-rule="evenodd" clip-rule="evenodd" d="M317.469 220.832L324.49 222.695V220.259L325.063 219.686H329.074V222.551V224.557H324.776L319.475 222.265L317.469 220.832Z" fill="#CDBDB2"/>
<path fill-rule="evenodd" clip-rule="evenodd" d="M340.398 220.832L333.521 222.695V220.259L332.948 219.686H328.936V222.551V224.557H333.235L338.536 222.265L340.398 220.832Z" fill="#CDBDB2"/>
<path fill-rule="evenodd" clip-rule="evenodd" d="M325.073 215.529L324.5 220.257L325.216 219.684H332.667L333.526 220.257L332.953 215.529L331.807 214.813L326.076 214.956L325.073 215.529Z" fill="#393939"/>
<path fill-rule="evenodd" clip-rule="evenodd" d="M321.199 183.576L324.638 191.6L326.214 214.954H331.802L333.521 191.6L336.673 183.576H321.199Z" fill="#F89C35"/>
<path fill-rule="evenodd" clip-rule="evenodd" d="M306.158 201.204L302.146 212.809L312.176 212.236H318.623V207.221L318.337 196.905L316.904 198.051L306.158 201.204Z" fill="#F89D35"/>
<path fill-rule="evenodd" clip-rule="evenodd" d="M313.752 202.493L325.501 202.78L324.211 208.797L318.623 207.365L313.752 202.493Z" fill="#D87C30"/>
<path fill-rule="evenodd" clip-rule="evenodd" d="M313.752 202.634L318.623 207.219V211.804L313.752 202.634Z" fill="#EA8D3A"/>
<path fill-rule="evenodd" clip-rule="evenodd" d="M318.619 207.36L324.35 208.793L326.213 214.954L324.923 215.67L318.619 211.945V207.36Z" fill="#F89D35"/>
<path fill-rule="evenodd" clip-rule="evenodd" d="M318.615 211.946L317.469 220.829L325.063 215.528L318.615 211.946Z" fill="#EB8F35"/>
<path fill-rule="evenodd" clip-rule="evenodd" d="M325.493 202.775L326.21 214.953L324.061 208.721L325.493 202.775Z" fill="#EA8E3A"/>
<path fill-rule="evenodd" clip-rule="evenodd" d="M312.027 212.089L318.618 211.946L317.472 220.829L312.027 212.089Z" fill="#D87C30"/>
<path fill-rule="evenodd" clip-rule="evenodd" d="M305.299 224.701L317.477 220.832L312.033 212.093L302.146 212.809L305.299 224.701Z" fill="#EB8F35"/>
<path fill-rule="evenodd" clip-rule="evenodd" d="M324.641 191.604L318.48 196.762L313.752 202.493L325.501 202.923L324.641 191.604Z" fill="#E8821E"/>
<path fill-rule="evenodd" clip-rule="evenodd" d="M317.469 220.829L325.063 215.528L324.49 220.113V222.692L319.331 221.689L317.469 220.829Z" fill="#DFCEC3"/>
<path fill-rule="evenodd" clip-rule="evenodd" d="M340.398 220.829L332.948 215.528L333.521 220.113V222.692L338.679 221.689L340.398 220.829Z" fill="#DFCEC3"/>
<path fill-rule="evenodd" clip-rule="evenodd" d="M322.35 205.355L323.926 208.65L318.338 207.217L322.35 205.355Z" fill="#393939"/>
<path fill-rule="evenodd" clip-rule="evenodd" d="M305.154 176.844L324.64 191.602L321.345 183.578L305.154 176.844Z" fill="#E88F35"/>
<path fill-rule="evenodd" clip-rule="evenodd" d="M305.153 176.844L302.574 184.724L304.007 193.321L303.004 193.894L304.437 195.184L303.291 196.187L304.867 197.62L303.864 198.479L306.156 201.345L316.902 198.049C322.156 193.847 324.735 191.697 324.639 191.602C324.544 191.506 318.048 186.587 305.153 176.844Z" fill="#8E5A30"/>
<path fill-rule="evenodd" clip-rule="evenodd" d="M351.719 201.202L355.73 212.808L345.701 212.235H339.254V207.22L339.54 196.904L340.973 198.05L351.719 201.202Z" fill="#F89D35"/>
<path fill-rule="evenodd" clip-rule="evenodd" d="M344.125 202.492L332.376 202.779L333.666 208.797L339.254 207.364L344.125 202.492Z" fill="#D87C30"/>
<path fill-rule="evenodd" clip-rule="evenodd" d="M344.125 202.633L339.254 207.218V211.803L344.125 202.633Z" fill="#EA8D3A"/>
<path fill-rule="evenodd" clip-rule="evenodd" d="M339.26 207.359L333.529 208.792L331.666 214.953L332.956 215.67L339.26 211.944V207.359Z" fill="#F89D35"/>
<path fill-rule="evenodd" clip-rule="evenodd" d="M339.25 211.945L340.396 220.828L332.946 215.67L339.25 211.945Z" fill="#EB8F35"/>
<path fill-rule="evenodd" clip-rule="evenodd" d="M332.372 202.777L331.655 214.956L333.805 208.724L332.372 202.777Z" fill="#EA8E3A"/>
<path fill-rule="evenodd" clip-rule="evenodd" d="M345.846 212.088L339.255 211.945L340.401 220.828L345.846 212.088Z" fill="#D87C30"/>
<path fill-rule="evenodd" clip-rule="evenodd" d="M352.578 224.7L340.4 220.831L345.844 212.092L355.73 212.808L352.578 224.7Z" fill="#EB8F35"/>
<path fill-rule="evenodd" clip-rule="evenodd" d="M333.236 191.603L339.397 196.761L344.125 202.492L332.376 202.922L333.236 191.603Z" fill="#E8821E"/>
<path fill-rule="evenodd" clip-rule="evenodd" d="M335.527 205.354L333.951 208.65L339.539 207.217L335.527 205.354Z" fill="#393939"/>
<path fill-rule="evenodd" clip-rule="evenodd" d="M352.723 176.844L333.237 191.601L336.532 183.578L352.723 176.844Z" fill="#E88F35"/>
<path fill-rule="evenodd" clip-rule="evenodd" d="M352.722 176.844L355.301 184.724L353.868 193.321L354.871 193.894L353.438 195.183L354.584 196.186L353.008 197.619L354.011 198.479L351.719 201.344L340.973 198.049C335.719 193.846 333.14 191.697 333.236 191.601C333.331 191.506 339.827 186.587 352.722 176.844Z" fill="#8E5A30"/>
<path d="M161 203C161 217.359 149.359 229 135 229C120.641 229 109 217.359 109 203C109 188.641 120.641 177 135 177C149.359 177 161 188.641 161 203Z" fill="#0052FF"/>
<path d="M135.006 193.859C129.956 193.859 125.865 197.95 125.865 203C125.865 208.05 129.956 212.141 135.006 212.141C139.53 212.141 143.286 208.842 144.009 204.523H153.219C152.442 213.908 144.588 221.281 135.006 221.281C124.913 221.281 116.725 213.093 116.725 203C116.725 192.907 124.913 184.719 135.006 184.719C144.588 184.719 152.442 192.092 153.219 201.477H144.002C143.278 197.158 139.53 193.859 135.006 193.859Z" fill="white"/>
<path d="M64.5889 245.398H61.667C61.5837 244.919 61.43 244.495 61.2061 244.125C60.9821 243.75 60.7035 243.432 60.3701 243.172C60.0368 242.911 59.6566 242.716 59.2295 242.586C58.8076 242.451 58.3519 242.383 57.8623 242.383C56.9925 242.383 56.2217 242.602 55.5498 243.039C54.8779 243.471 54.3519 244.107 53.9717 244.945C53.5915 245.779 53.4014 246.797 53.4014 248C53.4014 249.224 53.5915 250.255 53.9717 251.094C54.3571 251.927 54.8831 252.557 55.5498 252.984C56.2217 253.406 56.9899 253.617 57.8545 253.617C58.3337 253.617 58.7816 253.555 59.1982 253.43C59.6201 253.299 59.9977 253.109 60.3311 252.859C60.6696 252.609 60.9535 252.302 61.1826 251.937C61.417 251.573 61.5785 251.156 61.667 250.687L64.5889 250.703C64.4795 251.464 64.2425 252.177 63.8779 252.844C63.5186 253.51 63.0472 254.099 62.4639 254.609C61.8805 255.115 61.1982 255.51 60.417 255.797C59.6357 256.078 58.7686 256.219 57.8154 256.219C56.4092 256.219 55.154 255.893 54.0498 255.242C52.9456 254.591 52.0758 253.651 51.4404 252.422C50.805 251.193 50.4873 249.719 50.4873 248C50.4873 246.276 50.8076 244.802 51.4482 243.578C52.0889 242.349 52.9613 241.409 54.0654 240.758C55.1696 240.107 56.4196 239.781 57.8154 239.781C58.7061 239.781 59.5342 239.906 60.2998 240.156C61.0654 240.406 61.7477 240.773 62.3467 241.258C62.9456 241.737 63.4378 242.326 63.8232 243.023C64.2139 243.716 64.4691 244.508 64.5889 245.398ZM72.3525 256.234C71.1807 256.234 70.165 255.977 69.3057 255.461C68.4463 254.945 67.7796 254.224 67.3057 253.297C66.8369 252.37 66.6025 251.286 66.6025 250.047C66.6025 248.807 66.8369 247.721 67.3057 246.789C67.7796 245.857 68.4463 245.133 69.3057 244.617C70.165 244.102 71.1807 243.844 72.3525 243.844C73.5244 243.844 74.54 244.102 75.3994 244.617C76.2588 245.133 76.9229 245.857 77.3916 246.789C77.8656 247.721 78.1025 248.807 78.1025 250.047C78.1025 251.286 77.8656 252.37 77.3916 253.297C76.9229 254.224 76.2588 254.945 75.3994 255.461C74.54 255.977 73.5244 256.234 72.3525 256.234ZM72.3682 253.969C73.0036 253.969 73.5348 253.794 73.9619 253.445C74.389 253.091 74.7067 252.617 74.915 252.023C75.1286 251.43 75.2354 250.768 75.2354 250.039C75.2354 249.305 75.1286 248.641 74.915 248.047C74.7067 247.448 74.389 246.971 73.9619 246.617C73.5348 246.263 73.0036 246.086 72.3682 246.086C71.7171 246.086 71.1755 246.263 70.7432 246.617C70.3161 246.971 69.9958 247.448 69.7822 248.047C69.5739 248.641 69.4697 249.305 69.4697 250.039C69.4697 250.768 69.5739 251.43 69.7822 252.023C69.9958 252.617 70.3161 253.091 70.7432 253.445C71.1755 253.794 71.7171 253.969 72.3682 253.969ZM80.5029 256V244H83.3311V256H80.5029ZM81.9248 242.297C81.4769 242.297 81.0915 242.148 80.7686 241.852C80.4456 241.549 80.2842 241.187 80.2842 240.766C80.2842 240.339 80.4456 239.977 80.7686 239.68C81.0915 239.378 81.4769 239.227 81.9248 239.227C82.3779 239.227 82.7633 239.378 83.0811 239.68C83.404 239.977 83.5654 240.339 83.5654 240.766C83.5654 241.187 83.404 241.549 83.0811 241.852C82.7633 242.148 82.3779 242.297 81.9248 242.297ZM89.0674 248.969V256H86.2393V244H88.9424V246.039H89.083C89.359 245.367 89.7992 244.833 90.4033 244.437C91.0127 244.042 91.7653 243.844 92.6611 243.844C93.4893 243.844 94.2106 244.021 94.8252 244.375C95.445 244.729 95.9242 245.242 96.2627 245.914C96.6064 246.586 96.7757 247.401 96.7705 248.359V256H93.9424V248.797C93.9424 247.995 93.734 247.367 93.3174 246.914C92.9059 246.461 92.3356 246.234 91.6064 246.234C91.1117 246.234 90.6715 246.344 90.2861 246.562C89.9059 246.776 89.6064 247.086 89.3877 247.492C89.1742 247.898 89.0674 248.391 89.0674 248.969ZM99.7705 256V240H102.599V245.984H102.716C102.862 245.693 103.067 245.383 103.333 245.055C103.599 244.721 103.958 244.437 104.411 244.203C104.864 243.964 105.442 243.844 106.146 243.844C107.073 243.844 107.909 244.081 108.653 244.555C109.403 245.023 109.997 245.719 110.435 246.641C110.877 247.557 111.099 248.682 111.099 250.016C111.099 251.333 110.882 252.453 110.45 253.375C110.018 254.297 109.429 255 108.685 255.484C107.94 255.969 107.096 256.211 106.153 256.211C105.466 256.211 104.896 256.096 104.442 255.867C103.989 255.638 103.625 255.362 103.349 255.039C103.078 254.711 102.867 254.401 102.716 254.109H102.552V256H99.7705ZM102.544 250C102.544 250.776 102.653 251.456 102.872 252.039C103.096 252.622 103.416 253.078 103.833 253.406C104.255 253.729 104.765 253.891 105.364 253.891C105.989 253.891 106.513 253.724 106.935 253.391C107.356 253.052 107.674 252.591 107.888 252.008C108.106 251.419 108.216 250.75 108.216 250C108.216 249.255 108.109 248.594 107.896 248.016C107.682 247.437 107.364 246.984 106.942 246.656C106.521 246.328 105.994 246.164 105.364 246.164C104.76 246.164 104.247 246.323 103.825 246.641C103.403 246.958 103.083 247.404 102.864 247.977C102.651 248.549 102.544 249.224 102.544 250ZM116.956 256.242C116.196 256.242 115.511 256.107 114.901 255.836C114.297 255.56 113.818 255.154 113.464 254.617C113.115 254.081 112.94 253.419 112.94 252.633C112.94 251.956 113.065 251.396 113.315 250.953C113.565 250.51 113.907 250.156 114.339 249.891C114.771 249.625 115.258 249.424 115.8 249.289C116.347 249.148 116.912 249.047 117.495 248.984C118.198 248.911 118.769 248.846 119.206 248.789C119.644 248.727 119.961 248.633 120.159 248.508C120.362 248.378 120.464 248.177 120.464 247.906V247.859C120.464 247.271 120.289 246.815 119.94 246.492C119.591 246.169 119.089 246.008 118.433 246.008C117.74 246.008 117.19 246.159 116.784 246.461C116.383 246.763 116.112 247.12 115.972 247.531L113.331 247.156C113.539 246.427 113.883 245.818 114.362 245.328C114.841 244.833 115.427 244.464 116.12 244.219C116.813 243.969 117.578 243.844 118.417 243.844C118.995 243.844 119.571 243.911 120.144 244.047C120.716 244.182 121.24 244.406 121.714 244.719C122.188 245.026 122.568 245.445 122.854 245.977C123.146 246.508 123.292 247.172 123.292 247.969V256H120.573V254.352H120.479C120.308 254.685 120.065 254.997 119.753 255.289C119.446 255.576 119.058 255.807 118.589 255.984C118.125 256.156 117.581 256.242 116.956 256.242ZM117.69 254.164C118.258 254.164 118.75 254.052 119.167 253.828C119.584 253.599 119.904 253.297 120.128 252.922C120.357 252.547 120.472 252.138 120.472 251.695V250.281C120.383 250.354 120.232 250.422 120.019 250.484C119.81 250.547 119.576 250.602 119.315 250.648C119.055 250.695 118.797 250.737 118.542 250.773C118.287 250.81 118.065 250.841 117.878 250.867C117.456 250.924 117.078 251.018 116.745 251.148C116.412 251.279 116.149 251.461 115.956 251.695C115.763 251.924 115.667 252.221 115.667 252.586C115.667 253.107 115.857 253.5 116.237 253.766C116.618 254.031 117.102 254.164 117.69 254.164ZM135.62 247.172L133.042 247.453C132.969 247.193 132.841 246.948 132.659 246.719C132.482 246.49 132.243 246.305 131.94 246.164C131.638 246.023 131.269 245.953 130.831 245.953C130.243 245.953 129.748 246.081 129.347 246.336C128.951 246.591 128.756 246.922 128.761 247.328C128.756 247.677 128.883 247.961 129.144 248.18C129.409 248.398 129.847 248.578 130.456 248.719L132.503 249.156C133.638 249.401 134.482 249.789 135.034 250.32C135.591 250.852 135.873 251.547 135.878 252.406C135.873 253.161 135.651 253.828 135.214 254.406C134.782 254.979 134.18 255.427 133.409 255.75C132.638 256.073 131.753 256.234 130.753 256.234C129.284 256.234 128.102 255.927 127.206 255.312C126.31 254.693 125.776 253.831 125.604 252.727L128.362 252.461C128.487 253.003 128.753 253.411 129.159 253.687C129.565 253.964 130.094 254.102 130.745 254.102C131.417 254.102 131.956 253.964 132.362 253.687C132.774 253.411 132.979 253.07 132.979 252.664C132.979 252.32 132.847 252.036 132.581 251.812C132.321 251.589 131.914 251.417 131.362 251.297L129.315 250.867C128.164 250.628 127.313 250.224 126.761 249.656C126.209 249.083 125.935 248.359 125.94 247.484C125.935 246.745 126.136 246.104 126.542 245.562C126.953 245.016 127.524 244.594 128.253 244.297C128.987 243.995 129.834 243.844 130.792 243.844C132.198 243.844 133.305 244.143 134.112 244.742C134.925 245.341 135.427 246.151 135.62 247.172ZM143.522 256.234C142.319 256.234 141.28 255.984 140.405 255.484C139.535 254.979 138.866 254.266 138.397 253.344C137.929 252.417 137.694 251.326 137.694 250.07C137.694 248.836 137.929 247.753 138.397 246.82C138.871 245.883 139.533 245.154 140.382 244.633C141.231 244.107 142.228 243.844 143.374 243.844C144.114 243.844 144.812 243.964 145.468 244.203C146.129 244.437 146.713 244.802 147.218 245.297C147.728 245.792 148.129 246.422 148.421 247.187C148.713 247.948 148.858 248.854 148.858 249.906V250.773H139.022V248.867H146.147C146.142 248.326 146.025 247.844 145.796 247.422C145.567 246.995 145.246 246.659 144.835 246.414C144.429 246.169 143.955 246.047 143.413 246.047C142.835 246.047 142.327 246.187 141.89 246.469C141.452 246.745 141.111 247.109 140.866 247.562C140.627 248.01 140.504 248.503 140.499 249.039V250.703C140.499 251.401 140.627 252 140.882 252.5C141.137 252.995 141.494 253.375 141.952 253.641C142.41 253.901 142.947 254.031 143.562 254.031C143.973 254.031 144.345 253.974 144.679 253.859C145.012 253.74 145.301 253.565 145.546 253.336C145.791 253.107 145.976 252.823 146.101 252.484L148.741 252.781C148.575 253.479 148.257 254.089 147.788 254.609C147.325 255.125 146.731 255.526 146.007 255.812C145.283 256.094 144.455 256.234 143.522 256.234ZM160.2 256L155.685 240H158.802L161.685 251.758H161.833L164.911 240H167.747L170.833 251.766H170.974L173.856 240H176.974L172.458 256H169.599L166.396 244.773H166.271L163.06 256H160.2ZM181.087 256.242C180.326 256.242 179.642 256.107 179.032 255.836C178.428 255.56 177.949 255.154 177.595 254.617C177.246 254.081 177.071 253.419 177.071 252.633C177.071 251.956 177.196 251.396 177.446 250.953C177.696 250.51 178.037 250.156 178.47 249.891C178.902 249.625 179.389 249.424 179.931 249.289C180.478 249.148 181.043 249.047 181.626 248.984C182.329 248.911 182.899 248.846 183.337 248.789C183.774 248.727 184.092 248.633 184.29 248.508C184.493 248.378 184.595 248.177 184.595 247.906V247.859C184.595 247.271 184.42 246.815 184.071 246.492C183.722 246.169 183.22 246.008 182.563 246.008C181.871 246.008 181.321 246.159 180.915 246.461C180.514 246.763 180.243 247.12 180.103 247.531L177.462 247.156C177.67 246.427 178.014 245.818 178.493 245.328C178.972 244.833 179.558 244.464 180.251 244.219C180.944 243.969 181.709 243.844 182.548 243.844C183.126 243.844 183.701 243.911 184.274 244.047C184.847 244.182 185.371 244.406 185.845 244.719C186.319 245.026 186.699 245.445 186.985 245.977C187.277 246.508 187.423 247.172 187.423 247.969V256H184.704V254.352H184.61C184.438 254.685 184.196 254.997 183.884 255.289C183.576 255.576 183.188 255.807 182.72 255.984C182.256 256.156 181.712 256.242 181.087 256.242ZM181.821 254.164C182.389 254.164 182.881 254.052 183.298 253.828C183.715 253.599 184.035 253.297 184.259 252.922C184.488 252.547 184.603 252.138 184.603 251.695V250.281C184.514 250.354 184.363 250.422 184.149 250.484C183.941 250.547 183.707 250.602 183.446 250.648C183.186 250.695 182.928 250.737 182.673 250.773C182.418 250.81 182.196 250.841 182.009 250.867C181.587 250.924 181.209 251.018 180.876 251.148C180.543 251.279 180.28 251.461 180.087 251.695C179.894 251.924 179.798 252.221 179.798 252.586C179.798 253.107 179.988 253.5 180.368 253.766C180.748 254.031 181.233 254.164 181.821 254.164ZM193.095 240V256H190.267V240H193.095ZM198.831 240V256H196.003V240H198.831ZM207.052 256.234C205.849 256.234 204.81 255.984 203.935 255.484C203.065 254.979 202.396 254.266 201.927 253.344C201.458 252.417 201.224 251.326 201.224 250.07C201.224 248.836 201.458 247.753 201.927 246.82C202.401 245.883 203.062 245.154 203.911 244.633C204.76 244.107 205.757 243.844 206.903 243.844C207.643 243.844 208.341 243.964 208.997 244.203C209.659 244.437 210.242 244.802 210.747 245.297C211.257 245.792 211.659 246.422 211.95 247.187C212.242 247.948 212.388 248.854 212.388 249.906V250.773H202.552V248.867H209.677C209.672 248.326 209.554 247.844 209.325 247.422C209.096 246.995 208.776 246.659 208.364 246.414C207.958 246.169 207.484 246.047 206.942 246.047C206.364 246.047 205.856 246.187 205.419 246.469C204.981 246.745 204.64 247.109 204.396 247.562C204.156 248.01 204.034 248.503 204.028 249.039V250.703C204.028 251.401 204.156 252 204.411 252.5C204.666 252.995 205.023 253.375 205.481 253.641C205.94 253.901 206.476 254.031 207.091 254.031C207.502 254.031 207.875 253.974 208.208 253.859C208.541 253.74 208.83 253.565 209.075 253.336C209.32 253.107 209.505 252.823 209.63 252.484L212.271 252.781C212.104 253.479 211.786 254.089 211.317 254.609C210.854 255.125 210.26 255.526 209.536 255.812C208.812 256.094 207.984 256.234 207.052 256.234ZM220.772 244V246.187H213.874V244H220.772ZM215.577 241.125H218.405V252.391C218.405 252.771 218.463 253.063 218.577 253.266C218.697 253.464 218.853 253.599 219.046 253.672C219.239 253.745 219.452 253.781 219.687 253.781C219.864 253.781 220.025 253.768 220.171 253.742C220.322 253.716 220.437 253.693 220.515 253.672L220.991 255.883C220.84 255.935 220.624 255.992 220.343 256.055C220.067 256.117 219.728 256.154 219.327 256.164C218.619 256.185 217.981 256.078 217.413 255.844C216.845 255.604 216.395 255.234 216.062 254.734C215.733 254.234 215.572 253.609 215.577 252.859V241.125Z" fill="white"/>
</svg>
