<?xml version="1.0" encoding="utf-8"?>
<!-- Generator: Adobe Illustrator 24.1.2, SVG Export Plug-In . SVG Version: 6.00 Build 0)  -->
<svg version="1.1" id="Layer_1" xmlns="http://www.w3.org/2000/svg" xmlns:xlink="http://www.w3.org/1999/xlink" x="0px" y="0px"
	 viewBox="0 0 112 42" style="enable-background:new 0 0 112 42;" xml:space="preserve">
<style type="text/css">
	.st0{fill:#FFFFFF;}
	.st1{clip-path:url(#SVGID_2_);}
	.st2{fill:#F35911;}
	.st3{fill:#FFFFFF;stroke:#FFFFFF;stroke-width:0.5816;stroke-linejoin:round;}
</style>
<path class="st0" d="M0.9,20.7V6.3h5.8c1,0,1.9,0.2,2.5,0.6c0.6,0.4,1.1,0.9,1.4,1.5C10.8,9,11,9.7,11,10.3c0,0.8-0.2,1.5-0.5,2
	c-0.4,0.5-0.9,0.9-1.5,1.1v-0.5c0.9,0.2,1.6,0.6,2,1.2c0.5,0.6,0.7,1.4,0.7,2.2c0,0.9-0.2,1.6-0.5,2.3c-0.3,0.7-0.8,1.2-1.4,1.5
	c-0.6,0.4-1.5,0.5-2.4,0.5H0.9z M3.7,18.1H7c0.4,0,0.7-0.1,1-0.2c0.3-0.2,0.5-0.4,0.7-0.7c0.2-0.3,0.3-0.6,0.3-1
	c0-0.3-0.1-0.6-0.2-0.9c-0.1-0.3-0.4-0.5-0.6-0.6c-0.3-0.2-0.6-0.2-1-0.2H3.7V18.1z M3.7,11.9h3c0.3,0,0.6-0.1,0.8-0.2
	c0.2-0.1,0.4-0.3,0.6-0.5c0.1-0.2,0.2-0.5,0.2-0.9c0-0.4-0.1-0.8-0.4-1.1S7.1,8.8,6.6,8.8h-3V11.9z M17.3,21c-0.8,0-1.5-0.1-2.1-0.4
	c-0.5-0.3-1-0.6-1.3-1.1c-0.3-0.4-0.5-0.9-0.6-1.4c-0.1-0.5-0.2-0.9-0.2-1.3c0-0.4,0-0.7,0-0.9V9.9h2.8V15c0,0.2,0,0.6,0,1
	c0,0.4,0.1,0.8,0.3,1.1c0.1,0.4,0.4,0.7,0.7,1c0.3,0.3,0.8,0.4,1.3,0.4c0.2,0,0.5,0,0.8-0.1c0.3-0.1,0.5-0.2,0.8-0.4
	c0.2-0.2,0.4-0.5,0.6-0.9c0.2-0.4,0.2-1,0.2-1.6l1.6,0.7c0,0.9-0.2,1.7-0.5,2.4c-0.3,0.7-0.9,1.4-1.6,1.8C19.2,20.8,18.3,21,17.3,21
	z M20.8,20.7v-3.6h-0.3V9.9h2.7v10.8H20.8z M29.8,21c-1.4,0-2.5-0.3-3.3-0.9c-0.8-0.6-1.3-1.5-1.5-2.6l2.8-0.4
	c0.1,0.5,0.4,0.9,0.8,1.2c0.4,0.3,0.9,0.4,1.5,0.4c0.5,0,0.9-0.1,1.1-0.3c0.3-0.2,0.4-0.5,0.4-0.8c0-0.2-0.1-0.4-0.2-0.5
	c-0.1-0.1-0.3-0.3-0.7-0.4c-0.4-0.1-0.9-0.3-1.7-0.5c-0.9-0.2-1.6-0.5-2.1-0.8c-0.5-0.3-0.9-0.6-1.1-1c-0.2-0.4-0.3-0.9-0.3-1.4
	c0-0.7,0.2-1.3,0.5-1.8c0.4-0.5,0.9-0.9,1.5-1.2c0.6-0.3,1.4-0.4,2.3-0.4c0.8,0,1.6,0.1,2.3,0.4c0.7,0.3,1.2,0.6,1.6,1.1
	c0.4,0.5,0.7,1,0.8,1.7l-2.8,0.5c0-0.4-0.2-0.7-0.5-1c-0.3-0.2-0.7-0.4-1.2-0.4c-0.5,0-0.9,0-1.2,0.2c-0.3,0.2-0.4,0.4-0.4,0.7
	c0,0.2,0.1,0.3,0.2,0.5c0.1,0.1,0.4,0.3,0.8,0.4c0.4,0.1,1,0.3,1.9,0.5c0.8,0.2,1.5,0.5,2,0.8c0.5,0.3,0.9,0.6,1.1,1
	c0.2,0.4,0.3,0.9,0.3,1.4c0,1.1-0.4,2-1.2,2.6C32.3,20.7,31.2,21,29.8,21z M36.3,8.4V6H39v2.4H36.3z M36.3,20.7V9.9H39v10.8H36.3z
	 M49,20.7v-5.1c0-0.2,0-0.6,0-0.9c0-0.4-0.1-0.8-0.3-1.2c-0.1-0.4-0.4-0.7-0.7-1c-0.3-0.3-0.8-0.4-1.3-0.4c-0.2,0-0.5,0-0.8,0.1
	c-0.3,0.1-0.5,0.2-0.8,0.4c-0.2,0.2-0.4,0.5-0.6,0.9c-0.1,0.4-0.2,0.9-0.2,1.6l-1.6-0.7c0-0.9,0.2-1.7,0.5-2.4
	c0.3-0.7,0.9-1.4,1.6-1.8c0.7-0.5,1.6-0.7,2.6-0.7c0.8,0,1.5,0.1,2.1,0.4c0.5,0.3,0.9,0.6,1.2,1.1c0.3,0.4,0.5,0.9,0.6,1.4
	c0.1,0.5,0.2,0.9,0.2,1.3c0,0.4,0,0.7,0,0.9v6.1H49z M41.6,20.7V9.9H44v3.6h0.3v7.2H41.6z M58.7,21c-1.1,0-2.1-0.2-2.9-0.7
	c-0.8-0.5-1.5-1.1-2-2c-0.5-0.8-0.7-1.8-0.7-2.9c0-1.2,0.2-2.2,0.7-3.1c0.5-0.9,1.1-1.6,1.9-2c0.8-0.5,1.8-0.7,2.8-0.7
	c1.1,0,2.1,0.3,2.9,0.8c0.8,0.5,1.4,1.3,1.8,2.3s0.5,2.1,0.4,3.4h-2.7v-1c0-1.1-0.2-1.9-0.5-2.4c-0.3-0.5-0.9-0.7-1.7-0.7
	c-0.9,0-1.6,0.3-2.1,0.8c-0.4,0.6-0.7,1.4-0.7,2.5c0,1,0.2,1.8,0.7,2.3c0.4,0.5,1.1,0.8,1.9,0.8c0.5,0,1-0.1,1.4-0.4s0.7-0.6,0.9-1
	l2.7,0.8c-0.4,1-1,1.8-1.9,2.3C60.7,20.7,59.8,21,58.7,21z M55.2,16v-2h7.2v2H55.2z M69.7,21c-1.4,0-2.5-0.3-3.3-0.9
	c-0.8-0.6-1.3-1.5-1.5-2.6l2.8-0.4c0.1,0.5,0.4,0.9,0.8,1.2c0.4,0.3,0.9,0.4,1.5,0.4c0.5,0,0.9-0.1,1.1-0.3c0.3-0.2,0.4-0.5,0.4-0.8
	c0-0.2-0.1-0.4-0.2-0.5c-0.1-0.1-0.3-0.3-0.7-0.4c-0.4-0.1-0.9-0.3-1.7-0.5c-0.9-0.2-1.6-0.5-2.1-0.8c-0.5-0.3-0.9-0.6-1.1-1
	c-0.2-0.4-0.4-0.9-0.4-1.4c0-0.7,0.2-1.3,0.5-1.8c0.4-0.5,0.9-0.9,1.5-1.2c0.6-0.3,1.4-0.4,2.3-0.4c0.8,0,1.6,0.1,2.3,0.4
	s1.2,0.6,1.6,1.1c0.4,0.5,0.7,1,0.8,1.7l-2.8,0.5c0-0.4-0.2-0.7-0.5-1c-0.3-0.2-0.7-0.4-1.2-0.4c-0.5,0-0.9,0-1.2,0.2
	c-0.3,0.2-0.4,0.4-0.4,0.7c0,0.2,0.1,0.3,0.2,0.5c0.1,0.1,0.4,0.3,0.8,0.4c0.4,0.1,1,0.3,1.9,0.5c0.8,0.2,1.5,0.5,2,0.8
	c0.5,0.3,0.9,0.6,1.1,1c0.2,0.4,0.3,0.9,0.3,1.4c0,1.1-0.4,2-1.2,2.6C72.2,20.7,71.1,21,69.7,21z M80.2,21c-1.4,0-2.5-0.3-3.3-0.9
	c-0.8-0.6-1.3-1.5-1.5-2.6l2.8-0.4c0.1,0.5,0.4,0.9,0.8,1.2c0.4,0.3,0.9,0.4,1.5,0.4c0.5,0,0.9-0.1,1.1-0.3c0.3-0.2,0.4-0.5,0.4-0.8
	c0-0.2-0.1-0.4-0.2-0.5c-0.1-0.1-0.3-0.3-0.7-0.4c-0.4-0.1-0.9-0.3-1.7-0.5c-0.9-0.2-1.6-0.5-2.1-0.8c-0.5-0.3-0.9-0.6-1.1-1
	c-0.2-0.4-0.3-0.9-0.3-1.4c0-0.7,0.2-1.3,0.5-1.8c0.4-0.5,0.8-0.9,1.5-1.2c0.6-0.3,1.4-0.4,2.3-0.4c0.8,0,1.6,0.1,2.3,0.4
	s1.2,0.6,1.6,1.1c0.4,0.5,0.7,1,0.8,1.7l-2.8,0.5c0-0.4-0.2-0.7-0.5-1c-0.3-0.2-0.7-0.4-1.2-0.4c-0.5,0-0.9,0-1.2,0.2
	c-0.3,0.2-0.4,0.4-0.4,0.7c0,0.2,0.1,0.3,0.2,0.5c0.1,0.1,0.4,0.3,0.8,0.4c0.4,0.1,1,0.3,1.9,0.5c0.8,0.2,1.5,0.5,2,0.8
	c0.5,0.3,0.9,0.6,1.1,1c0.2,0.4,0.3,0.9,0.3,1.4c0,1.1-0.4,2-1.2,2.6C82.8,20.7,81.7,21,80.2,21z"/>
<g>
	<defs>
		<path id="SVGID_1_" d="M92.6,1.2h17.4c1.1,0,2,0.9,2,2v16c0,1.1-0.9,2-2,2H92.6c-1.1,0-2-0.9-2-2v-16C90.6,2.1,91.5,1.2,92.6,1.2z
			"/>
	</defs>
	<clipPath id="SVGID_2_">
		<use xlink:href="#SVGID_1_"  style="overflow:visible;"/>
	</clipPath>
	<g class="st1">
		<rect x="90.6" y="1.2" class="st2" width="21.4" height="20"/>
		<path class="st3" d="M96.3,18.7c0,0.2,0.1,0.3,0.3,0.3h9.5c0.2,0,0.3-0.1,0.3-0.3v-2.6c0-0.2-0.1-0.3-0.3-0.3h-4.8l2.5-2.4
			c0,0,0,0,0,0c0.5-0.5,1-1,1.4-1.4l0,0c0.4-0.4,0.7-0.9,0.9-1.4l0,0c0.2-0.5,0.3-1.2,0.3-1.9c0-1-0.2-1.9-0.6-2.7
			c-0.4-0.8-1-1.4-1.8-1.9c-0.7-0.5-1.6-0.7-2.5-0.7c-1,0-1.9,0.2-2.7,0.6c-0.8,0.4-1.4,1-1.8,1.8c-0.4,0.8-0.6,1.7-0.6,2.8
			c0,0.2,0.1,0.3,0.3,0.3h2.6c0.1,0,0.2,0,0.2-0.1c0.1-0.1,0.1-0.1,0.1-0.2c0-0.4,0.1-0.7,0.2-1v0l0,0c0.2-0.3,0.4-0.6,0.7-0.7v0
			l0,0c0.3-0.2,0.6-0.3,1-0.3c0.4,0,0.7,0.1,0.9,0.3v0l0,0c0.3,0.2,0.5,0.4,0.6,0.7l0,0l0,0c0.1,0.3,0.2,0.7,0.2,1.1
			c0,0.3-0.1,0.6-0.2,0.9c-0.2,0.3-0.4,0.7-0.8,1.1v0L96.4,16c-0.1,0.1-0.1,0.1-0.1,0.2V18.7z"/>
	</g>
</g>
<path class="st0" d="M27.5,37.9c-1.2,0-2.1-0.3-3-0.8c-0.8-0.5-1.5-1.2-1.9-2.1c-0.4-0.9-0.7-1.9-0.7-3.1c0-1.2,0.2-2.2,0.7-3.1
	c0.5-0.9,1.1-1.6,1.9-2.1c0.8-0.5,1.8-0.8,3-0.8c1.3,0,2.4,0.3,3.3,1c0.9,0.7,1.5,1.5,1.9,2.7l-2.2,0.6c-0.2-0.7-0.6-1.2-1.1-1.6
	c-0.5-0.4-1.2-0.6-2-0.6c-0.7,0-1.3,0.2-1.8,0.5c-0.5,0.3-0.9,0.8-1.1,1.4c-0.2,0.6-0.4,1.3-0.4,2.1c0,0.8,0.1,1.5,0.4,2.1
	c0.2,0.6,0.6,1.1,1.1,1.4c0.5,0.3,1.1,0.5,1.8,0.5c0.8,0,1.5-0.2,2-0.6c0.5-0.4,0.9-0.9,1.1-1.6l2.2,0.6c-0.4,1.1-1,2-1.9,2.7
	C30,37.6,28.9,37.9,27.5,37.9z M38.1,37.9c-0.9,0-1.6-0.2-2.3-0.6c-0.7-0.4-1.2-0.9-1.5-1.6c-0.4-0.7-0.5-1.5-0.5-2.4
	c0-0.9,0.2-1.7,0.6-2.4c0.4-0.7,0.9-1.2,1.5-1.6c0.7-0.4,1.4-0.6,2.3-0.6c0.9,0,1.6,0.2,2.3,0.6c0.7,0.4,1.2,0.9,1.5,1.6
	c0.4,0.7,0.6,1.5,0.6,2.4c0,0.9-0.2,1.7-0.6,2.4c-0.4,0.7-0.9,1.2-1.5,1.6C39.7,37.7,39,37.9,38.1,37.9z M38.1,35.9
	c0.7,0,1.2-0.2,1.6-0.7c0.3-0.5,0.5-1.1,0.5-1.8c0-0.8-0.2-1.4-0.5-1.8c-0.3-0.5-0.9-0.7-1.6-0.7c-0.5,0-0.9,0.1-1.2,0.3
	s-0.5,0.5-0.7,0.9c-0.1,0.4-0.2,0.8-0.2,1.3c0,0.8,0.2,1.4,0.5,1.8C36.9,35.7,37.4,35.9,38.1,35.9z M54.3,37.7v-5.1
	c0-0.6-0.1-1-0.4-1.3c-0.3-0.3-0.6-0.5-1.1-0.5c-0.3,0-0.6,0.1-0.8,0.2c-0.2,0.1-0.4,0.3-0.5,0.6c-0.1,0.3-0.2,0.5-0.2,0.9l-0.9-0.6
	c0-0.6,0.1-1.1,0.4-1.6c0.3-0.5,0.7-0.8,1.1-1.1c0.5-0.3,1-0.4,1.6-0.4c1,0,1.7,0.3,2.2,0.9c0.5,0.6,0.8,1.3,0.8,2.3v5.7H54.3z
	 M43.9,37.7V29h1.9v2.9h0.3v5.8H43.9z M49.1,37.7v-5.1c0-0.6-0.1-1-0.4-1.3c-0.3-0.3-0.6-0.5-1.1-0.5c-0.5,0-0.8,0.2-1.1,0.5
	c-0.3,0.3-0.4,0.7-0.4,1.2l-0.9-0.6c0-0.6,0.1-1.1,0.4-1.5c0.3-0.4,0.7-0.8,1.1-1.1c0.5-0.3,1-0.4,1.6-0.4c0.7,0,1.2,0.1,1.7,0.4
	c0.4,0.3,0.8,0.7,1,1.2s0.3,1,0.3,1.6v5.7H49.1z M68.7,37.7v-5.1c0-0.6-0.1-1-0.4-1.3c-0.3-0.3-0.6-0.5-1.1-0.5
	c-0.3,0-0.6,0.1-0.8,0.2c-0.2,0.1-0.4,0.3-0.5,0.6c-0.1,0.3-0.2,0.5-0.2,0.9l-0.9-0.6c0-0.6,0.1-1.1,0.4-1.6
	c0.3-0.5,0.7-0.8,1.1-1.1c0.5-0.3,1-0.4,1.6-0.4c1,0,1.7,0.3,2.2,0.9c0.5,0.6,0.8,1.3,0.8,2.3v5.7H68.7z M58.2,37.7V29h1.9v2.9h0.3
	v5.8H58.2z M63.5,37.7v-5.1c0-0.6-0.1-1-0.4-1.3c-0.3-0.3-0.6-0.5-1.1-0.5c-0.5,0-0.8,0.2-1.1,0.5c-0.3,0.3-0.4,0.7-0.4,1.2
	l-0.9-0.6c0-0.6,0.1-1.1,0.4-1.5c0.3-0.4,0.7-0.8,1.1-1.1c0.5-0.3,1-0.4,1.6-0.4c0.7,0,1.2,0.1,1.7,0.4c0.4,0.3,0.8,0.7,1,1.2
	s0.3,1,0.3,1.6v5.7H63.5z M75.8,37.9c-0.7,0-1.2-0.1-1.7-0.3c-0.4-0.2-0.8-0.5-1-0.9c-0.2-0.4-0.4-0.7-0.5-1.1
	c-0.1-0.4-0.2-0.7-0.2-1c0-0.3,0-0.5,0-0.7V29h2.2v4.1c0,0.2,0,0.5,0,0.8c0,0.3,0.1,0.6,0.2,0.9s0.3,0.6,0.5,0.8
	c0.3,0.2,0.6,0.3,1.1,0.3c0.2,0,0.4,0,0.6-0.1c0.2-0.1,0.4-0.2,0.6-0.3c0.2-0.2,0.3-0.4,0.5-0.7c0.1-0.3,0.2-0.8,0.2-1.3l1.2,0.6
	c0,0.7-0.1,1.3-0.4,1.9c-0.3,0.6-0.7,1.1-1.3,1.4C77.4,37.7,76.7,37.9,75.8,37.9z M78.6,37.7v-2.9h-0.3V29h2.2v8.6H78.6z M88.3,37.7
	v-4.1c0-0.2,0-0.4,0-0.8c0-0.3-0.1-0.6-0.2-0.9c-0.1-0.3-0.3-0.6-0.6-0.8c-0.3-0.2-0.6-0.3-1.1-0.3c-0.2,0-0.4,0-0.6,0.1
	c-0.2,0.1-0.4,0.2-0.6,0.3c-0.2,0.2-0.3,0.4-0.5,0.7c-0.1,0.3-0.2,0.8-0.2,1.3l-1.2-0.6c0-0.7,0.1-1.3,0.4-1.9
	c0.3-0.6,0.7-1.1,1.2-1.4c0.6-0.4,1.3-0.6,2.1-0.6c0.7,0,1.2,0.1,1.7,0.3c0.4,0.2,0.8,0.5,1,0.9c0.2,0.4,0.4,0.7,0.5,1.1
	c0.1,0.4,0.2,0.7,0.2,1c0,0.3,0,0.5,0,0.7v4.8H88.3z M82.4,37.7V29h1.9v2.9h0.3v5.8H82.4z M92.5,27.8v-1.9h2.2v1.9H92.5z M92.5,37.7
	V29h2.2v8.6H92.5z M101.9,37.7c-0.6,0.1-1.2,0.2-1.8,0.1c-0.6,0-1.1-0.1-1.5-0.3c-0.4-0.2-0.8-0.5-1-0.9c-0.2-0.4-0.3-0.8-0.3-1.2
	c0-0.4,0-0.9,0-1.4v-7.4h2.2v7.2c0,0.3,0,0.6,0,0.9c0,0.3,0.1,0.5,0.2,0.6c0.2,0.3,0.5,0.5,0.9,0.5c0.4,0,0.9,0,1.4-0.1V37.7z
	 M95.7,30.7V29h6.1v1.7H95.7z M104.4,41.5l1.7-4.6l0,1.3l-3.8-9.2h2.3l2.5,6.5h-0.5l2.5-6.5h2.2l-4.9,12.5H104.4z"/>
</svg>
