<svg width="36" height="36" viewBox="0 0 36 36" fill="none" xmlns="http://www.w3.org/2000/svg">
<path d="M18 36C27.9411 36 36 27.9411 36 18C36 8.05887 27.9411 0 18 0C8.05887 0 0 8.05887 0 18C0 27.9411 8.05887 36 18 36Z" fill="#328332"/>
<path d="M17.9876 18.6221L10.4265 17.973L17.9865 13.6958V18.6221H17.9876ZM17.9876 23.6396V31.4471C15.3585 27.3544 12.4605 22.8499 10.125 19.2038C12.8813 20.7563 15.759 22.3796 17.9876 23.6408V23.6396ZM17.9876 12.3131L10.125 16.7006L17.9876 4.5V12.3131Z" fill="white"/>
<path d="M25.5511 17.973L17.99 18.6221V13.6958L25.55 17.973H25.5511ZM17.99 23.6408C20.2175 22.3808 23.0941 20.7563 25.8515 19.2038C23.516 22.851 20.618 27.3555 17.99 31.446V23.6408ZM17.99 12.3131V4.5L25.8515 16.7006L17.99 12.3131Z" fill="white" fill-opacity="0.601"/>
<path opacity="0.2" fill-rule="evenodd" clip-rule="evenodd" d="M17.99 18.6223L25.55 17.9732L17.99 22.22V18.6223Z" fill="white"/>
<path opacity="0.603" fill-rule="evenodd" clip-rule="evenodd" d="M17.9874 18.6223L10.4263 17.9732L17.9874 22.22V18.6223Z" fill="white"/>
</svg>
