<svg width="90" height="90" viewBox="0 0 90 90" fill="none" xmlns="http://www.w3.org/2000/svg">
<path fill-rule="evenodd" clip-rule="evenodd" d="M0.748047 44.8753C0.748047 67.0638 16.863 85.5127 37.9365 89.2523V57.0222H26.78V44.6262H37.9365V34.7092C37.9365 23.5527 45.1262 17.3546 55.2913 17.3546C58.514 17.3546 61.9852 17.8504 65.2079 18.3463V29.7507H59.5058C54.0514 29.7507 52.8119 32.4779 52.8119 35.9488V44.6262H64.7122L62.729 57.0222H52.8119V89.2523C73.8855 85.5127 90.0004 67.0638 90.0004 44.8753C90.0004 20.194 69.9186 0 45.3742 0C20.8298 0 0.748047 20.194 0.748047 44.8753H0.748047Z" fill="white"/>
</svg>
