<svg width="204" height="248" viewBox="0 0 204 248" fill="none" xmlns="http://www.w3.org/2000/svg">
<g clip-path="url(#clip0_512_4367)">
<rect width="204" height="248" rx="8" fill="black"/>
<g opacity="0.7" filter="url(#filter0_f_512_4367)">
<circle cy="-19" r="80" fill="#7B7B7B" fill-opacity="0.6"/>
</g>
<g opacity="0.7" filter="url(#filter1_f_512_4367)">
<circle cx="316.5" cy="284.5" r="126.5" fill="white" fill-opacity="0.6"/>
</g>
<rect x="24" y="192" width="156" height="40" rx="17" fill="url(#paint0_linear_512_4367)"/>
<path d="M56.7898 217.144C57.3338 217.144 57.8498 217.052 58.3378 216.868C58.8338 216.684 59.2738 216.412 59.6578 216.052C60.0498 215.692 60.3578 215.256 60.5818 214.744C60.8058 214.224 60.9178 213.636 60.9178 212.98V212.14H56.7658V213.34H59.5138V213.376C59.5138 213.872 59.3898 214.308 59.1418 214.684C58.8938 215.052 58.5618 215.34 58.1458 215.548C57.7378 215.748 57.2858 215.848 56.7898 215.848C56.1978 215.848 55.6738 215.712 55.2178 215.44C54.7618 215.16 54.4018 214.772 54.1378 214.276C53.8818 213.772 53.7538 213.188 53.7538 212.524C53.7538 211.86 53.8818 211.28 54.1378 210.784C54.3938 210.288 54.7458 209.9 55.1938 209.62C55.6498 209.34 56.1738 209.2 56.7658 209.2C57.3658 209.2 57.8778 209.348 58.3018 209.644C58.7258 209.94 59.0298 210.336 59.2138 210.832L60.4738 210.22C60.3218 209.812 60.0738 209.436 59.7298 209.092C59.3858 208.74 58.9618 208.456 58.4578 208.24C57.9538 208.024 57.3898 207.916 56.7658 207.916C56.1258 207.916 55.5338 208.032 54.9898 208.264C54.4538 208.488 53.9858 208.808 53.5858 209.224C53.1938 209.632 52.8858 210.12 52.6618 210.688C52.4458 211.248 52.3378 211.86 52.3378 212.524C52.3378 213.188 52.4498 213.804 52.6738 214.372C52.8978 214.932 53.2098 215.42 53.6098 215.836C54.0098 216.252 54.4818 216.576 55.0258 216.808C55.5698 217.032 56.1578 217.144 56.7898 217.144ZM65.1235 217.144C65.7475 217.144 66.3155 217 66.8275 216.712C67.3395 216.416 67.7475 216.012 68.0515 215.5C68.3555 214.988 68.5075 214.404 68.5075 213.748C68.5075 213.092 68.3555 212.512 68.0515 212.008C67.7555 211.496 67.3515 211.096 66.8395 210.808C66.3275 210.512 65.7555 210.364 65.1235 210.364C64.4915 210.364 63.9155 210.512 63.3955 210.808C62.8835 211.096 62.4755 211.496 62.1715 212.008C61.8755 212.512 61.7275 213.092 61.7275 213.748C61.7275 214.396 61.8795 214.976 62.1835 215.488C62.4875 216 62.8955 216.404 63.4075 216.7C63.9275 216.996 64.4995 217.144 65.1235 217.144ZM65.1235 215.884C64.7475 215.884 64.4075 215.792 64.1035 215.608C63.8075 215.424 63.5715 215.172 63.3955 214.852C63.2275 214.524 63.1435 214.156 63.1435 213.748C63.1435 213.34 63.2275 212.976 63.3955 212.656C63.5715 212.336 63.8075 212.084 64.1035 211.9C64.4075 211.716 64.7475 211.624 65.1235 211.624C65.4995 211.624 65.8355 211.716 66.1315 211.9C66.4355 212.084 66.6715 212.336 66.8395 212.656C67.0155 212.976 67.1035 213.34 67.1035 213.748C67.1035 214.156 67.0155 214.524 66.8395 214.852C66.6715 215.172 66.4355 215.424 66.1315 215.608C65.8355 215.792 65.4995 215.884 65.1235 215.884ZM73.165 217H74.569V209.32H76.909V208.06H70.789V209.32H73.165V217ZM79.884 217.144C80.508 217.144 81.076 217 81.588 216.712C82.1 216.416 82.508 216.012 82.812 215.5C83.116 214.988 83.268 214.404 83.268 213.748C83.268 213.092 83.116 212.512 82.812 212.008C82.516 211.496 82.112 211.096 81.6 210.808C81.088 210.512 80.516 210.364 79.884 210.364C79.252 210.364 78.676 210.512 78.156 210.808C77.644 211.096 77.236 211.496 76.932 212.008C76.636 212.512 76.488 213.092 76.488 213.748C76.488 214.396 76.64 214.976 76.944 215.488C77.248 216 77.656 216.404 78.168 216.7C78.688 216.996 79.26 217.144 79.884 217.144ZM79.884 215.884C79.508 215.884 79.168 215.792 78.864 215.608C78.568 215.424 78.332 215.172 78.156 214.852C77.988 214.524 77.904 214.156 77.904 213.748C77.904 213.34 77.988 212.976 78.156 212.656C78.332 212.336 78.568 212.084 78.864 211.9C79.168 211.716 79.508 211.624 79.884 211.624C80.26 211.624 80.596 211.716 80.892 211.9C81.196 212.084 81.432 212.336 81.6 212.656C81.776 212.976 81.864 213.34 81.864 213.748C81.864 214.156 81.776 214.524 81.6 214.852C81.432 215.172 81.196 215.424 80.892 215.608C80.596 215.792 80.26 215.884 79.884 215.884ZM86.3415 217H87.7575V213.256H91.8975V217H93.3015V208.06H91.8975V211.996H87.7575V208.06H86.3415V217ZM97.83 217.144C98.494 217.144 99.07 216.992 99.558 216.688C100.054 216.384 100.402 216 100.602 215.536L99.498 214.996C99.338 215.268 99.118 215.496 98.838 215.68C98.566 215.856 98.234 215.944 97.842 215.944C97.33 215.944 96.894 215.784 96.534 215.464C96.174 215.136 95.974 214.696 95.934 214.144H100.758C100.782 214.048 100.798 213.944 100.806 213.832C100.814 213.72 100.818 213.612 100.818 213.508C100.818 212.948 100.694 212.432 100.446 211.96C100.206 211.48 99.854 211.096 99.39 210.808C98.934 210.512 98.378 210.364 97.722 210.364C97.114 210.364 96.566 210.512 96.078 210.808C95.598 211.096 95.218 211.496 94.938 212.008C94.658 212.512 94.518 213.088 94.518 213.736C94.518 214.376 94.658 214.956 94.938 215.476C95.226 215.988 95.618 216.396 96.114 216.7C96.61 216.996 97.182 217.144 97.83 217.144ZM97.722 211.504C98.178 211.504 98.562 211.648 98.874 211.936C99.186 212.224 99.354 212.6 99.378 213.064H95.958C96.038 212.568 96.242 212.184 96.57 211.912C96.898 211.64 97.282 211.504 97.722 211.504ZM101.901 217H103.257V207.916H101.901V217ZM104.603 219.4H105.959V216.244C106.199 216.532 106.503 216.756 106.871 216.916C107.239 217.068 107.639 217.144 108.071 217.144C108.695 217.144 109.251 216.996 109.739 216.7C110.227 216.396 110.611 215.988 110.891 215.476C111.179 214.964 111.323 214.388 111.323 213.748C111.323 213.108 111.179 212.532 110.891 212.02C110.611 211.508 110.223 211.104 109.727 210.808C109.239 210.512 108.687 210.364 108.071 210.364C107.607 210.364 107.187 210.448 106.811 210.616C106.443 210.784 106.139 211.02 105.899 211.324V210.508H104.603V219.4ZM107.939 215.884C107.563 215.884 107.223 215.792 106.919 215.608C106.623 215.424 106.387 215.172 106.211 214.852C106.043 214.524 105.959 214.156 105.959 213.748C105.959 213.34 106.043 212.976 106.211 212.656C106.387 212.336 106.623 212.084 106.919 211.9C107.223 211.716 107.563 211.624 107.939 211.624C108.323 211.624 108.663 211.716 108.959 211.9C109.255 212.084 109.487 212.336 109.655 212.656C109.831 212.976 109.919 213.34 109.919 213.748C109.919 214.156 109.831 214.524 109.655 214.852C109.487 215.172 109.255 215.424 108.959 215.608C108.663 215.792 108.323 215.884 107.939 215.884ZM118.555 217.144C119.179 217.144 119.743 217.036 120.247 216.82C120.751 216.604 121.175 216.32 121.519 215.968C121.863 215.616 122.111 215.24 122.263 214.84L120.991 214.24C120.799 214.72 120.491 215.108 120.067 215.404C119.651 215.7 119.147 215.848 118.555 215.848C117.963 215.848 117.439 215.712 116.983 215.44C116.535 215.16 116.183 214.772 115.927 214.276C115.671 213.772 115.543 213.188 115.543 212.524C115.543 211.86 115.671 211.28 115.927 210.784C116.183 210.288 116.535 209.9 116.983 209.62C117.439 209.34 117.963 209.2 118.555 209.2C119.147 209.2 119.651 209.352 120.067 209.656C120.491 209.952 120.799 210.34 120.991 210.82L122.263 210.22C122.111 209.812 121.863 209.436 121.519 209.092C121.175 208.74 120.751 208.456 120.247 208.24C119.743 208.024 119.179 207.916 118.555 207.916C117.915 207.916 117.323 208.032 116.779 208.264C116.243 208.488 115.775 208.808 115.375 209.224C114.983 209.632 114.675 210.12 114.451 210.688C114.235 211.248 114.127 211.86 114.127 212.524C114.127 213.188 114.235 213.804 114.451 214.372C114.675 214.932 114.987 215.42 115.387 215.836C115.787 216.252 116.255 216.576 116.791 216.808C117.335 217.032 117.923 217.144 118.555 217.144ZM126.278 217.144C126.942 217.144 127.518 216.992 128.006 216.688C128.502 216.384 128.85 216 129.05 215.536L127.946 214.996C127.786 215.268 127.566 215.496 127.286 215.68C127.014 215.856 126.682 215.944 126.29 215.944C125.778 215.944 125.342 215.784 124.982 215.464C124.622 215.136 124.422 214.696 124.382 214.144H129.206C129.23 214.048 129.246 213.944 129.254 213.832C129.262 213.72 129.266 213.612 129.266 213.508C129.266 212.948 129.142 212.432 128.894 211.96C128.654 211.48 128.302 211.096 127.838 210.808C127.382 210.512 126.826 210.364 126.17 210.364C125.562 210.364 125.014 210.512 124.526 210.808C124.046 211.096 123.666 211.496 123.386 212.008C123.106 212.512 122.966 213.088 122.966 213.736C122.966 214.376 123.106 214.956 123.386 215.476C123.674 215.988 124.066 216.396 124.562 216.7C125.058 216.996 125.63 217.144 126.278 217.144ZM126.17 211.504C126.626 211.504 127.01 211.648 127.322 211.936C127.634 212.224 127.802 212.6 127.826 213.064H124.406C124.486 212.568 124.69 212.184 125.018 211.912C125.346 211.64 125.73 211.504 126.17 211.504ZM130.35 217H131.706V213.172C131.706 212.692 131.842 212.316 132.114 212.044C132.386 211.764 132.73 211.624 133.146 211.624C133.57 211.624 133.914 211.764 134.178 212.044C134.45 212.316 134.586 212.692 134.586 213.172V217H135.93V212.8C135.93 212.32 135.822 211.9 135.606 211.54C135.398 211.172 135.11 210.884 134.742 210.676C134.374 210.468 133.954 210.364 133.482 210.364C133.082 210.364 132.722 210.444 132.402 210.604C132.082 210.764 131.83 210.996 131.646 211.3V210.508H130.35V217ZM139.949 217.072C140.061 217.072 140.185 217.064 140.321 217.048C140.457 217.032 140.577 217.016 140.681 217V215.836C140.529 215.86 140.381 215.872 140.237 215.872C139.845 215.872 139.565 215.78 139.397 215.596C139.237 215.404 139.157 215.144 139.157 214.816V211.732H140.633V210.508H139.157V209.02H137.801V209.524C137.801 209.828 137.717 210.068 137.549 210.244C137.381 210.42 137.145 210.508 136.841 210.508H136.661V211.732H137.801V214.876C137.801 215.572 137.989 216.112 138.365 216.496C138.741 216.88 139.269 217.072 139.949 217.072ZM144.695 217.144C145.359 217.144 145.935 216.992 146.423 216.688C146.919 216.384 147.267 216 147.467 215.536L146.363 214.996C146.203 215.268 145.983 215.496 145.703 215.68C145.431 215.856 145.099 215.944 144.707 215.944C144.195 215.944 143.759 215.784 143.399 215.464C143.039 215.136 142.839 214.696 142.799 214.144H147.623C147.647 214.048 147.663 213.944 147.671 213.832C147.679 213.72 147.683 213.612 147.683 213.508C147.683 212.948 147.559 212.432 147.311 211.96C147.071 211.48 146.719 211.096 146.255 210.808C145.799 210.512 145.243 210.364 144.587 210.364C143.979 210.364 143.431 210.512 142.943 210.808C142.463 211.096 142.083 211.496 141.803 212.008C141.523 212.512 141.383 213.088 141.383 213.736C141.383 214.376 141.523 214.956 141.803 215.476C142.091 215.988 142.483 216.396 142.979 216.7C143.475 216.996 144.047 217.144 144.695 217.144ZM144.587 211.504C145.043 211.504 145.427 211.648 145.739 211.936C146.051 212.224 146.219 212.6 146.243 213.064H142.823C142.903 212.568 143.107 212.184 143.435 211.912C143.763 211.64 144.147 211.504 144.587 211.504ZM148.767 217H150.123V213.256C150.123 212.744 150.259 212.352 150.531 212.08C150.811 211.8 151.175 211.66 151.623 211.66H152.187V210.424H151.791C151.399 210.424 151.055 210.496 150.759 210.64C150.463 210.784 150.231 211.016 150.063 211.336V210.508H148.767V217Z" fill="black"/>
<path d="M58.6289 101V89.08H60.5169V94.328H66.0369V89.08H67.9089V101H66.0369V96.008H60.5169V101H58.6289ZM73.9469 101.192C73.0829 101.192 72.3149 100.995 71.6429 100.6C70.9815 100.195 70.4642 99.6507 70.0909 98.968C69.7175 98.2747 69.5309 97.5013 69.5309 96.648C69.5309 95.7733 69.7175 95 70.0909 94.328C70.4749 93.656 70.9869 93.128 71.6269 92.744C72.2669 92.3493 72.9922 92.152 73.8029 92.152C74.4535 92.152 75.0349 92.264 75.5469 92.488C76.0589 92.712 76.4909 93.0213 76.8429 93.416C77.1949 93.8 77.4615 94.2427 77.6429 94.744C77.8349 95.2453 77.9309 95.7787 77.9309 96.344C77.9309 96.4827 77.9255 96.6267 77.9149 96.776C77.9042 96.9253 77.8829 97.064 77.8509 97.192H70.9549V95.752H76.8269L75.9629 96.408C76.0695 95.8853 76.0322 95.4213 75.8509 95.016C75.6802 94.6 75.4135 94.2747 75.0509 94.04C74.6989 93.7947 74.2829 93.672 73.8029 93.672C73.3229 93.672 72.8962 93.7947 72.5229 94.04C72.1495 94.2747 71.8615 94.616 71.6589 95.064C71.4562 95.5013 71.3762 96.0347 71.4189 96.664C71.3655 97.2507 71.4455 97.7627 71.6589 98.2C71.8829 98.6373 72.1922 98.9787 72.5869 99.224C72.9922 99.4693 73.4509 99.592 73.9629 99.592C74.4855 99.592 74.9282 99.4747 75.2909 99.24C75.6642 99.0053 75.9575 98.7013 76.1709 98.328L77.6429 99.048C77.4722 99.4533 77.2055 99.8213 76.8429 100.152C76.4909 100.472 76.0642 100.728 75.5629 100.92C75.0722 101.101 74.5335 101.192 73.9469 101.192ZM79.3754 101V88.888H81.1834V101H79.3754ZM82.9772 104.2V92.344H84.7052V94.136L84.4972 93.72C84.8172 93.2293 85.2439 92.8453 85.7772 92.568C86.3106 92.2907 86.9186 92.152 87.6012 92.152C88.4226 92.152 89.1586 92.3493 89.8092 92.744C90.4706 93.1387 90.9879 93.6773 91.3612 94.36C91.7453 95.0427 91.9373 95.8107 91.9373 96.664C91.9373 97.5173 91.7453 98.2853 91.3612 98.968C90.9879 99.6507 90.4759 100.195 89.8252 100.6C89.1746 100.995 88.4332 101.192 87.6012 101.192C86.9292 101.192 86.3159 101.053 85.7612 100.776C85.2172 100.499 84.7959 100.099 84.4972 99.576L84.7852 99.24V104.2H82.9772ZM87.4252 99.512C87.9372 99.512 88.3906 99.3893 88.7852 99.144C89.1799 98.8987 89.4892 98.5627 89.7132 98.136C89.9479 97.6987 90.0652 97.208 90.0652 96.664C90.0652 96.12 89.9479 95.6347 89.7132 95.208C89.4892 94.7813 89.1799 94.4453 88.7852 94.2C88.3906 93.9547 87.9372 93.832 87.4252 93.832C86.9239 93.832 86.4706 93.9547 86.0652 94.2C85.6706 94.4453 85.3559 94.7813 85.1212 95.208C84.8972 95.6347 84.7852 96.12 84.7852 96.664C84.7852 97.208 84.8972 97.6987 85.1212 98.136C85.3559 98.5627 85.6706 98.8987 86.0652 99.144C86.4706 99.3893 86.9239 99.512 87.4252 99.512ZM101.581 101.192C100.738 101.192 99.9542 101.037 99.2289 100.728C98.5142 100.419 97.8902 99.992 97.3569 99.448C96.8342 98.8933 96.4235 98.2427 96.1249 97.496C95.8262 96.7493 95.6769 95.928 95.6769 95.032C95.6769 94.1467 95.8209 93.3307 96.1089 92.584C96.4075 91.8267 96.8235 91.176 97.3569 90.632C97.8902 90.0773 98.5142 89.6507 99.2289 89.352C99.9435 89.0427 100.728 88.888 101.581 88.888C102.424 88.888 103.176 89.032 103.837 89.32C104.509 89.608 105.074 89.9867 105.533 90.456C105.992 90.9147 106.322 91.416 106.525 91.96L104.829 92.76C104.573 92.12 104.162 91.6027 103.597 91.208C103.042 90.8027 102.37 90.6 101.581 90.6C100.792 90.6 100.093 90.7867 99.4849 91.16C98.8769 91.5333 98.4022 92.0507 98.0609 92.712C97.7302 93.3733 97.5649 94.1467 97.5649 95.032C97.5649 95.9173 97.7302 96.696 98.0609 97.368C98.4022 98.0293 98.8769 98.5467 99.4849 98.92C100.093 99.2827 100.792 99.464 101.581 99.464C102.37 99.464 103.042 99.2667 103.597 98.872C104.162 98.4773 104.573 97.96 104.829 97.32L106.525 98.12C106.322 98.6533 105.992 99.1547 105.533 99.624C105.074 100.093 104.509 100.472 103.837 100.76C103.176 101.048 102.424 101.192 101.581 101.192ZM111.878 101.192C111.014 101.192 110.246 100.995 109.574 100.6C108.913 100.195 108.395 99.6507 108.022 98.968C107.649 98.2747 107.462 97.5013 107.462 96.648C107.462 95.7733 107.649 95 108.022 94.328C108.406 93.656 108.918 93.128 109.558 92.744C110.198 92.3493 110.923 92.152 111.734 92.152C112.385 92.152 112.966 92.264 113.478 92.488C113.99 92.712 114.422 93.0213 114.774 93.416C115.126 93.8 115.393 94.2427 115.574 94.744C115.766 95.2453 115.862 95.7787 115.862 96.344C115.862 96.4827 115.857 96.6267 115.846 96.776C115.835 96.9253 115.814 97.064 115.782 97.192H108.886V95.752H114.758L113.894 96.408C114.001 95.8853 113.963 95.4213 113.782 95.016C113.611 94.6 113.345 94.2747 112.982 94.04C112.63 93.7947 112.214 93.672 111.734 93.672C111.254 93.672 110.827 93.7947 110.454 94.04C110.081 94.2747 109.793 94.616 109.59 95.064C109.387 95.5013 109.307 96.0347 109.35 96.664C109.297 97.2507 109.377 97.7627 109.59 98.2C109.814 98.6373 110.123 98.9787 110.518 99.224C110.923 99.4693 111.382 99.592 111.894 99.592C112.417 99.592 112.859 99.4747 113.222 99.24C113.595 99.0053 113.889 98.7013 114.102 98.328L115.574 99.048C115.403 99.4533 115.137 99.8213 114.774 100.152C114.422 100.472 113.995 100.728 113.494 100.92C113.003 101.101 112.465 101.192 111.878 101.192ZM117.307 101V92.344H119.035V94.04L118.827 93.816C119.04 93.272 119.381 92.8613 119.851 92.584C120.32 92.296 120.864 92.152 121.483 92.152C122.123 92.152 122.688 92.2907 123.179 92.568C123.669 92.8453 124.053 93.2293 124.331 93.72C124.608 94.2107 124.747 94.776 124.747 95.416V101H122.955V95.896C122.955 95.4587 122.875 95.0907 122.715 94.792C122.555 94.4827 122.325 94.248 122.027 94.088C121.739 93.9173 121.408 93.832 121.035 93.832C120.661 93.832 120.325 93.9173 120.027 94.088C119.739 94.248 119.515 94.4827 119.355 94.792C119.195 95.1013 119.115 95.4693 119.115 95.896V101H117.307ZM130.106 101.096C129.199 101.096 128.495 100.84 127.994 100.328C127.492 99.816 127.242 99.096 127.242 98.168V93.976H125.722V92.344H125.962C126.367 92.344 126.682 92.2267 126.906 91.992C127.13 91.7573 127.242 91.4373 127.242 91.032V90.36H129.05V92.344H131.018V93.976H129.05V98.088C129.05 98.3867 129.098 98.6427 129.194 98.856C129.29 99.0587 129.444 99.2187 129.658 99.336C129.871 99.4427 130.148 99.496 130.49 99.496C130.575 99.496 130.671 99.4907 130.778 99.48C130.884 99.4693 130.986 99.4587 131.082 99.448V101C130.932 101.021 130.767 101.043 130.586 101.064C130.404 101.085 130.244 101.096 130.106 101.096ZM136.434 101.192C135.57 101.192 134.802 100.995 134.13 100.6C133.468 100.195 132.951 99.6507 132.578 98.968C132.204 98.2747 132.018 97.5013 132.018 96.648C132.018 95.7733 132.204 95 132.578 94.328C132.962 93.656 133.474 93.128 134.114 92.744C134.754 92.3493 135.479 92.152 136.29 92.152C136.94 92.152 137.522 92.264 138.034 92.488C138.546 92.712 138.978 93.0213 139.33 93.416C139.682 93.8 139.948 94.2427 140.13 94.744C140.322 95.2453 140.418 95.7787 140.418 96.344C140.418 96.4827 140.412 96.6267 140.402 96.776C140.391 96.9253 140.37 97.064 140.338 97.192H133.442V95.752H139.314L138.45 96.408C138.556 95.8853 138.519 95.4213 138.338 95.016C138.167 94.6 137.9 94.2747 137.538 94.04C137.186 93.7947 136.77 93.672 136.29 93.672C135.81 93.672 135.383 93.7947 135.01 94.04C134.636 94.2747 134.348 94.616 134.146 95.064C133.943 95.5013 133.863 96.0347 133.906 96.664C133.852 97.2507 133.932 97.7627 134.146 98.2C134.37 98.6373 134.679 98.9787 135.074 99.224C135.479 99.4693 135.938 99.592 136.45 99.592C136.972 99.592 137.415 99.4747 137.778 99.24C138.151 99.0053 138.444 98.7013 138.658 98.328L140.13 99.048C139.959 99.4533 139.692 99.8213 139.33 100.152C138.978 100.472 138.551 100.728 138.05 100.92C137.559 101.101 137.02 101.192 136.434 101.192ZM141.862 101V92.344H143.59V94.088L143.43 93.832C143.622 93.2667 143.932 92.8613 144.358 92.616C144.785 92.36 145.297 92.232 145.894 92.232H146.422V93.88H145.67C145.073 93.88 144.588 94.0667 144.214 94.44C143.852 94.8027 143.67 95.3253 143.67 96.008V101H141.862Z" fill="white"/>
<path d="M30.7346 130V121.06H31.6946V125.08H36.4946V121.06H37.4546V130H36.4946V125.98H31.6946V130H30.7346ZM41.0585 130.144C40.6505 130.144 40.2865 130.068 39.9665 129.916C39.6465 129.756 39.3945 129.54 39.2105 129.268C39.0265 128.996 38.9345 128.684 38.9345 128.332C38.9345 127.996 39.0065 127.692 39.1505 127.42C39.2945 127.14 39.5185 126.904 39.8225 126.712C40.1265 126.52 40.5145 126.384 40.9865 126.304L43.5065 125.884V126.7L41.2025 127.084C40.7385 127.164 40.4025 127.312 40.1945 127.528C39.9945 127.744 39.8945 128 39.8945 128.296C39.8945 128.584 40.0065 128.828 40.2305 129.028C40.4625 129.228 40.7585 129.328 41.1185 129.328C41.5585 129.328 41.9425 129.236 42.2705 129.052C42.5985 128.86 42.8545 128.604 43.0385 128.284C43.2225 127.964 43.3145 127.608 43.3145 127.216V125.584C43.3145 125.2 43.1745 124.888 42.8945 124.648C42.6145 124.408 42.2505 124.288 41.8025 124.288C41.4105 124.288 41.0665 124.388 40.7705 124.588C40.4745 124.78 40.2545 125.032 40.1105 125.344L39.2945 124.9C39.4145 124.628 39.6025 124.38 39.8585 124.156C40.1225 123.932 40.4225 123.756 40.7585 123.628C41.0945 123.492 41.4425 123.424 41.8025 123.424C42.2745 123.424 42.6905 123.516 43.0505 123.7C43.4185 123.884 43.7025 124.14 43.9025 124.468C44.1105 124.788 44.2145 125.16 44.2145 125.584V130H43.3145V128.716L43.4465 128.848C43.3345 129.088 43.1585 129.308 42.9185 129.508C42.6865 129.7 42.4105 129.856 42.0905 129.976C41.7785 130.088 41.4345 130.144 41.0585 130.144ZM47.4245 130L44.9165 123.568H45.9245L48.0365 129.208H47.7125L49.8365 123.568H50.8565L48.3245 130H47.4245ZM51.6678 130V123.568H52.5678V130H51.6678ZM51.6678 122.38V121.06H52.5678V122.38H51.6678ZM54.1699 130V123.568H55.0699V124.816L54.8659 124.768C55.0259 124.352 55.2859 124.024 55.6459 123.784C56.0139 123.544 56.4379 123.424 56.9179 123.424C57.3739 123.424 57.7819 123.528 58.1419 123.736C58.5099 123.944 58.7979 124.232 59.0059 124.6C59.2219 124.96 59.3299 125.368 59.3299 125.824V130H58.4299V126.172C58.4299 125.78 58.3579 125.448 58.2139 125.176C58.0779 124.904 57.8819 124.696 57.6259 124.552C57.3779 124.4 57.0899 124.324 56.7619 124.324C56.4339 124.324 56.1419 124.4 55.8859 124.552C55.6299 124.696 55.4299 124.908 55.2859 125.188C55.1419 125.46 55.0699 125.788 55.0699 126.172V130H54.1699ZM63.8568 132.64C63.4168 132.64 63.0088 132.572 62.6328 132.436C62.2648 132.3 61.9448 132.112 61.6728 131.872C61.4088 131.64 61.2048 131.368 61.0608 131.056L61.8888 130.612C62.0168 130.916 62.2448 131.18 62.5728 131.404C62.9008 131.628 63.3208 131.74 63.8328 131.74C64.2248 131.74 64.5848 131.664 64.9128 131.512C65.2408 131.36 65.5048 131.136 65.7048 130.84C65.9048 130.544 66.0048 130.18 66.0048 129.748V128.32L66.1488 128.452C65.9248 128.916 65.5928 129.276 65.1528 129.532C64.7128 129.78 64.2328 129.904 63.7128 129.904C63.1128 129.904 62.5728 129.76 62.0928 129.472C61.6128 129.184 61.2328 128.796 60.9528 128.308C60.6808 127.812 60.5448 127.264 60.5448 126.664C60.5448 126.056 60.6808 125.508 60.9528 125.02C61.2328 124.532 61.6088 124.144 62.0808 123.856C62.5608 123.568 63.1048 123.424 63.7128 123.424C64.2328 123.424 64.7048 123.544 65.1288 123.784C65.5608 124.024 65.9008 124.348 66.1488 124.756L66.0048 125.008V123.568H66.9048V129.748C66.9048 130.3 66.7728 130.792 66.5088 131.224C66.2528 131.664 65.8928 132.008 65.4288 132.256C64.9728 132.512 64.4488 132.64 63.8568 132.64ZM63.7608 129.004C64.1768 129.004 64.5528 128.9 64.8888 128.692C65.2248 128.476 65.4928 128.192 65.6928 127.84C65.9008 127.48 66.0048 127.088 66.0048 126.664C66.0048 126.24 65.9008 125.852 65.6928 125.5C65.4928 125.14 65.2248 124.856 64.8888 124.648C64.5528 124.432 64.1768 124.324 63.7608 124.324C63.3368 124.324 62.9528 124.432 62.6088 124.648C62.2648 124.856 61.9928 125.136 61.7928 125.488C61.6008 125.84 61.5048 126.232 61.5048 126.664C61.5048 127.088 61.6008 127.48 61.7928 127.84C61.9928 128.192 62.2608 128.476 62.5968 128.692C62.9408 128.9 63.3288 129.004 63.7608 129.004ZM71.9932 130V121.96H69.5212V121.06H75.4012V121.96H72.9532V130H71.9932ZM75.499 130V123.568H76.399V124.624L76.279 124.468C76.431 124.164 76.659 123.924 76.963 123.748C77.275 123.572 77.651 123.484 78.091 123.484H78.499V124.384H77.935C77.471 124.384 77.099 124.528 76.819 124.816C76.539 125.104 76.399 125.512 76.399 126.04V130H75.499ZM82.3257 130.144C81.7177 130.144 81.1657 130 80.6697 129.712C80.1737 129.416 79.7777 129.016 79.4817 128.512C79.1937 128 79.0497 127.42 79.0497 126.772C79.0497 126.132 79.1937 125.56 79.4817 125.056C79.7697 124.552 80.1577 124.156 80.6457 123.868C81.1417 123.572 81.7017 123.424 82.3257 123.424C82.9497 123.424 83.5057 123.568 83.9937 123.856C84.4897 124.144 84.8777 124.54 85.1577 125.044C85.4457 125.548 85.5897 126.124 85.5897 126.772C85.5897 127.428 85.4417 128.012 85.1457 128.524C84.8497 129.028 84.4537 129.424 83.9577 129.712C83.4697 130 82.9257 130.144 82.3257 130.144ZM82.3257 129.244C82.7577 129.244 83.1457 129.136 83.4897 128.92C83.8417 128.704 84.1177 128.408 84.3177 128.032C84.5257 127.656 84.6297 127.236 84.6297 126.772C84.6297 126.308 84.5257 125.892 84.3177 125.524C84.1177 125.156 83.8417 124.864 83.4897 124.648C83.1457 124.432 82.7577 124.324 82.3257 124.324C81.8937 124.324 81.5017 124.432 81.1497 124.648C80.8057 124.864 80.5297 125.156 80.3217 125.524C80.1137 125.892 80.0097 126.308 80.0097 126.772C80.0097 127.236 80.1137 127.656 80.3217 128.032C80.5297 128.408 80.8057 128.704 81.1497 128.92C81.5017 129.136 81.8937 129.244 82.3257 129.244ZM89.217 130.144C88.769 130.144 88.361 130.04 87.993 129.832C87.625 129.616 87.333 129.32 87.117 128.944C86.909 128.56 86.805 128.12 86.805 127.624V123.568H87.705V127.516C87.705 127.86 87.773 128.164 87.909 128.428C88.053 128.684 88.249 128.884 88.497 129.028C88.753 129.172 89.045 129.244 89.373 129.244C89.701 129.244 89.993 129.172 90.249 129.028C90.505 128.876 90.705 128.664 90.849 128.392C90.993 128.112 91.065 127.78 91.065 127.396V123.568H91.965V130H91.065V128.752L91.269 128.8C91.117 129.216 90.857 129.544 90.489 129.784C90.121 130.024 89.697 130.144 89.217 130.144ZM96.8279 130.144C96.2759 130.144 95.7759 130.02 95.3279 129.772C94.8879 129.516 94.5559 129.156 94.3319 128.692L94.4759 128.56V130H93.5759V120.916H94.4759V125.008L94.3319 124.756C94.5879 124.348 94.9279 124.024 95.3519 123.784C95.7839 123.544 96.2759 123.424 96.8279 123.424C97.4359 123.424 97.9759 123.572 98.4479 123.868C98.9279 124.156 99.3039 124.552 99.5759 125.056C99.8559 125.56 99.9959 126.136 99.9959 126.784C99.9959 127.424 99.8559 128 99.5759 128.512C99.3039 129.016 98.9279 129.416 98.4479 129.712C97.9759 130 97.4359 130.144 96.8279 130.144ZM96.7799 129.244C97.2119 129.244 97.5959 129.136 97.9319 128.92C98.2759 128.704 98.5439 128.412 98.7359 128.044C98.9359 127.668 99.0359 127.248 99.0359 126.784C99.0359 126.312 98.9359 125.892 98.7359 125.524C98.5439 125.156 98.2759 124.864 97.9319 124.648C97.5959 124.432 97.2119 124.324 96.7799 124.324C96.3479 124.324 95.9559 124.432 95.6039 124.648C95.2599 124.864 94.9839 125.16 94.7759 125.536C94.5759 125.904 94.4759 126.32 94.4759 126.784C94.4759 127.248 94.5759 127.668 94.7759 128.044C94.9839 128.412 95.2599 128.704 95.6039 128.92C95.9559 129.136 96.3479 129.244 96.7799 129.244ZM101.34 130V120.916H102.24V130H101.34ZM106.77 130.144C106.17 130.144 105.626 130 105.138 129.712C104.658 129.416 104.278 129.012 103.998 128.5C103.718 127.988 103.578 127.408 103.578 126.76C103.578 126.112 103.714 125.54 103.986 125.044C104.258 124.54 104.626 124.144 105.09 123.856C105.562 123.568 106.09 123.424 106.674 123.424C107.138 123.424 107.55 123.512 107.91 123.688C108.278 123.856 108.59 124.088 108.846 124.384C109.102 124.672 109.298 125 109.434 125.368C109.57 125.728 109.638 126.1 109.638 126.484C109.638 126.564 109.634 126.656 109.626 126.76C109.618 126.856 109.606 126.956 109.59 127.06H104.154V126.22H109.074L108.642 126.58C108.714 126.14 108.662 125.748 108.486 125.404C108.318 125.052 108.074 124.776 107.754 124.576C107.434 124.368 107.074 124.264 106.674 124.264C106.274 124.264 105.902 124.368 105.558 124.576C105.222 124.784 104.958 125.076 104.766 125.452C104.574 125.82 104.498 126.26 104.538 126.772C104.498 127.284 104.578 127.732 104.778 128.116C104.986 128.492 105.266 128.784 105.618 128.992C105.978 129.2 106.362 129.304 106.77 129.304C107.242 129.304 107.638 129.192 107.958 128.968C108.278 128.744 108.538 128.464 108.738 128.128L109.506 128.536C109.378 128.824 109.182 129.092 108.918 129.34C108.654 129.58 108.338 129.776 107.97 129.928C107.61 130.072 107.21 130.144 106.77 130.144ZM112.784 130V123.568H113.684V130H112.784ZM112.784 122.38V121.06H113.684V122.38H112.784ZM115.286 130V123.568H116.186V124.816L115.982 124.768C116.142 124.352 116.402 124.024 116.762 123.784C117.13 123.544 117.554 123.424 118.034 123.424C118.49 123.424 118.898 123.528 119.258 123.736C119.626 123.944 119.914 124.232 120.122 124.6C120.338 124.96 120.446 125.368 120.446 125.824V130H119.546V126.172C119.546 125.78 119.474 125.448 119.33 125.176C119.194 124.904 118.998 124.696 118.742 124.552C118.494 124.4 118.206 124.324 117.878 124.324C117.55 124.324 117.258 124.4 117.002 124.552C116.746 124.696 116.546 124.908 116.402 125.188C116.258 125.46 116.186 125.788 116.186 126.172V130H115.286ZM123.856 130V121.06H124.816V129.1H128.776V130H123.856ZM132.787 130.144C132.187 130.144 131.643 130 131.155 129.712C130.675 129.416 130.295 129.012 130.015 128.5C129.735 127.988 129.595 127.408 129.595 126.76C129.595 126.112 129.731 125.54 130.003 125.044C130.275 124.54 130.643 124.144 131.107 123.856C131.579 123.568 132.107 123.424 132.691 123.424C133.155 123.424 133.567 123.512 133.927 123.688C134.295 123.856 134.607 124.088 134.863 124.384C135.119 124.672 135.315 125 135.451 125.368C135.587 125.728 135.655 126.1 135.655 126.484C135.655 126.564 135.651 126.656 135.643 126.76C135.635 126.856 135.623 126.956 135.607 127.06H130.171V126.22H135.091L134.659 126.58C134.731 126.14 134.679 125.748 134.503 125.404C134.335 125.052 134.091 124.776 133.771 124.576C133.451 124.368 133.091 124.264 132.691 124.264C132.291 124.264 131.919 124.368 131.575 124.576C131.239 124.784 130.975 125.076 130.783 125.452C130.591 125.82 130.515 126.26 130.555 126.772C130.515 127.284 130.595 127.732 130.795 128.116C131.003 128.492 131.283 128.784 131.635 128.992C131.995 129.2 132.379 129.304 132.787 129.304C133.259 129.304 133.655 129.192 133.975 128.968C134.295 128.744 134.555 128.464 134.755 128.128L135.523 128.536C135.395 128.824 135.199 129.092 134.935 129.34C134.671 129.58 134.355 129.776 133.987 129.928C133.627 130.072 133.227 130.144 132.787 130.144ZM138.745 130.144C138.337 130.144 137.973 130.068 137.653 129.916C137.333 129.756 137.081 129.54 136.897 129.268C136.713 128.996 136.621 128.684 136.621 128.332C136.621 127.996 136.693 127.692 136.837 127.42C136.981 127.14 137.205 126.904 137.509 126.712C137.813 126.52 138.201 126.384 138.673 126.304L141.193 125.884V126.7L138.889 127.084C138.425 127.164 138.089 127.312 137.881 127.528C137.681 127.744 137.581 128 137.581 128.296C137.581 128.584 137.693 128.828 137.917 129.028C138.149 129.228 138.445 129.328 138.805 129.328C139.245 129.328 139.629 129.236 139.957 129.052C140.285 128.86 140.541 128.604 140.725 128.284C140.909 127.964 141.001 127.608 141.001 127.216V125.584C141.001 125.2 140.861 124.888 140.581 124.648C140.301 124.408 139.937 124.288 139.489 124.288C139.097 124.288 138.753 124.388 138.457 124.588C138.161 124.78 137.941 125.032 137.797 125.344L136.981 124.9C137.101 124.628 137.289 124.38 137.545 124.156C137.809 123.932 138.109 123.756 138.445 123.628C138.781 123.492 139.129 123.424 139.489 123.424C139.961 123.424 140.377 123.516 140.737 123.7C141.105 123.884 141.389 124.14 141.589 124.468C141.797 124.788 141.901 125.16 141.901 125.584V130H141.001V128.716L141.133 128.848C141.021 129.088 140.845 129.308 140.605 129.508C140.373 129.7 140.097 129.856 139.777 129.976C139.465 130.088 139.121 130.144 138.745 130.144ZM143.512 130V123.568H144.412V124.624L144.292 124.468C144.444 124.164 144.672 123.924 144.976 123.748C145.288 123.572 145.664 123.484 146.104 123.484H146.512V124.384H145.948C145.484 124.384 145.112 124.528 144.832 124.816C144.552 125.104 144.412 125.512 144.412 126.04V130H143.512ZM147.326 130V123.568H148.226V124.816L148.022 124.768C148.182 124.352 148.442 124.024 148.802 123.784C149.17 123.544 149.594 123.424 150.074 123.424C150.53 123.424 150.938 123.528 151.298 123.736C151.666 123.944 151.954 124.232 152.162 124.6C152.378 124.96 152.486 125.368 152.486 125.824V130H151.586V126.172C151.586 125.78 151.514 125.448 151.37 125.176C151.234 124.904 151.038 124.696 150.782 124.552C150.534 124.4 150.246 124.324 149.918 124.324C149.59 124.324 149.298 124.4 149.042 124.552C148.786 124.696 148.586 124.908 148.442 125.188C148.298 125.46 148.226 125.788 148.226 126.172V130H147.326ZM153.965 130V123.568H154.865V130H153.965ZM153.965 122.38V121.06H154.865V122.38H153.965ZM156.468 130V123.568H157.368V124.816L157.164 124.768C157.324 124.352 157.584 124.024 157.944 123.784C158.312 123.544 158.736 123.424 159.216 123.424C159.672 123.424 160.08 123.528 160.44 123.736C160.808 123.944 161.096 124.232 161.304 124.6C161.52 124.96 161.628 125.368 161.628 125.824V130H160.728V126.172C160.728 125.78 160.656 125.448 160.512 125.176C160.376 124.904 160.18 124.696 159.924 124.552C159.676 124.4 159.388 124.324 159.06 124.324C158.732 124.324 158.44 124.4 158.184 124.552C157.928 124.696 157.728 124.908 157.584 125.188C157.44 125.46 157.368 125.788 157.368 126.172V130H156.468ZM166.154 132.64C165.714 132.64 165.306 132.572 164.93 132.436C164.562 132.3 164.242 132.112 163.97 131.872C163.706 131.64 163.502 131.368 163.358 131.056L164.186 130.612C164.314 130.916 164.542 131.18 164.87 131.404C165.198 131.628 165.618 131.74 166.13 131.74C166.522 131.74 166.882 131.664 167.21 131.512C167.538 131.36 167.802 131.136 168.002 130.84C168.202 130.544 168.302 130.18 168.302 129.748V128.32L168.446 128.452C168.222 128.916 167.89 129.276 167.45 129.532C167.01 129.78 166.53 129.904 166.01 129.904C165.41 129.904 164.87 129.76 164.39 129.472C163.91 129.184 163.53 128.796 163.25 128.308C162.978 127.812 162.842 127.264 162.842 126.664C162.842 126.056 162.978 125.508 163.25 125.02C163.53 124.532 163.906 124.144 164.378 123.856C164.858 123.568 165.402 123.424 166.01 123.424C166.53 123.424 167.002 123.544 167.426 123.784C167.858 124.024 168.198 124.348 168.446 124.756L168.302 125.008V123.568H169.202V129.748C169.202 130.3 169.07 130.792 168.806 131.224C168.55 131.664 168.19 132.008 167.726 132.256C167.27 132.512 166.746 132.64 166.154 132.64ZM166.058 129.004C166.474 129.004 166.85 128.9 167.186 128.692C167.522 128.476 167.79 128.192 167.99 127.84C168.198 127.48 168.302 127.088 168.302 126.664C168.302 126.24 168.198 125.852 167.99 125.5C167.79 125.14 167.522 124.856 167.186 124.648C166.85 124.432 166.474 124.324 166.058 124.324C165.634 124.324 165.25 124.432 164.906 124.648C164.562 124.856 164.29 125.136 164.09 125.488C163.898 125.84 163.802 126.232 163.802 126.664C163.802 127.088 163.898 127.48 164.09 127.84C164.29 128.192 164.558 128.476 164.894 128.692C165.238 128.9 165.626 129.004 166.058 129.004ZM171.124 130V128.68H172.084V130H171.124ZM30.2424 147V138.06H33.3144C33.8984 138.06 34.4104 138.176 34.8504 138.408C35.2904 138.632 35.6304 138.952 35.8704 139.368C36.1184 139.776 36.2424 140.252 36.2424 140.796C36.2424 141.34 36.1184 141.816 35.8704 142.224C35.6304 142.632 35.2904 142.952 34.8504 143.184C34.4184 143.408 33.9064 143.52 33.3144 143.52H31.2024V147H30.2424ZM31.2024 142.62H33.3624C33.7464 142.62 34.0824 142.548 34.3704 142.404C34.6584 142.252 34.8824 142.04 35.0424 141.768C35.2024 141.488 35.2824 141.16 35.2824 140.784C35.2824 140.408 35.2024 140.084 35.0424 139.812C34.8824 139.54 34.6584 139.332 34.3704 139.188C34.0824 139.036 33.7464 138.96 33.3624 138.96H31.2024V142.62ZM37.5813 147V137.916H38.4813V147H37.5813ZM43.0115 147.144C42.4115 147.144 41.8675 147 41.3795 146.712C40.8995 146.416 40.5195 146.012 40.2395 145.5C39.9595 144.988 39.8195 144.408 39.8195 143.76C39.8195 143.112 39.9555 142.54 40.2275 142.044C40.4995 141.54 40.8675 141.144 41.3315 140.856C41.8035 140.568 42.3315 140.424 42.9155 140.424C43.3795 140.424 43.7915 140.512 44.1515 140.688C44.5195 140.856 44.8315 141.088 45.0875 141.384C45.3435 141.672 45.5395 142 45.6755 142.368C45.8115 142.728 45.8795 143.1 45.8795 143.484C45.8795 143.564 45.8755 143.656 45.8675 143.76C45.8595 143.856 45.8475 143.956 45.8315 144.06H40.3955V143.22H45.3155L44.8835 143.58C44.9555 143.14 44.9035 142.748 44.7275 142.404C44.5595 142.052 44.3155 141.776 43.9955 141.576C43.6755 141.368 43.3155 141.264 42.9155 141.264C42.5155 141.264 42.1435 141.368 41.7995 141.576C41.4635 141.784 41.1995 142.076 41.0075 142.452C40.8155 142.82 40.7395 143.26 40.7795 143.772C40.7395 144.284 40.8195 144.732 41.0195 145.116C41.2275 145.492 41.5075 145.784 41.8595 145.992C42.2195 146.2 42.6035 146.304 43.0115 146.304C43.4835 146.304 43.8795 146.192 44.1995 145.968C44.5195 145.744 44.7795 145.464 44.9795 145.128L45.7475 145.536C45.6195 145.824 45.4235 146.092 45.1595 146.34C44.8955 146.58 44.5795 146.776 44.2115 146.928C43.8515 147.072 43.4515 147.144 43.0115 147.144ZM48.9692 147.144C48.5612 147.144 48.1972 147.068 47.8772 146.916C47.5572 146.756 47.3052 146.54 47.1212 146.268C46.9372 145.996 46.8452 145.684 46.8452 145.332C46.8452 144.996 46.9172 144.692 47.0612 144.42C47.2052 144.14 47.4292 143.904 47.7332 143.712C48.0372 143.52 48.4252 143.384 48.8972 143.304L51.4172 142.884V143.7L49.1132 144.084C48.6492 144.164 48.3132 144.312 48.1052 144.528C47.9052 144.744 47.8052 145 47.8052 145.296C47.8052 145.584 47.9172 145.828 48.1412 146.028C48.3732 146.228 48.6692 146.328 49.0292 146.328C49.4692 146.328 49.8532 146.236 50.1812 146.052C50.5092 145.86 50.7652 145.604 50.9492 145.284C51.1332 144.964 51.2252 144.608 51.2252 144.216V142.584C51.2252 142.2 51.0852 141.888 50.8052 141.648C50.5252 141.408 50.1612 141.288 49.7132 141.288C49.3212 141.288 48.9772 141.388 48.6812 141.588C48.3852 141.78 48.1652 142.032 48.0212 142.344L47.2052 141.9C47.3252 141.628 47.5132 141.38 47.7692 141.156C48.0332 140.932 48.3332 140.756 48.6692 140.628C49.0052 140.492 49.3532 140.424 49.7132 140.424C50.1852 140.424 50.6012 140.516 50.9612 140.7C51.3292 140.884 51.6132 141.14 51.8132 141.468C52.0212 141.788 52.1252 142.16 52.1252 142.584V147H51.2252V145.716L51.3572 145.848C51.2452 146.088 51.0692 146.308 50.8292 146.508C50.5972 146.7 50.3212 146.856 50.0012 146.976C49.6892 147.088 49.3452 147.144 48.9692 147.144ZM55.9683 147.144C55.3523 147.144 54.8123 146.988 54.3483 146.676C53.8843 146.364 53.5483 145.94 53.3403 145.404L54.0963 145.044C54.2803 145.436 54.5363 145.748 54.8643 145.98C55.2003 146.212 55.5683 146.328 55.9683 146.328C56.3523 146.328 56.6763 146.236 56.9403 146.052C57.2043 145.86 57.3363 145.612 57.3363 145.308C57.3363 145.084 57.2723 144.908 57.1443 144.78C57.0163 144.644 56.8683 144.54 56.7003 144.468C56.5323 144.396 56.3843 144.344 56.2563 144.312L55.3323 144.048C54.7403 143.88 54.3123 143.644 54.0483 143.34C53.7843 143.036 53.6523 142.684 53.6523 142.284C53.6523 141.908 53.7483 141.58 53.9403 141.3C54.1323 141.02 54.3923 140.804 54.7203 140.652C55.0483 140.5 55.4123 140.424 55.8123 140.424C56.3563 140.424 56.8483 140.568 57.2883 140.856C57.7363 141.136 58.0523 141.528 58.2363 142.032L57.4683 142.392C57.3083 142.032 57.0763 141.752 56.7723 141.552C56.4763 141.344 56.1443 141.24 55.7763 141.24C55.4163 141.24 55.1283 141.332 54.9123 141.516C54.6963 141.7 54.5883 141.932 54.5883 142.212C54.5883 142.428 54.6443 142.6 54.7563 142.728C54.8683 142.856 54.9963 142.952 55.1403 143.016C55.2923 143.08 55.4243 143.128 55.5363 143.16L56.6043 143.472C57.1243 143.624 57.5283 143.86 57.8163 144.18C58.1123 144.5 58.2603 144.876 58.2603 145.308C58.2603 145.66 58.1603 145.976 57.9603 146.256C57.7683 146.536 57.5003 146.756 57.1563 146.916C56.8123 147.068 56.4163 147.144 55.9683 147.144ZM62.5298 147.144C61.9298 147.144 61.3858 147 60.8978 146.712C60.4178 146.416 60.0378 146.012 59.7578 145.5C59.4778 144.988 59.3378 144.408 59.3378 143.76C59.3378 143.112 59.4738 142.54 59.7458 142.044C60.0178 141.54 60.3858 141.144 60.8498 140.856C61.3218 140.568 61.8498 140.424 62.4338 140.424C62.8978 140.424 63.3098 140.512 63.6698 140.688C64.0378 140.856 64.3498 141.088 64.6058 141.384C64.8618 141.672 65.0578 142 65.1938 142.368C65.3298 142.728 65.3978 143.1 65.3978 143.484C65.3978 143.564 65.3938 143.656 65.3858 143.76C65.3778 143.856 65.3658 143.956 65.3498 144.06H59.9138V143.22H64.8338L64.4018 143.58C64.4738 143.14 64.4218 142.748 64.2458 142.404C64.0778 142.052 63.8338 141.776 63.5138 141.576C63.1938 141.368 62.8338 141.264 62.4338 141.264C62.0338 141.264 61.6618 141.368 61.3178 141.576C60.9818 141.784 60.7178 142.076 60.5258 142.452C60.3338 142.82 60.2578 143.26 60.2978 143.772C60.2578 144.284 60.3378 144.732 60.5378 145.116C60.7458 145.492 61.0258 145.784 61.3778 145.992C61.7378 146.2 62.1218 146.304 62.5298 146.304C63.0018 146.304 63.3978 146.192 63.7178 145.968C64.0378 145.744 64.2978 145.464 64.4978 145.128L65.2658 145.536C65.1378 145.824 64.9418 146.092 64.6778 146.34C64.4138 146.58 64.0978 146.776 63.7298 146.928C63.3698 147.072 62.9698 147.144 62.5298 147.144ZM71.4837 147.144C70.8517 147.144 70.2957 146.996 69.8157 146.7C69.3357 146.404 68.9597 146.004 68.6877 145.5C68.4157 144.988 68.2797 144.412 68.2797 143.772C68.2797 143.132 68.4157 142.56 68.6877 142.056C68.9597 141.552 69.3357 141.156 69.8157 140.868C70.2957 140.572 70.8517 140.424 71.4837 140.424C71.8837 140.424 72.2597 140.496 72.6117 140.64C72.9637 140.784 73.2757 140.98 73.5477 141.228C73.8197 141.468 74.0237 141.748 74.1597 142.068L73.3437 142.488C73.1837 142.144 72.9397 141.864 72.6117 141.648C72.2837 141.432 71.9077 141.324 71.4837 141.324C71.0597 141.324 70.6757 141.432 70.3317 141.648C69.9957 141.856 69.7277 142.148 69.5277 142.524C69.3357 142.892 69.2397 143.312 69.2397 143.784C69.2397 144.248 69.3357 144.668 69.5277 145.044C69.7277 145.412 69.9957 145.704 70.3317 145.92C70.6757 146.136 71.0597 146.244 71.4837 146.244C71.9077 146.244 72.2797 146.136 72.5997 145.92C72.9277 145.704 73.1757 145.416 73.3437 145.056L74.1597 145.5C74.0237 145.812 73.8197 146.092 73.5477 146.34C73.2757 146.588 72.9637 146.784 72.6117 146.928C72.2597 147.072 71.8837 147.144 71.4837 147.144ZM78.511 147.144C77.903 147.144 77.351 147 76.855 146.712C76.359 146.416 75.963 146.016 75.667 145.512C75.379 145 75.235 144.42 75.235 143.772C75.235 143.132 75.379 142.56 75.667 142.056C75.955 141.552 76.343 141.156 76.831 140.868C77.327 140.572 77.887 140.424 78.511 140.424C79.135 140.424 79.691 140.568 80.179 140.856C80.675 141.144 81.063 141.54 81.343 142.044C81.631 142.548 81.775 143.124 81.775 143.772C81.775 144.428 81.627 145.012 81.331 145.524C81.035 146.028 80.639 146.424 80.143 146.712C79.655 147 79.111 147.144 78.511 147.144ZM78.511 146.244C78.943 146.244 79.331 146.136 79.675 145.92C80.027 145.704 80.303 145.408 80.503 145.032C80.711 144.656 80.815 144.236 80.815 143.772C80.815 143.308 80.711 142.892 80.503 142.524C80.303 142.156 80.027 141.864 79.675 141.648C79.331 141.432 78.943 141.324 78.511 141.324C78.079 141.324 77.687 141.432 77.335 141.648C76.991 141.864 76.715 142.156 76.507 142.524C76.299 142.892 76.195 143.308 76.195 143.772C76.195 144.236 76.299 144.656 76.507 145.032C76.715 145.408 76.991 145.704 77.335 145.92C77.687 146.136 78.079 146.244 78.511 146.244ZM83.1223 147V140.568H84.0223V141.816L83.8183 141.768C83.9783 141.352 84.2383 141.024 84.5983 140.784C84.9663 140.544 85.3903 140.424 85.8703 140.424C86.3263 140.424 86.7343 140.528 87.0943 140.736C87.4623 140.944 87.7503 141.232 87.9583 141.6C88.1743 141.96 88.2823 142.368 88.2823 142.824V147H87.3823V143.172C87.3823 142.78 87.3103 142.448 87.1663 142.176C87.0303 141.904 86.8343 141.696 86.5783 141.552C86.3303 141.4 86.0423 141.324 85.7143 141.324C85.3863 141.324 85.0943 141.4 84.8383 141.552C84.5823 141.696 84.3823 141.908 84.2383 142.188C84.0943 142.46 84.0223 142.788 84.0223 143.172V147H83.1223ZM92.2212 147.072C91.6452 147.072 91.2012 146.904 90.8892 146.568C90.5772 146.232 90.4212 145.752 90.4212 145.128V141.468H89.2332V140.568H89.5332C89.8052 140.568 90.0212 140.48 90.1812 140.304C90.3412 140.12 90.4212 139.892 90.4212 139.62V139.08H91.3212V140.568H92.7372V141.468H91.3212V145.128C91.3212 145.344 91.3532 145.536 91.4172 145.704C91.4812 145.864 91.5892 145.992 91.7412 146.088C91.9012 146.184 92.1132 146.232 92.3772 146.232C92.4412 146.232 92.5172 146.228 92.6052 146.22C92.6932 146.212 92.7692 146.204 92.8332 146.196V147C92.7372 147.024 92.6292 147.04 92.5092 147.048C92.3892 147.064 92.2932 147.072 92.2212 147.072ZM95.9163 147.144C95.5083 147.144 95.1443 147.068 94.8243 146.916C94.5043 146.756 94.2523 146.54 94.0683 146.268C93.8843 145.996 93.7923 145.684 93.7923 145.332C93.7923 144.996 93.8643 144.692 94.0083 144.42C94.1523 144.14 94.3763 143.904 94.6803 143.712C94.9843 143.52 95.3723 143.384 95.8443 143.304L98.3643 142.884V143.7L96.0603 144.084C95.5963 144.164 95.2603 144.312 95.0523 144.528C94.8523 144.744 94.7523 145 94.7523 145.296C94.7523 145.584 94.8643 145.828 95.0883 146.028C95.3203 146.228 95.6163 146.328 95.9763 146.328C96.4163 146.328 96.8003 146.236 97.1283 146.052C97.4563 145.86 97.7123 145.604 97.8963 145.284C98.0803 144.964 98.1723 144.608 98.1723 144.216V142.584C98.1723 142.2 98.0323 141.888 97.7523 141.648C97.4723 141.408 97.1083 141.288 96.6603 141.288C96.2683 141.288 95.9243 141.388 95.6283 141.588C95.3323 141.78 95.1123 142.032 94.9683 142.344L94.1523 141.9C94.2723 141.628 94.4603 141.38 94.7163 141.156C94.9803 140.932 95.2803 140.756 95.6163 140.628C95.9523 140.492 96.3003 140.424 96.6603 140.424C97.1323 140.424 97.5483 140.516 97.9083 140.7C98.2763 140.884 98.5603 141.14 98.7603 141.468C98.9683 141.788 99.0723 142.16 99.0723 142.584V147H98.1723V145.716L98.3043 145.848C98.1923 146.088 98.0163 146.308 97.7763 146.508C97.5443 146.7 97.2683 146.856 96.9483 146.976C96.6363 147.088 96.2923 147.144 95.9163 147.144ZM103.624 147.144C102.992 147.144 102.436 146.996 101.956 146.7C101.476 146.404 101.1 146.004 100.828 145.5C100.556 144.988 100.42 144.412 100.42 143.772C100.42 143.132 100.556 142.56 100.828 142.056C101.1 141.552 101.476 141.156 101.956 140.868C102.436 140.572 102.992 140.424 103.624 140.424C104.024 140.424 104.4 140.496 104.752 140.64C105.104 140.784 105.416 140.98 105.688 141.228C105.96 141.468 106.164 141.748 106.3 142.068L105.484 142.488C105.324 142.144 105.08 141.864 104.752 141.648C104.424 141.432 104.048 141.324 103.624 141.324C103.2 141.324 102.816 141.432 102.472 141.648C102.136 141.856 101.868 142.148 101.668 142.524C101.476 142.892 101.38 143.312 101.38 143.784C101.38 144.248 101.476 144.668 101.668 145.044C101.868 145.412 102.136 145.704 102.472 145.92C102.816 146.136 103.2 146.244 103.624 146.244C104.048 146.244 104.42 146.136 104.74 145.92C105.068 145.704 105.316 145.416 105.484 145.056L106.3 145.5C106.164 145.812 105.96 146.092 105.688 146.34C105.416 146.588 105.104 146.784 104.752 146.928C104.4 147.072 104.024 147.144 103.624 147.144ZM110.099 147.072C109.523 147.072 109.079 146.904 108.767 146.568C108.455 146.232 108.299 145.752 108.299 145.128V141.468H107.111V140.568H107.411C107.683 140.568 107.899 140.48 108.059 140.304C108.219 140.12 108.299 139.892 108.299 139.62V139.08H109.199V140.568H110.615V141.468H109.199V145.128C109.199 145.344 109.231 145.536 109.295 145.704C109.359 145.864 109.467 145.992 109.619 146.088C109.779 146.184 109.991 146.232 110.255 146.232C110.319 146.232 110.395 146.228 110.483 146.22C110.571 146.212 110.647 146.204 110.711 146.196V147C110.615 147.024 110.507 147.04 110.387 147.048C110.267 147.064 110.171 147.072 110.099 147.072ZM116.13 147.144C115.682 147.144 115.274 147.04 114.906 146.832C114.538 146.616 114.246 146.32 114.03 145.944C113.822 145.56 113.718 145.12 113.718 144.624V140.568H114.618V144.516C114.618 144.86 114.686 145.164 114.822 145.428C114.966 145.684 115.162 145.884 115.41 146.028C115.666 146.172 115.958 146.244 116.286 146.244C116.614 146.244 116.906 146.172 117.162 146.028C117.418 145.876 117.618 145.664 117.762 145.392C117.906 145.112 117.978 144.78 117.978 144.396V140.568H118.878V147H117.978V145.752L118.182 145.8C118.03 146.216 117.77 146.544 117.402 146.784C117.034 147.024 116.61 147.144 116.13 147.144ZM122.721 147.144C122.105 147.144 121.565 146.988 121.101 146.676C120.637 146.364 120.301 145.94 120.093 145.404L120.849 145.044C121.033 145.436 121.289 145.748 121.617 145.98C121.953 146.212 122.321 146.328 122.721 146.328C123.105 146.328 123.429 146.236 123.693 146.052C123.957 145.86 124.089 145.612 124.089 145.308C124.089 145.084 124.025 144.908 123.897 144.78C123.769 144.644 123.621 144.54 123.453 144.468C123.285 144.396 123.137 144.344 123.009 144.312L122.085 144.048C121.493 143.88 121.065 143.644 120.801 143.34C120.537 143.036 120.405 142.684 120.405 142.284C120.405 141.908 120.501 141.58 120.693 141.3C120.885 141.02 121.145 140.804 121.473 140.652C121.801 140.5 122.165 140.424 122.565 140.424C123.109 140.424 123.601 140.568 124.041 140.856C124.489 141.136 124.805 141.528 124.989 142.032L124.221 142.392C124.061 142.032 123.829 141.752 123.525 141.552C123.229 141.344 122.897 141.24 122.529 141.24C122.169 141.24 121.881 141.332 121.665 141.516C121.449 141.7 121.341 141.932 121.341 142.212C121.341 142.428 121.397 142.6 121.509 142.728C121.621 142.856 121.749 142.952 121.893 143.016C122.045 143.08 122.177 143.128 122.289 143.16L123.357 143.472C123.877 143.624 124.281 143.86 124.569 144.18C124.865 144.5 125.013 144.876 125.013 145.308C125.013 145.66 124.913 145.976 124.713 146.256C124.521 146.536 124.253 146.756 123.909 146.916C123.565 147.068 123.169 147.144 122.721 147.144ZM128.814 147V141.468H127.53V140.568H128.814V139.992C128.814 139.544 128.914 139.168 129.114 138.864C129.314 138.552 129.578 138.316 129.906 138.156C130.234 137.996 130.586 137.916 130.962 137.916C131.042 137.916 131.134 137.924 131.238 137.94C131.342 137.948 131.426 137.96 131.49 137.976V138.792C131.434 138.776 131.358 138.768 131.262 138.768C131.166 138.76 131.098 138.756 131.058 138.756C130.674 138.756 130.354 138.848 130.098 139.032C129.842 139.216 129.714 139.536 129.714 139.992V140.568H131.286V141.468H129.714V147H128.814ZM135.273 147.144C134.665 147.144 134.113 147 133.617 146.712C133.121 146.416 132.725 146.016 132.429 145.512C132.141 145 131.997 144.42 131.997 143.772C131.997 143.132 132.141 142.56 132.429 142.056C132.717 141.552 133.105 141.156 133.593 140.868C134.089 140.572 134.649 140.424 135.273 140.424C135.897 140.424 136.453 140.568 136.941 140.856C137.437 141.144 137.825 141.54 138.105 142.044C138.393 142.548 138.537 143.124 138.537 143.772C138.537 144.428 138.389 145.012 138.093 145.524C137.797 146.028 137.401 146.424 136.905 146.712C136.417 147 135.873 147.144 135.273 147.144ZM135.273 146.244C135.705 146.244 136.093 146.136 136.437 145.92C136.789 145.704 137.065 145.408 137.265 145.032C137.473 144.656 137.577 144.236 137.577 143.772C137.577 143.308 137.473 142.892 137.265 142.524C137.065 142.156 136.789 141.864 136.437 141.648C136.093 141.432 135.705 141.324 135.273 141.324C134.841 141.324 134.449 141.432 134.097 141.648C133.753 141.864 133.477 142.156 133.269 142.524C133.061 142.892 132.957 143.308 132.957 143.772C132.957 144.236 133.061 144.656 133.269 145.032C133.477 145.408 133.753 145.704 134.097 145.92C134.449 146.136 134.841 146.244 135.273 146.244ZM139.885 147V140.568H140.785V141.624L140.665 141.468C140.817 141.164 141.045 140.924 141.349 140.748C141.661 140.572 142.037 140.484 142.477 140.484H142.885V141.384H142.321C141.857 141.384 141.485 141.528 141.205 141.816C140.925 142.104 140.785 142.512 140.785 143.04V147H139.885ZM145.498 147V140.568H146.398V141.792L146.254 141.612C146.43 141.236 146.69 140.944 147.034 140.736C147.386 140.528 147.77 140.424 148.186 140.424C148.682 140.424 149.13 140.564 149.53 140.844C149.93 141.124 150.214 141.488 150.382 141.936L150.13 141.948C150.29 141.452 150.566 141.076 150.958 140.82C151.358 140.556 151.798 140.424 152.278 140.424C152.71 140.424 153.106 140.528 153.466 140.736C153.834 140.944 154.126 141.232 154.342 141.6C154.566 141.96 154.678 142.368 154.678 142.824V147H153.778V143.172C153.778 142.78 153.706 142.448 153.562 142.176C153.426 141.904 153.238 141.696 152.998 141.552C152.758 141.4 152.482 141.324 152.17 141.324C151.866 141.324 151.59 141.4 151.342 141.552C151.094 141.696 150.898 141.908 150.754 142.188C150.61 142.46 150.538 142.788 150.538 143.172V147H149.638V143.172C149.638 142.78 149.566 142.448 149.422 142.176C149.286 141.904 149.098 141.696 148.858 141.552C148.618 141.4 148.342 141.324 148.03 141.324C147.718 141.324 147.438 141.4 147.19 141.552C146.95 141.696 146.758 141.908 146.614 142.188C146.47 142.46 146.398 142.788 146.398 143.172V147H145.498ZM159.169 147.144C158.561 147.144 158.009 147 157.513 146.712C157.017 146.416 156.621 146.016 156.325 145.512C156.037 145 155.893 144.42 155.893 143.772C155.893 143.132 156.037 142.56 156.325 142.056C156.613 141.552 157.001 141.156 157.489 140.868C157.985 140.572 158.545 140.424 159.169 140.424C159.793 140.424 160.349 140.568 160.837 140.856C161.333 141.144 161.721 141.54 162.001 142.044C162.289 142.548 162.433 143.124 162.433 143.772C162.433 144.428 162.285 145.012 161.989 145.524C161.693 146.028 161.297 146.424 160.801 146.712C160.313 147 159.769 147.144 159.169 147.144ZM159.169 146.244C159.601 146.244 159.989 146.136 160.333 145.92C160.685 145.704 160.961 145.408 161.161 145.032C161.369 144.656 161.473 144.236 161.473 143.772C161.473 143.308 161.369 142.892 161.161 142.524C160.961 142.156 160.685 141.864 160.333 141.648C159.989 141.432 159.601 141.324 159.169 141.324C158.737 141.324 158.345 141.432 157.993 141.648C157.649 141.864 157.373 142.156 157.165 142.524C156.957 142.892 156.853 143.308 156.853 143.772C156.853 144.236 156.957 144.656 157.165 145.032C157.373 145.408 157.649 145.704 157.993 145.92C158.345 146.136 158.737 146.244 159.169 146.244ZM163.78 147V140.568H164.68V141.624L164.56 141.468C164.712 141.164 164.94 140.924 165.244 140.748C165.556 140.572 165.932 140.484 166.372 140.484H166.78V141.384H166.216C165.752 141.384 165.38 141.528 165.1 141.816C164.82 142.104 164.68 142.512 164.68 143.04V147H163.78ZM170.523 147.144C169.923 147.144 169.379 147 168.891 146.712C168.411 146.416 168.031 146.012 167.751 145.5C167.471 144.988 167.331 144.408 167.331 143.76C167.331 143.112 167.467 142.54 167.739 142.044C168.011 141.54 168.379 141.144 168.843 140.856C169.315 140.568 169.843 140.424 170.427 140.424C170.891 140.424 171.303 140.512 171.663 140.688C172.031 140.856 172.343 141.088 172.599 141.384C172.855 141.672 173.051 142 173.187 142.368C173.323 142.728 173.391 143.1 173.391 143.484C173.391 143.564 173.387 143.656 173.379 143.76C173.371 143.856 173.359 143.956 173.343 144.06H167.907V143.22H172.827L172.395 143.58C172.467 143.14 172.415 142.748 172.239 142.404C172.071 142.052 171.827 141.776 171.507 141.576C171.187 141.368 170.827 141.264 170.427 141.264C170.027 141.264 169.655 141.368 169.311 141.576C168.975 141.784 168.711 142.076 168.519 142.452C168.327 142.82 168.251 143.26 168.291 143.772C168.251 144.284 168.331 144.732 168.531 145.116C168.739 145.492 169.019 145.784 169.371 145.992C169.731 146.2 170.115 146.304 170.523 146.304C170.995 146.304 171.391 146.192 171.711 145.968C172.031 145.744 172.291 145.464 172.491 145.128L173.259 145.536C173.131 145.824 172.935 146.092 172.671 146.34C172.407 146.58 172.091 146.776 171.723 146.928C171.363 147.072 170.963 147.144 170.523 147.144ZM78.7366 166.4V162.56L78.8806 162.692C78.6566 163.156 78.3206 163.516 77.8726 163.772C77.4326 164.02 76.9366 164.144 76.3846 164.144C75.7846 164.144 75.2446 164 74.7646 163.712C74.2846 163.416 73.9046 163.016 73.6246 162.512C73.3526 162 73.2166 161.424 73.2166 160.784C73.2166 160.136 73.3526 159.56 73.6246 159.056C73.9046 158.552 74.2806 158.156 74.7526 157.868C75.2326 157.572 75.7766 157.424 76.3846 157.424C76.9366 157.424 77.4286 157.544 77.8606 157.784C78.2926 158.024 78.6326 158.348 78.8806 158.756L78.7366 159.008V157.568H79.6366V166.4H78.7366ZM76.4326 163.244C76.8646 163.244 77.2526 163.136 77.5966 162.92C77.9486 162.704 78.2246 162.412 78.4246 162.044C78.6326 161.668 78.7366 161.248 78.7366 160.784C78.7366 160.32 78.6326 159.904 78.4246 159.536C78.2246 159.16 77.9486 158.864 77.5966 158.648C77.2526 158.432 76.8646 158.324 76.4326 158.324C76.0086 158.324 75.6246 158.432 75.2806 158.648C74.9366 158.864 74.6646 159.156 74.4646 159.524C74.2726 159.892 74.1766 160.312 74.1766 160.784C74.1766 161.248 74.2726 161.668 74.4646 162.044C74.6646 162.412 74.9326 162.704 75.2686 162.92C75.6126 163.136 76.0006 163.244 76.4326 163.244ZM83.5245 164.144C83.0765 164.144 82.6685 164.04 82.3005 163.832C81.9325 163.616 81.6405 163.32 81.4245 162.944C81.2165 162.56 81.1125 162.12 81.1125 161.624V157.568H82.0125V161.516C82.0125 161.86 82.0805 162.164 82.2165 162.428C82.3605 162.684 82.5565 162.884 82.8045 163.028C83.0605 163.172 83.3525 163.244 83.6805 163.244C84.0085 163.244 84.3005 163.172 84.5565 163.028C84.8125 162.876 85.0125 162.664 85.1565 162.392C85.3005 162.112 85.3725 161.78 85.3725 161.396V157.568H86.2725V164H85.3725V162.752L85.5765 162.8C85.4245 163.216 85.1645 163.544 84.7965 163.784C84.4285 164.024 84.0045 164.144 83.5245 164.144ZM90.8114 164.144C90.2114 164.144 89.6674 164 89.1794 163.712C88.6994 163.416 88.3194 163.012 88.0394 162.5C87.7594 161.988 87.6194 161.408 87.6194 160.76C87.6194 160.112 87.7554 159.54 88.0274 159.044C88.2994 158.54 88.6674 158.144 89.1314 157.856C89.6034 157.568 90.1314 157.424 90.7154 157.424C91.1794 157.424 91.5914 157.512 91.9514 157.688C92.3194 157.856 92.6314 158.088 92.8874 158.384C93.1434 158.672 93.3394 159 93.4754 159.368C93.6114 159.728 93.6794 160.1 93.6794 160.484C93.6794 160.564 93.6754 160.656 93.6674 160.76C93.6594 160.856 93.6474 160.956 93.6314 161.06H88.1954V160.22H93.1154L92.6834 160.58C92.7554 160.14 92.7034 159.748 92.5274 159.404C92.3594 159.052 92.1154 158.776 91.7954 158.576C91.4754 158.368 91.1154 158.264 90.7154 158.264C90.3154 158.264 89.9434 158.368 89.5994 158.576C89.2634 158.784 88.9994 159.076 88.8074 159.452C88.6154 159.82 88.5394 160.26 88.5794 160.772C88.5394 161.284 88.6194 161.732 88.8194 162.116C89.0274 162.492 89.3074 162.784 89.6594 162.992C90.0194 163.2 90.4034 163.304 90.8114 163.304C91.2834 163.304 91.6794 163.192 91.9994 162.968C92.3194 162.744 92.5794 162.464 92.7794 162.128L93.5474 162.536C93.4194 162.824 93.2234 163.092 92.9594 163.34C92.6954 163.58 92.3794 163.776 92.0114 163.928C91.6514 164.072 91.2514 164.144 90.8114 164.144ZM97.2582 164.144C96.6422 164.144 96.1022 163.988 95.6382 163.676C95.1742 163.364 94.8382 162.94 94.6302 162.404L95.3862 162.044C95.5702 162.436 95.8262 162.748 96.1542 162.98C96.4902 163.212 96.8582 163.328 97.2582 163.328C97.6422 163.328 97.9662 163.236 98.2302 163.052C98.4942 162.86 98.6262 162.612 98.6262 162.308C98.6262 162.084 98.5622 161.908 98.4342 161.78C98.3062 161.644 98.1582 161.54 97.9902 161.468C97.8222 161.396 97.6742 161.344 97.5462 161.312L96.6222 161.048C96.0302 160.88 95.6022 160.644 95.3382 160.34C95.0742 160.036 94.9422 159.684 94.9422 159.284C94.9422 158.908 95.0382 158.58 95.2302 158.3C95.4222 158.02 95.6822 157.804 96.0102 157.652C96.3382 157.5 96.7022 157.424 97.1022 157.424C97.6462 157.424 98.1382 157.568 98.5782 157.856C99.0262 158.136 99.3422 158.528 99.5262 159.032L98.7582 159.392C98.5982 159.032 98.3662 158.752 98.0622 158.552C97.7662 158.344 97.4342 158.24 97.0662 158.24C96.7062 158.24 96.4182 158.332 96.2022 158.516C95.9862 158.7 95.8782 158.932 95.8782 159.212C95.8782 159.428 95.9342 159.6 96.0462 159.728C96.1582 159.856 96.2862 159.952 96.4302 160.016C96.5822 160.08 96.7142 160.128 96.8262 160.16L97.8942 160.472C98.4142 160.624 98.8182 160.86 99.1062 161.18C99.4022 161.5 99.5502 161.876 99.5502 162.308C99.5502 162.66 99.4502 162.976 99.2502 163.256C99.0582 163.536 98.7902 163.756 98.4462 163.916C98.1022 164.068 97.7062 164.144 97.2582 164.144ZM103.352 164.072C102.776 164.072 102.332 163.904 102.02 163.568C101.708 163.232 101.552 162.752 101.552 162.128V158.468H100.364V157.568H100.664C100.936 157.568 101.152 157.48 101.312 157.304C101.472 157.12 101.552 156.892 101.552 156.62V156.08H102.452V157.568H103.868V158.468H102.452V162.128C102.452 162.344 102.484 162.536 102.548 162.704C102.612 162.864 102.72 162.992 102.872 163.088C103.032 163.184 103.244 163.232 103.508 163.232C103.572 163.232 103.648 163.228 103.736 163.22C103.824 163.212 103.9 163.204 103.964 163.196V164C103.868 164.024 103.76 164.04 103.64 164.048C103.52 164.064 103.424 164.072 103.352 164.072ZM105.304 164V157.568H106.204V164H105.304ZM105.304 156.38V155.06H106.204V156.38H105.304ZM110.818 164.144C110.21 164.144 109.658 164 109.162 163.712C108.666 163.416 108.27 163.016 107.974 162.512C107.686 162 107.542 161.42 107.542 160.772C107.542 160.132 107.686 159.56 107.974 159.056C108.262 158.552 108.65 158.156 109.138 157.868C109.634 157.572 110.194 157.424 110.818 157.424C111.442 157.424 111.998 157.568 112.486 157.856C112.982 158.144 113.37 158.54 113.65 159.044C113.938 159.548 114.082 160.124 114.082 160.772C114.082 161.428 113.934 162.012 113.638 162.524C113.342 163.028 112.946 163.424 112.45 163.712C111.962 164 111.418 164.144 110.818 164.144ZM110.818 163.244C111.25 163.244 111.638 163.136 111.982 162.92C112.334 162.704 112.61 162.408 112.81 162.032C113.018 161.656 113.122 161.236 113.122 160.772C113.122 160.308 113.018 159.892 112.81 159.524C112.61 159.156 112.334 158.864 111.982 158.648C111.638 158.432 111.25 158.324 110.818 158.324C110.386 158.324 109.994 158.432 109.642 158.648C109.298 158.864 109.022 159.156 108.814 159.524C108.606 159.892 108.502 160.308 108.502 160.772C108.502 161.236 108.606 161.656 108.814 162.032C109.022 162.408 109.298 162.704 109.642 162.92C109.994 163.136 110.386 163.244 110.818 163.244ZM115.429 164V157.568H116.329V158.816L116.125 158.768C116.285 158.352 116.545 158.024 116.905 157.784C117.273 157.544 117.697 157.424 118.177 157.424C118.633 157.424 119.041 157.528 119.401 157.736C119.769 157.944 120.057 158.232 120.265 158.6C120.481 158.96 120.589 159.368 120.589 159.824V164H119.689V160.172C119.689 159.78 119.617 159.448 119.473 159.176C119.337 158.904 119.141 158.696 118.885 158.552C118.637 158.4 118.349 158.324 118.021 158.324C117.693 158.324 117.401 158.4 117.145 158.552C116.889 158.696 116.689 158.908 116.545 159.188C116.401 159.46 116.329 159.788 116.329 160.172V164H115.429ZM124.3 164.144C123.684 164.144 123.144 163.988 122.68 163.676C122.216 163.364 121.88 162.94 121.672 162.404L122.428 162.044C122.612 162.436 122.868 162.748 123.196 162.98C123.532 163.212 123.9 163.328 124.3 163.328C124.684 163.328 125.008 163.236 125.272 163.052C125.536 162.86 125.668 162.612 125.668 162.308C125.668 162.084 125.604 161.908 125.476 161.78C125.348 161.644 125.2 161.54 125.032 161.468C124.864 161.396 124.716 161.344 124.588 161.312L123.664 161.048C123.072 160.88 122.644 160.644 122.38 160.34C122.116 160.036 121.984 159.684 121.984 159.284C121.984 158.908 122.08 158.58 122.272 158.3C122.464 158.02 122.724 157.804 123.052 157.652C123.38 157.5 123.744 157.424 124.144 157.424C124.688 157.424 125.18 157.568 125.62 157.856C126.068 158.136 126.384 158.528 126.568 159.032L125.8 159.392C125.64 159.032 125.408 158.752 125.104 158.552C124.808 158.344 124.476 158.24 124.108 158.24C123.748 158.24 123.46 158.332 123.244 158.516C123.028 158.7 122.92 158.932 122.92 159.212C122.92 159.428 122.976 159.6 123.088 159.728C123.2 159.856 123.328 159.952 123.472 160.016C123.624 160.08 123.756 160.128 123.868 160.16L124.936 160.472C125.456 160.624 125.86 160.86 126.148 161.18C126.444 161.5 126.592 161.876 126.592 162.308C126.592 162.66 126.492 162.976 126.292 163.256C126.1 163.536 125.832 163.756 125.488 163.916C125.144 164.068 124.748 164.144 124.3 164.144ZM128.246 164V162.68H129.206V164H128.246Z" fill="white"/>
</g>
<rect x="80" y="18" width="44" height="44" rx="22" fill="url(#paint1_linear_512_4367)" stroke="white" stroke-width="4"/>
<path d="M99.7224 44.784H102.802V44.448C102.802 43.6267 103.036 42.8987 103.502 42.264C103.969 41.6293 104.492 41.0227 105.07 40.444C105.574 39.9587 106.06 39.464 106.526 38.96C107.012 38.456 107.404 37.9053 107.702 37.308C108.02 36.692 108.178 36.0013 108.178 35.236C108.178 34.3027 107.936 33.4253 107.45 32.604C106.965 31.764 106.256 31.092 105.322 30.588C104.408 30.0653 103.306 29.804 102.018 29.804C100.88 29.804 99.853 30.028 98.9384 30.476C98.0424 30.9053 97.2957 31.512 96.6984 32.296C96.1197 33.0613 95.7464 33.9573 95.5784 34.984L98.5184 35.684C98.6864 34.788 99.0784 34.0787 99.6944 33.556C100.329 33.0147 101.085 32.744 101.962 32.744C102.896 32.744 103.614 32.996 104.118 33.5C104.641 34.004 104.902 34.6013 104.902 35.292C104.902 36.0387 104.65 36.692 104.146 37.252C103.642 37.812 103.082 38.3907 102.466 38.988C102.018 39.4173 101.58 39.884 101.15 40.388C100.74 40.892 100.394 41.4613 100.114 42.096C99.853 42.7307 99.7224 43.468 99.7224 44.308V44.784ZM99.7224 51H102.942V47.36H99.7224V51Z" fill="black"/>
<defs>
<filter id="filter0_f_512_4367" x="-200" y="-219" width="400" height="400" filterUnits="userSpaceOnUse" color-interpolation-filters="sRGB">
<feFlood flood-opacity="0" result="BackgroundImageFix"/>
<feBlend mode="normal" in="SourceGraphic" in2="BackgroundImageFix" result="shape"/>
<feGaussianBlur stdDeviation="60" result="effect1_foregroundBlur_512_4367"/>
</filter>
<filter id="filter1_f_512_4367" x="70" y="38" width="493" height="493" filterUnits="userSpaceOnUse" color-interpolation-filters="sRGB">
<feFlood flood-opacity="0" result="BackgroundImageFix"/>
<feBlend mode="normal" in="SourceGraphic" in2="BackgroundImageFix" result="shape"/>
<feGaussianBlur stdDeviation="60" result="effect1_foregroundBlur_512_4367"/>
</filter>
<linearGradient id="paint0_linear_512_4367" x1="143.6" y1="192" x2="52.6698" y2="260.108" gradientUnits="userSpaceOnUse">
<stop stop-color="#C3FF43"/>
<stop offset="1" stop-color="#E4D14E"/>
</linearGradient>
<linearGradient id="paint1_linear_512_4367" x1="102" y1="16" x2="87.5" y2="70.5" gradientUnits="userSpaceOnUse">
<stop stop-color="#E0D74D"/>
<stop offset="1" stop-color="#C3FF43"/>
</linearGradient>
<clipPath id="clip0_512_4367">
<rect width="204" height="248" rx="8" fill="white"/>
</clipPath>
</defs>
</svg>
