<svg width="28" height="28" viewBox="0 0 28 28" fill="none" xmlns="http://www.w3.org/2000/svg">
<path d="M14 28C21.732 28 28 21.732 28 14C28 6.26801 21.732 0 14 0C6.26801 0 0 6.26801 0 14C0 21.732 6.26801 28 14 28Z" fill="#328332"/>
<path d="M13.9904 14.4839L8.1095 13.979L13.9895 10.6523V14.4839H13.9904ZM13.9904 18.3864V24.4589C11.9455 21.2756 9.6915 17.7721 7.875 14.9363C10.0188 16.1438 12.257 17.4064 13.9904 18.3873V18.3864ZM13.9904 9.57688L7.875 12.9894L13.9904 3.5V9.57688Z" fill="white"/>
<path d="M19.8711 13.979L13.9902 14.4839V10.6522L19.8702 13.979H19.8711ZM13.9902 18.3872C15.7227 17.4073 17.9601 16.1438 20.1047 14.9362C18.2882 17.773 16.0342 21.2765 13.9902 24.458V18.3872ZM13.9902 9.57687V3.5L20.1047 12.9894L13.9902 9.57687Z" fill="white" fill-opacity="0.601"/>
<path opacity="0.2" fill-rule="evenodd" clip-rule="evenodd" d="M13.9902 14.4841L19.8702 13.9792L13.9902 17.2824V14.4841Z" fill="white"/>
<path opacity="0.603" fill-rule="evenodd" clip-rule="evenodd" d="M13.9883 14.4841L8.10742 13.9792L13.9883 17.2824V14.4841Z" fill="white"/>
</svg>
