<svg width="20" height="22" viewBox="0 0 20 22" fill="none" xmlns="http://www.w3.org/2000/svg">
<path fill-rule="evenodd" clip-rule="evenodd" d="M18.8074 6.62361L18.185 5.54352C17.6584 4.6296 16.4914 4.31432 15.5763 4.83872V4.83872C15.1406 5.09534 14.6208 5.16815 14.1314 5.04109C13.6421 4.91402 13.2233 4.59752 12.9676 4.16137C12.803 3.88415 12.7146 3.56839 12.7113 3.24604V3.24604C12.7261 2.72922 12.5311 2.2284 12.1708 1.85767C11.8104 1.48694 11.3153 1.27786 10.7982 1.27808H9.54423C9.0377 1.27807 8.55205 1.47991 8.19473 1.83895C7.83742 2.19798 7.63791 2.68459 7.64034 3.19112V3.19112C7.62533 4.23693 6.77321 5.07681 5.7273 5.0767C5.40494 5.07336 5.08919 4.98494 4.81197 4.82041V4.82041C3.89679 4.29601 2.72985 4.61129 2.20327 5.52522L1.53508 6.62361C1.00914 7.53639 1.32013 8.70261 2.23073 9.23231V9.23231C2.82263 9.57404 3.18726 10.2056 3.18726 10.8891C3.18726 11.5725 2.82263 12.2041 2.23073 12.5458V12.5458C1.32129 13.0719 1.00996 14.2353 1.53508 15.1454V15.1454L2.16666 16.2346C2.41338 16.6798 2.82734 17.0083 3.31693 17.1474C3.80652 17.2866 4.33137 17.2249 4.77535 16.976V16.976C5.21181 16.7213 5.73192 16.6516 6.22007 16.7822C6.70822 16.9128 7.12397 17.233 7.3749 17.6717C7.53943 17.9489 7.62784 18.2646 7.63119 18.587V18.587C7.63119 19.6435 8.48769 20.5 9.54423 20.5H10.7982C11.8512 20.5001 12.7062 19.6491 12.7113 18.5962V18.5962C12.7088 18.088 12.9096 17.6 13.2689 17.2407C13.6282 16.8814 14.1162 16.6807 14.6243 16.6831C14.9459 16.6917 15.2604 16.7798 15.5397 16.9394V16.9394C16.4524 17.4653 17.6186 17.1544 18.1484 16.2438V16.2438L18.8074 15.1454C19.0625 14.7075 19.1325 14.186 19.0019 13.6964C18.8714 13.2067 18.551 12.7894 18.1117 12.5367V12.5367C17.6725 12.284 17.3521 11.8666 17.2215 11.3769C17.091 10.8873 17.161 10.3658 17.4161 9.92796C17.582 9.63834 17.8221 9.3982 18.1117 9.23231V9.23231C19.0169 8.70289 19.3271 7.54349 18.8074 6.63277V6.63277V6.62361Z" stroke="#B6FF59" stroke-width="1.5" stroke-linecap="round" stroke-linejoin="round"/>
<circle cx="10.1752" cy="10.8891" r="2.63616" stroke="#B6FF59" stroke-width="1.5" stroke-linecap="round" stroke-linejoin="round"/>
</svg>
