<svg width="35" height="28" viewBox="0 0 35 28" fill="none" xmlns="http://www.w3.org/2000/svg">
<path d="M29.1807 2.90144C26.9565 1.87071 24.5877 1.11123 22.0922 0.677246C21.7848 1.21973 21.4232 1.96113 21.1881 2.55786C18.548 2.16004 15.926 2.16004 13.3401 2.55786C13.087 1.96113 12.7253 1.21973 12.4179 0.677246C9.92248 1.11123 7.55363 1.87071 5.32944 2.90144C0.844891 9.66442 -0.36666 16.2647 0.230074 22.7564C3.21374 24.9806 6.08892 26.3187 8.92793 27.2048C9.63316 26.2464 10.248 25.2157 10.7905 24.1488C9.75974 23.769 8.78326 23.2808 7.86104 22.7202C8.1142 22.5394 8.34927 22.3405 8.58435 22.1597C14.2443 24.7998 20.3744 24.7998 25.962 22.1597C26.197 22.3586 26.4321 22.5394 26.6853 22.7202C25.7631 23.2808 24.7685 23.751 23.7559 24.1488C24.2984 25.2157 24.9132 26.2464 25.6184 27.2048C28.4574 26.3187 31.3507 24.9806 34.3163 22.7564C35.0215 15.2159 33.1047 8.68795 29.2169 2.90144H29.1807ZM11.5499 18.7782C9.85015 18.7782 8.45777 17.205 8.45777 15.2701C8.45777 13.3352 9.81399 11.762 11.5499 11.762C13.2859 11.762 14.6602 13.3352 14.6421 15.2701C14.6421 17.1869 13.2859 18.7782 11.5499 18.7782ZM22.9602 18.7782C21.2604 18.7782 19.8681 17.205 19.8681 15.2701C19.8681 13.3352 21.2243 11.762 22.9602 11.762C24.6962 11.762 26.0705 13.3352 26.0524 15.2701C26.0524 17.1869 24.6962 18.7782 22.9602 18.7782Z" fill="white"/>
</svg>
