<svg width="26" height="24" viewBox="0 0 26 24" fill="none" xmlns="http://www.w3.org/2000/svg">
<path d="M9.42857 1.71429C9.90195 1.71429 10.2857 2.09805 10.2857 2.57143C10.2857 2.99221 9.9825 3.34219 9.58264 3.41476L9.42857 3.42857H4.28571C2.94909 3.42857 1.85066 4.44838 1.72606 5.75235L1.71429 6V19.7143C1.71429 21.0509 2.73409 22.1493 4.03807 22.2739L4.28571 22.2857H18C19.3366 22.2857 20.435 21.2659 20.5597 19.9619L20.5714 19.7143V18C20.5714 17.5267 20.9553 17.1429 21.4286 17.1429C21.8493 17.1429 22.1993 17.4461 22.2719 17.8459L22.2857 18V19.7143C22.2857 21.9865 20.5173 23.8458 18.2818 23.9909L18 24H4.28571C2.01346 24 0.15422 22.2316 0.00911604 19.9961L0 19.7143V6C0 3.72775 1.76835 1.86851 4.00393 1.7234L4.28571 1.71429H9.42857ZM17.6023 0.186242L17.7081 0.277116L25.4174 7.85628C25.7772 8.20999 25.8099 8.77814 25.5156 9.17088L25.4175 9.28306L17.7082 16.8646C17.1291 17.4341 16.1878 17.0685 16.085 16.2924L16.0759 16.1513V12.559L15.6341 12.5988C12.5479 12.9286 9.58999 14.3534 6.74162 16.8967C6.07402 17.4929 5.04115 16.9293 5.15095 16.0287C6.0059 9.01695 9.58352 5.15224 15.6909 4.66745L16.0759 4.64155V0.99055C16.0759 0.168088 16.9848 -0.274901 17.6023 0.186242Z" fill="#C2FF43"/>
</svg>
