<svg width="154" height="154" viewBox="0 0 154 154" fill="none" xmlns="http://www.w3.org/2000/svg">
<path d="M142.45 110.379C142.45 114.859 138.644 118.524 133.994 118.524H20.0075C15.3567 118.524 11.5498 114.859 11.5498 110.379V43.6204C11.5498 39.1405 15.3551 35.4753 20.0075 35.4753H133.994C138.643 35.4753 142.45 39.1405 142.45 43.6204V110.379Z" fill="#C3FF43"/>
<path d="M124.031 112.822C126.866 112.822 127.493 111.236 125.425 109.298L99.108 84.6383C97.0398 82.6994 93.5532 82.5855 91.3618 84.3826L84.2547 90.2131C82.0633 92.0103 79.319 94.0092 78.1594 94.6514H75.8417C74.682 94.0076 71.9393 92.0103 69.7479 90.2131L62.3405 84.1362C60.1491 82.3391 56.6625 82.453 54.5943 84.3919L28.0139 109.298C25.9457 111.237 26.5724 112.822 29.4076 112.822H124.031Z" fill="#272727"/>
<path d="M30.7487 41.178C27.9136 41.178 27.3885 42.6487 29.5799 44.4474L73.0156 80.0784C75.207 81.8756 78.7937 81.8756 80.9851 80.0784L124.419 44.4474C126.611 42.6487 126.084 41.178 123.25 41.178H30.7487Z" fill="#272727"/>
<path d="M17.4678 101.312C17.4678 104.147 19.1603 104.88 21.2285 102.943L47.3562 78.4598C49.4244 76.5209 49.3243 73.4655 47.1329 71.6668L21.4518 50.5996C19.2604 48.8009 17.4663 49.6494 17.4663 52.4846V101.312H17.4678Z" fill="#272727"/>
<path d="M136.531 52.4831C136.531 49.648 134.737 48.7994 132.546 50.5981L106.566 71.9117C104.374 73.7105 104.273 76.7658 106.343 78.7047L132.771 103.468C134.839 105.407 136.531 104.672 136.531 101.837V52.4831Z" fill="#272727"/>
</svg>
