<svg width="32" height="32" viewBox="0 0 32 32" fill="none" xmlns="http://www.w3.org/2000/svg">
<circle opacity="0.2" cx="16" cy="16" r="16" fill="#675AFF"/>
<path d="M16.0019 17.53C15.5619 17.53 15.1219 17.44 14.7719 17.27L11.0419 15.4C10.2619 15.01 9.71187 14.33 9.54187 13.55C9.37187 12.76 9.58187 11.92 10.1319 11.24L13.8619 6.58C14.4119 5.89 15.1919 5.5 16.0019 5.5C16.8119 5.5 17.5919 5.89 18.1419 6.58L21.8719 11.25C22.4219 11.93 22.6319 12.77 22.4619 13.56C22.2919 14.35 21.7419 15.02 20.9619 15.41L17.2319 17.28C16.8819 17.45 16.4419 17.53 16.0019 17.53ZM15.0319 7.52L11.3019 12.18C11.0419 12.51 10.9319 12.88 11.0119 13.23C11.0919 13.58 11.3419 13.87 11.7219 14.06L15.4519 15.93C15.7319 16.07 16.2819 16.07 16.5619 15.93L20.2919 14.06C20.6719 13.87 20.9219 13.57 21.0019 13.23C21.0819 12.89 20.9719 12.51 20.7119 12.18L16.9819 7.52C16.4319 6.85 15.5719 6.85 15.0319 7.52Z" fill="#675AFF"/>
<path d="M16 12.31C15.59 12.31 15.25 11.97 15.25 11.56V6.30005C15.25 5.89005 15.59 5.55005 16 5.55005C16.41 5.55005 16.75 5.89005 16.75 6.30005V11.56C16.75 11.97 16.41 12.31 16 12.31Z" fill="#675AFF"/>
<path d="M20.2011 15.4601C20.0411 15.4601 19.8911 15.4101 19.7511 15.3101L16.0011 12.4901L12.2511 15.3101C11.9211 15.5601 11.4511 15.4901 11.2011 15.1601C10.9511 14.8301 11.0211 14.3601 11.3511 14.1101L15.5511 10.9601C15.8211 10.7601 16.1811 10.7601 16.4511 10.9601L20.6511 14.1101C20.9811 14.3601 21.0511 14.8301 20.8011 15.1601C20.6611 15.3601 20.4311 15.4601 20.2011 15.4601Z" fill="#675AFF"/>
<path d="M16.0011 26.5C15.2011 26.5 14.4211 26.1201 13.8711 25.4401L10.4111 21.21C9.74113 20.39 9.72113 19.27 10.3611 18.42C11.0011 17.57 12.0911 17.3 13.0611 17.73L14.6711 18.45C15.5111 18.82 16.4711 18.82 17.3111 18.45L18.9211 17.73C19.8911 17.3 20.9811 17.58 21.6211 18.42C22.2711 19.27 22.2511 20.39 21.5711 21.21L18.1111 25.4401C17.5811 26.1201 16.8011 26.5 16.0011 26.5ZM12.1411 19.04C11.8311 19.04 11.6311 19.26 11.5611 19.34C11.4811 19.45 11.2311 19.8401 11.5811 20.2701L15.0411 24.5C15.5711 25.15 16.4411 25.15 16.9711 24.5L20.4311 20.2701C20.7811 19.8401 20.5311 19.45 20.4511 19.34C20.3711 19.23 20.0511 18.89 19.5511 19.11L17.9411 19.83C16.7111 20.37 15.3111 20.37 14.0811 19.83L12.4711 19.11C12.3411 19.06 12.2311 19.04 12.1411 19.04Z" fill="#675AFF"/>
</svg>
