<svg width="31" height="31" viewBox="0 0 31 31" fill="none" xmlns="http://www.w3.org/2000/svg">
<path d="M17.8624 24.5417C17.6694 24.5424 17.4787 24.4998 17.3044 24.4171C17.13 24.3344 16.9764 24.2137 16.8549 24.0638L10.6161 16.3138C10.4261 16.0827 10.3223 15.7928 10.3223 15.4936C10.3223 15.1944 10.4261 14.9045 10.6161 14.6734L17.0744 6.9234C17.2937 6.65962 17.6087 6.49374 17.9503 6.46225C18.2918 6.43076 18.6319 6.53624 18.8957 6.75549C19.1595 6.97473 19.3253 7.28979 19.3568 7.63134C19.3883 7.97289 19.2829 8.31296 19.0636 8.57674L13.2899 15.5001L18.8699 22.4234C19.0278 22.613 19.1281 22.8439 19.159 23.0887C19.1898 23.3335 19.1499 23.5821 19.0439 23.8049C18.9379 24.0278 18.7703 24.2156 18.5609 24.3462C18.3515 24.4768 18.1091 24.5446 17.8624 24.5417Z" fill="white"/>
</svg>
