<svg width="26" height="24" viewBox="0 0 26 24" fill="none" xmlns="http://www.w3.org/2000/svg">
<path d="M25.9338 11.3423C25.9338 9.70704 21.4844 8.34266 15.5712 8.02801L15.5709 5.42252H22.954V0H2.76534V5.42252H10.1479V8.04073C4.34257 8.37712 0 9.72719 0 11.3423C0 12.9577 4.34257 14.3081 10.1479 14.6437V24H15.5709V14.6564C21.4844 14.3423 25.9338 12.9776 25.9338 11.3423ZM12.9668 12.9532C6.62016 12.9532 1.47492 11.9708 1.47492 10.7584C1.47492 9.73196 5.16433 8.86991 10.1479 8.63028V9.24818H10.1484V11.7802C11.047 11.8309 11.9913 11.8571 12.9668 11.8571C13.8651 11.8571 14.7375 11.8343 15.5715 11.7924V8.62073C20.6631 8.84579 24.4591 9.71685 24.4591 10.7584C24.4591 11.9708 19.3136 12.9532 12.9668 12.9532Z" fill="#328332"/>
</svg>
