<svg width="27" height="27" viewBox="0 0 27 27" fill="none" xmlns="http://www.w3.org/2000/svg">
<path d="M24.7539 4.79994L21.9789 2.02494C21.7404 1.79752 21.4235 1.67065 21.0939 1.67065C20.7643 1.67065 20.4474 1.79752 20.2089 2.02494L17.7414 4.49994H4.50391C4.10608 4.49994 3.72455 4.65798 3.44325 4.93928C3.16194 5.22058 3.00391 5.60212 3.00391 5.99994V22.4999C3.00391 22.8978 3.16194 23.2793 3.44325 23.5606C3.72455 23.8419 4.10608 23.9999 4.50391 23.9999H21.0039C21.4017 23.9999 21.7833 23.8419 22.0646 23.5606C22.3459 23.2793 22.5039 22.8978 22.5039 22.4999V8.81994L24.7539 6.56994C24.9884 6.3351 25.1201 6.0168 25.1201 5.68494C25.1201 5.35308 24.9884 5.03478 24.7539 4.79994ZM14.1264 15.0974L10.9839 15.7949L11.7339 12.6824L18.8964 5.50494L21.3189 7.92744L14.1264 15.0974ZM22.1289 7.07244L19.7064 4.64994L21.0939 3.26244L23.5164 5.68494L22.1289 7.07244Z" fill="#C2FF43"/>
</svg>
