<svg width="21" height="21" viewBox="0 0 21 21" fill="none" xmlns="http://www.w3.org/2000/svg">
<path fill-rule="evenodd" clip-rule="evenodd" d="M5.21653 14.0029C5.05653 14.0029 4.89553 13.9519 4.75953 13.8479C4.43153 13.5949 4.36953 13.1239 4.62253 12.7959L7.61553 8.90587C7.73753 8.74687 7.91853 8.64387 8.11653 8.61887C8.31853 8.59287 8.51653 8.64887 8.67353 8.77387L11.4935 10.9889L13.9605 7.80587C14.2145 7.47687 14.6845 7.41587 15.0125 7.67187C15.3405 7.92587 15.4005 8.39687 15.1465 8.72387L12.2165 12.5039C12.0945 12.6619 11.9145 12.7649 11.7165 12.7889C11.5165 12.8159 11.3185 12.7579 11.1605 12.6349L8.34253 10.4209L5.81153 13.7099C5.66353 13.9019 5.44153 14.0029 5.21653 14.0029Z" fill="#72767C"/>
<mask id="mask0_512_4395" style="mask-type:alpha" maskUnits="userSpaceOnUse" x="15" y="0" width="6" height="6">
<path fill-rule="evenodd" clip-rule="evenodd" d="M15.2949 0H20.6389V5.3449H15.2949V0Z" fill="white"/>
</mask>
<g mask="url(#mask0_512_4395)">
<path fill-rule="evenodd" clip-rule="evenodd" d="M17.9669 1.5C17.3209 1.5 16.7949 2.025 16.7949 2.672C16.7949 3.318 17.3209 3.845 17.9669 3.845C18.6129 3.845 19.1389 3.318 19.1389 2.672C19.1389 2.025 18.6129 1.5 17.9669 1.5ZM17.9669 5.345C16.4939 5.345 15.2949 4.146 15.2949 2.672C15.2949 1.198 16.4939 0 17.9669 0C19.4409 0 20.6389 1.198 20.6389 2.672C20.6389 4.146 19.4409 5.345 17.9669 5.345Z" fill="#72767C"/>
</g>
<mask id="mask1_512_4395" style="mask-type:alpha" maskUnits="userSpaceOnUse" x="0" y="0" width="20" height="21">
<path fill-rule="evenodd" clip-rule="evenodd" d="M0 0.842041H19.8619V20.703H0V0.842041Z" fill="white"/>
</mask>
<g mask="url(#mask1_512_4395)">
<path fill-rule="evenodd" clip-rule="evenodd" d="M14.233 20.703H5.629C2.262 20.703 0 18.338 0 14.818V6.73604C0 3.21104 2.262 0.842041 5.629 0.842041H12.897C13.311 0.842041 13.647 1.17804 13.647 1.59204C13.647 2.00604 13.311 2.34204 12.897 2.34204H5.629C3.121 2.34204 1.5 4.06604 1.5 6.73604V14.818C1.5 17.523 3.082 19.203 5.629 19.203H14.233C16.741 19.203 18.362 17.482 18.362 14.818V7.77904C18.362 7.36504 18.698 7.02904 19.112 7.02904C19.526 7.02904 19.862 7.36504 19.862 7.77904V14.818C19.862 18.338 17.6 20.703 14.233 20.703Z" fill="#72767C"/>
</g>
</svg>
