<svg width="60" height="60" viewBox="0 0 60 60" fill="none" xmlns="http://www.w3.org/2000/svg">
<path d="M56 30C56 44.3595 44.3593 56 30 56C15.6407 56 4 44.3595 4 30C4 15.6407 15.6407 4 30 4C44.3593 4 56 15.6407 56 30Z" fill="#0052FF"/>
<path d="M30.0059 20.8593C24.9557 20.8593 20.8652 24.9498 20.8652 29.9999C20.8652 35.0501 24.9557 39.1406 30.0059 39.1406C34.5304 39.1406 38.2858 35.8423 39.0095 31.5234H48.2185C47.4416 40.9078 39.5882 48.2812 30.0059 48.2812C19.913 48.2812 11.7246 40.0928 11.7246 29.9999C11.7246 19.9072 19.913 11.7188 30.0059 11.7188C39.5882 11.7188 47.4416 19.0921 48.2185 28.4765H39.0018C38.2782 24.1576 34.5304 20.8593 30.0059 20.8593Z" fill="white"/>
</svg>
