<svg width="81" height="81" viewBox="0 0 81 81" fill="none" xmlns="http://www.w3.org/2000/svg">
<circle cx="40.5" cy="40.5" r="40.5" fill="#7C993F"/>
<circle cx="40.5" cy="40.5" r="29.5" fill="#BAE264"/>
<path d="M23.5625 27.7363H59.0117V34.6758L59.8604 38.7632L59.0117 42.1846V52.0942H23.5625V27.7363Z" fill="#393939"/>
<path d="M59.2266 34.8745H56.4766V41.7656H59.2266V53.0825C59.2266 53.8989 58.5767 54.5596 57.771 54.5596H23.5571C22.7515 54.5596 22.1016 53.8989 22.1016 53.0825V27.4893C22.1016 26.6729 22.7515 26.0122 23.5571 26.0122H57.771C58.5767 26.0122 59.2266 26.6729 59.2266 27.4893V34.8745ZM25.0127 28.9663V51.6055H56.4766V28.9663H25.0127Z" fill="#393939"/>
<path d="M55.6636 27.3441L53.0264 28.0585L51.3828 21.8226L28.2388 28.8695L27.3203 26.2216L51.877 18.8578C52.6504 18.6268 53.4561 19.0726 53.687 19.8568C53.6924 19.8676 53.6924 19.8837 53.6978 19.8944L55.6636 27.3441ZM60.6855 31.9185C61.4912 31.9185 62.1411 32.5792 62.1411 33.3956V43.2354C62.1411 44.0518 61.4912 44.7125 60.6855 44.7125H50.98C47.4941 44.7125 44.6689 41.8497 44.6689 38.3155C44.6689 34.7813 47.4941 31.9185 50.98 31.9185H60.6855ZM58.4995 34.8726H50.98C49.1055 34.8726 47.5854 36.4141 47.5854 38.3155C47.5854 40.2169 49.1055 41.7584 50.98 41.7584H58.4995C58.9023 41.7584 59.23 41.4253 59.23 41.0225V35.6085C59.23 35.2003 58.9023 34.8726 58.4995 34.8726Z" fill="#393939"/>
<path d="M59.2266 34.8745H56.4766V41.7656H59.2266V53.0825C59.2266 53.8989 58.5767 54.5596 57.771 54.5596H23.5571C22.7515 54.5596 22.1016 53.8989 22.1016 53.0825V27.4893C22.1016 26.6729 22.7515 26.0122 23.5571 26.0122H57.771C58.5767 26.0122 59.2266 26.6729 59.2266 27.4893V34.8745ZM25.0127 28.9663V51.6055H56.4766V28.9663H25.0127Z" fill="#393939"/>
<path d="M55.6636 27.3441L53.0264 28.0585L51.3828 21.8226L28.2388 28.8695L27.3203 26.2216L51.877 18.8578C52.6504 18.6268 53.4561 19.0726 53.687 19.8568C53.6924 19.8676 53.6924 19.8837 53.6978 19.8944L55.6636 27.3441ZM60.6855 31.9185C61.4912 31.9185 62.1411 32.5792 62.1411 33.3956V43.2354C62.1411 44.0518 61.4912 44.7125 60.6855 44.7125H50.98C47.4941 44.7125 44.6689 41.8497 44.6689 38.3155C44.6689 34.7813 47.4941 31.9185 50.98 31.9185H60.6855ZM58.4995 34.8726H50.98C49.1055 34.8726 47.5854 36.4141 47.5854 38.3155C47.5854 40.2169 49.1055 41.7584 50.98 41.7584H58.4995C58.9023 41.7584 59.23 41.4253 59.23 41.0225V35.6085C59.23 35.2003 58.9023 34.8726 58.4995 34.8726Z" fill="#393939"/>
<path d="M59.2266 34.8745H56.4766V41.7656H59.2266V53.0825C59.2266 53.8989 58.5767 54.5596 57.771 54.5596H23.5571C22.7515 54.5596 22.1016 53.8989 22.1016 53.0825V27.4893C22.1016 26.6729 22.7515 26.0122 23.5571 26.0122H57.771C58.5767 26.0122 59.2266 26.6729 59.2266 27.4893V34.8745ZM25.0127 28.9663V51.6055H56.4766V28.9663H25.0127Z" fill="#393939"/>
<path d="M55.6636 27.3441L53.0264 28.0585L51.3828 21.8226L28.2388 28.8695L27.3203 26.2216L51.877 18.8578C52.6504 18.6268 53.4561 19.0726 53.687 19.8568C53.6924 19.8676 53.6924 19.8837 53.6978 19.8944L55.6636 27.3441ZM60.6855 31.9185C61.4912 31.9185 62.1411 32.5792 62.1411 33.3956V43.2354C62.1411 44.0518 61.4912 44.7125 60.6855 44.7125H50.98C47.4941 44.7125 44.6689 41.8497 44.6689 38.3155C44.6689 34.7813 47.4941 31.9185 50.98 31.9185H60.6855ZM58.4995 34.8726H50.98C49.1055 34.8726 47.5854 36.4141 47.5854 38.3155C47.5854 40.2169 49.1055 41.7584 50.98 41.7584H58.4995C58.9023 41.7584 59.23 41.4253 59.23 41.0225V35.6085C59.23 35.2003 58.9023 34.8726 58.4995 34.8726Z" fill="#393939"/>
<path d="M37.5703 26.0552L51.2773 21.7852L52.5771 26.4473L37.5703 26.0552Z" fill="#393939"/>
<path d="M23.5625 27.7363H59.0117V34.6758L59.8604 38.7632L59.0117 42.1846V52.0942H23.5625V27.7363Z" fill="white"/>
<path d="M59.2266 34.8745H56.4766V41.7656H59.2266V53.0825C59.2266 53.8989 58.5767 54.5596 57.771 54.5596H23.5571C22.7515 54.5596 22.1016 53.8989 22.1016 53.0825V27.4893C22.1016 26.6729 22.7515 26.0122 23.5571 26.0122H57.771C58.5767 26.0122 59.2266 26.6729 59.2266 27.4893V34.8745ZM25.0127 28.9663V51.6055H56.4766V28.9663H25.0127Z" fill="#393939"/>
<path d="M55.6636 27.3441L53.0264 28.0585L51.3828 21.8226L28.2388 28.8695L27.3203 26.2216L51.877 18.8578C52.6504 18.6268 53.4561 19.0726 53.687 19.8568C53.6924 19.8676 53.6924 19.8837 53.6978 19.8944L55.6636 27.3441ZM60.6855 31.9185C61.4912 31.9185 62.1411 32.5792 62.1411 33.3956V43.2354C62.1411 44.0518 61.4912 44.7125 60.6855 44.7125H50.98C47.4941 44.7125 44.6689 41.8497 44.6689 38.3155C44.6689 34.7813 47.4941 31.9185 50.98 31.9185H60.6855ZM58.4995 34.8726H50.98C49.1055 34.8726 47.5854 36.4141 47.5854 38.3155C47.5854 40.2169 49.1055 41.7584 50.98 41.7584H58.4995C58.9023 41.7584 59.23 41.4253 59.23 41.0225V35.6085C59.23 35.2003 58.9023 34.8726 58.4995 34.8726Z" fill="#393939"/>
<path d="M59.2266 34.8745H56.4766V41.7656H59.2266V53.0825C59.2266 53.8989 58.5767 54.5596 57.771 54.5596H23.5571C22.7515 54.5596 22.1016 53.8989 22.1016 53.0825V27.4893C22.1016 26.6729 22.7515 26.0122 23.5571 26.0122H57.771C58.5767 26.0122 59.2266 26.6729 59.2266 27.4893V34.8745ZM25.0127 28.9663V51.6055H56.4766V28.9663H25.0127Z" fill="#393939"/>
<path d="M55.6636 27.3441L53.0264 28.0585L51.3828 21.8226L28.2388 28.8695L27.3203 26.2216L51.877 18.8578C52.6504 18.6268 53.4561 19.0726 53.687 19.8568C53.6924 19.8676 53.6924 19.8837 53.6978 19.8944L55.6636 27.3441ZM60.6855 31.9185C61.4912 31.9185 62.1411 32.5792 62.1411 33.3956V43.2354C62.1411 44.0518 61.4912 44.7125 60.6855 44.7125H50.98C47.4941 44.7125 44.6689 41.8497 44.6689 38.3155C44.6689 34.7813 47.4941 31.9185 50.98 31.9185H60.6855ZM58.4995 34.8726H50.98C49.1055 34.8726 47.5854 36.4141 47.5854 38.3155C47.5854 40.2169 49.1055 41.7584 50.98 41.7584H58.4995C58.9023 41.7584 59.23 41.4253 59.23 41.0225V35.6085C59.23 35.2003 58.9023 34.8726 58.4995 34.8726Z" fill="#393939"/>
<path d="M37.5703 26.0552L51.2773 21.7852L52.5771 26.4473L37.5703 26.0552Z" fill="#C3FF43"/>
<path d="M58.5156 34.9014H50.9961C49.1216 34.9014 47.6016 36.4429 47.6016 38.3442C47.6016 40.2456 49.1216 41.7871 50.9961 41.7871H58.5156C58.9185 41.7871 59.2461 41.4541 59.2461 41.0513V35.6372C59.2407 35.229 58.9185 34.9014 58.5156 34.9014Z" fill="white"/>
<path d="M49.8672 38.2046C49.8672 38.5963 50.0205 38.972 50.2935 39.249C50.5665 39.526 50.9367 39.6816 51.3228 39.6816C51.7088 39.6816 52.079 39.526 52.352 39.249C52.625 38.972 52.7783 38.5963 52.7783 38.2046C52.7783 37.8129 52.625 37.4372 52.352 37.1602C52.079 36.8832 51.7088 36.7275 51.3228 36.7275C50.9367 36.7275 50.5665 36.8832 50.2935 37.1602C50.0205 37.4372 49.8672 37.8129 49.8672 38.2046Z" fill="#393939"/>
</svg>
