<svg width="81" height="81" viewBox="0 0 81 81" fill="none" xmlns="http://www.w3.org/2000/svg">
<circle cx="40.5" cy="40.5" r="40.5" fill="#7C993F"/>
<circle cx="40.5" cy="40.5" r="29.5" fill="#BAE264"/>
<path d="M43.917 26.8335H37.0837C30.6411 26.8335 27.4199 26.8335 25.4184 28.8349C23.9774 30.276 23.5739 32.3494 23.4609 35.8022H57.5398C57.4268 32.3494 57.0233 30.276 55.5822 28.8349C53.5809 26.8335 50.3595 26.8335 43.917 26.8335Z" fill="#212C0C"/>
<path d="M37.0807 54.1668H43.9141C50.3565 54.1668 53.5779 54.1668 55.5792 52.1653C57.5807 50.164 57.5807 46.9426 57.5807 40.5002C57.5807 39.7453 57.5807 39.0344 57.5775 38.3647H23.4173C23.4141 39.0344 23.4141 39.7453 23.4141 40.5002C23.4141 46.9426 23.4141 50.164 25.4155 52.1653C27.4169 54.1668 30.6382 54.1668 37.0807 54.1668Z" fill="#212C0C"/>
<path fill-rule="evenodd" clip-rule="evenodd" d="M28.9688 47.3335C28.9688 46.6259 29.5424 46.0522 30.25 46.0522H37.0833C37.7909 46.0522 38.3646 46.6259 38.3646 47.3335C38.3646 48.0411 37.7909 48.6147 37.0833 48.6147H30.25C29.5424 48.6147 28.9688 48.0411 28.9688 47.3335Z" fill="#ECFACE"/>
<path fill-rule="evenodd" clip-rule="evenodd" d="M40.0703 47.3335C40.0703 46.6259 40.644 46.0522 41.3516 46.0522H43.9141C44.6217 46.0522 45.1953 46.6259 45.1953 47.3335C45.1953 48.0411 44.6217 48.6147 43.9141 48.6147H41.3516C40.644 48.6147 40.0703 48.0411 40.0703 47.3335Z" fill="#ECFACE"/>
</svg>
