<svg width="60" height="60" viewBox="0 0 60 60" fill="none" xmlns="http://www.w3.org/2000/svg">
<path fill-rule="evenodd" clip-rule="evenodd" d="M18.4688 49.8323L25.4895 51.695V49.2591L26.0626 48.686H30.0744V51.5516V53.5575H25.7761L20.4746 51.265L18.4688 49.8323Z" fill="#CDBDB2"/>
<path fill-rule="evenodd" clip-rule="evenodd" d="M41.3984 49.8323L34.5211 51.695V49.2591L33.948 48.686H29.9362V51.5516V53.5575H34.2345L39.5357 51.265L41.3984 49.8323Z" fill="#CDBDB2"/>
<path fill-rule="evenodd" clip-rule="evenodd" d="M26.0731 44.5295L25.5 49.2576L26.2163 48.6844H33.6667L34.5264 49.2576L33.9533 44.5295L32.8071 43.813L27.0759 43.9564L26.0731 44.5295Z" fill="#393939"/>
<path fill-rule="evenodd" clip-rule="evenodd" d="M22.1992 12.5762L25.6379 20.5998L27.2141 43.9543H32.8018L34.5212 20.5998L37.6733 12.5762H22.1992Z" fill="#F89C35"/>
<path fill-rule="evenodd" clip-rule="evenodd" d="M7.15828 30.2036L3.14648 41.809L13.176 41.2359H19.6234V36.2213L19.3368 25.9053L17.904 27.0515L7.15828 30.2036Z" fill="#F89D35"/>
<path fill-rule="evenodd" clip-rule="evenodd" d="M14.752 31.4932L26.5008 31.7797L25.2114 37.7974L19.6234 36.3646L14.752 31.4932Z" fill="#D87C30"/>
<path fill-rule="evenodd" clip-rule="evenodd" d="M14.752 31.6338L19.6234 36.2187V40.8036L14.752 31.6338Z" fill="#EA8D3A"/>
<path fill-rule="evenodd" clip-rule="evenodd" d="M19.6191 36.3599L25.3503 37.7926L27.213 43.9537L25.9234 44.67L19.6191 40.9448V36.3599Z" fill="#F89D35"/>
<path fill-rule="evenodd" clip-rule="evenodd" d="M19.615 40.9458L18.4688 49.8291L26.0626 44.5279L19.615 40.9458Z" fill="#EB8F35"/>
<path fill-rule="evenodd" clip-rule="evenodd" d="M26.4933 31.7744L27.2098 43.9532L25.0605 37.7205L26.4933 31.7744Z" fill="#EA8E3A"/>
<path fill-rule="evenodd" clip-rule="evenodd" d="M13.0273 41.0892L19.6181 40.9458L18.4719 49.8291L13.0273 41.0892Z" fill="#D87C30"/>
<path fill-rule="evenodd" clip-rule="evenodd" d="M6.29861 53.7013L18.4771 49.8326L13.0326 41.0928L3.14648 41.809L6.29861 53.7013Z" fill="#EB8F35"/>
<path fill-rule="evenodd" clip-rule="evenodd" d="M25.6411 20.6038L19.4803 25.7618L14.752 31.4929L26.5008 31.9229L25.6411 20.6038Z" fill="#E8821E"/>
<path fill-rule="evenodd" clip-rule="evenodd" d="M18.4688 49.8295L26.0626 44.5283L25.4895 49.1132V51.6922L20.3315 50.6892L18.4688 49.8295Z" fill="#DFCEC3"/>
<path fill-rule="evenodd" clip-rule="evenodd" d="M41.3984 49.8295L33.948 44.5283L34.5211 49.1132V51.6922L39.6791 50.6892L41.3984 49.8295Z" fill="#DFCEC3"/>
<path fill-rule="evenodd" clip-rule="evenodd" d="M23.3496 34.3545L24.9258 37.65L19.3378 36.2172L23.3496 34.3545Z" fill="#393939"/>
<path fill-rule="evenodd" clip-rule="evenodd" d="M6.1543 5.84424L25.6401 20.6018L22.3449 12.5782L6.1543 5.84424Z" fill="#E88F35"/>
<path fill-rule="evenodd" clip-rule="evenodd" d="M6.15323 5.84424L3.57422 13.7245L5.007 22.3212L4.00405 22.8943L5.43684 24.1839L4.29061 25.1868L5.86667 26.6196L4.86372 27.4792L7.15617 30.3448L17.902 27.0494C23.1556 22.8466 25.7346 20.6974 25.6391 20.6019C25.5435 20.5064 19.0483 15.5872 6.15323 5.84424Z" fill="#8E5A30"/>
<path fill-rule="evenodd" clip-rule="evenodd" d="M52.7187 30.2027L56.7305 41.8081L46.701 41.235H40.2536V36.2203L40.5401 25.9043L41.9729 27.0505L52.7187 30.2027Z" fill="#F89D35"/>
<path fill-rule="evenodd" clip-rule="evenodd" d="M45.125 31.4924L33.3762 31.779L34.6655 37.7967L40.2535 36.3639L45.125 31.4924Z" fill="#D87C30"/>
<path fill-rule="evenodd" clip-rule="evenodd" d="M45.125 31.6333L40.2535 36.2182V40.8031L45.125 31.6333Z" fill="#EA8D3A"/>
<path fill-rule="evenodd" clip-rule="evenodd" d="M40.2598 36.3594L34.5287 37.7922L32.6659 43.9533L33.9555 44.6695L40.2598 40.9443V36.3594Z" fill="#F89D35"/>
<path fill-rule="evenodd" clip-rule="evenodd" d="M40.2503 40.9448L41.3965 49.8281L33.946 44.6701L40.2503 40.9448Z" fill="#EB8F35"/>
<path fill-rule="evenodd" clip-rule="evenodd" d="M33.3719 31.7776L32.6554 43.9564L34.8047 37.7237L33.3719 31.7776Z" fill="#EA8E3A"/>
<path fill-rule="evenodd" clip-rule="evenodd" d="M46.8457 41.0882L40.2549 40.9448L41.4011 49.8281L46.8457 41.0882Z" fill="#D87C30"/>
<path fill-rule="evenodd" clip-rule="evenodd" d="M53.5783 53.7003L41.3998 49.8316L46.8444 41.0918L56.7305 41.8081L53.5783 53.7003Z" fill="#EB8F35"/>
<path fill-rule="evenodd" clip-rule="evenodd" d="M34.2358 20.6033L40.3967 25.7613L45.125 31.4924L33.3762 31.9224L34.2358 20.6033Z" fill="#E8821E"/>
<path fill-rule="evenodd" clip-rule="evenodd" d="M36.5274 34.354L34.9512 37.6495L40.5391 36.2167L36.5274 34.354Z" fill="#393939"/>
<path fill-rule="evenodd" clip-rule="evenodd" d="M53.7227 5.84375L34.2368 20.6013L37.5321 12.5777L53.7227 5.84375Z" fill="#E88F35"/>
<path fill-rule="evenodd" clip-rule="evenodd" d="M53.7218 5.84375L56.3008 13.7241L54.868 22.3208L55.8709 22.8939L54.4382 24.1834L55.5844 25.1863L54.0083 26.6191L55.0113 27.4788L52.7188 30.3443L41.973 27.0489C36.7194 22.8461 34.1404 20.6969 34.2359 20.6014C34.3315 20.5059 40.8267 15.5867 53.7218 5.84375Z" fill="#8E5A30"/>
</svg>
