<svg width="35" height="35" viewBox="0 0 35 35" fill="none" xmlns="http://www.w3.org/2000/svg">
<path d="M14.9326 26.9352C14.605 27.3983 14.2948 27.6266 13.9983 27.6266C13.8006 27.6266 13.6881 27.5108 13.6523 27.2811C13.6382 27.2336 13.6382 27.0533 13.6382 26.7069V20.7007H12.1611V27.1512C12.1611 27.7278 12.2101 28.1166 12.2915 28.3638C12.4388 28.777 12.7674 28.9705 13.2438 28.9705C13.7869 28.9705 14.3452 28.6424 14.9322 27.9684V28.8585H16.4116V20.7012H14.9326V26.9352Z" fill="white"/>
<path d="M6.78809 19.4519H8.52687V28.8589H10.1706V19.4519H11.9414V17.9108H6.78809V19.4519Z" fill="white"/>
<path d="M16.8537 12.3194C17.3353 12.3194 17.5659 11.9382 17.5659 11.1751V7.70699C17.5659 6.94492 17.3353 6.56506 16.8537 6.56506C16.3717 6.56506 16.1406 6.94492 16.1406 7.70699V11.1751C16.1411 11.9377 16.3717 12.3194 16.8537 12.3194Z" fill="white"/>
<path d="M20.6944 20.6018C20.1512 20.6018 19.6448 20.8993 19.1679 21.4867V17.9108H17.6895V28.8589H19.1679V28.0672C19.6612 28.6786 20.1691 28.9709 20.6944 28.9709C21.2833 28.9709 21.6787 28.6612 21.8764 28.0544C21.9747 27.7085 22.0251 27.1653 22.0251 26.4107V23.1624C22.0251 22.3905 21.9747 21.851 21.8764 21.523C21.6782 20.9115 21.2833 20.6018 20.6944 20.6018ZM20.5471 26.5265C20.5471 27.2632 20.3301 27.6266 19.9041 27.6266C19.6612 27.6266 19.4146 27.5108 19.1675 27.2637V22.2911C19.4146 22.0478 19.6608 21.932 19.9041 21.932C20.3306 21.932 20.5471 22.3095 20.5471 23.0452V26.5265Z" fill="white"/>
<path d="M25.4027 20.6016C24.6486 20.6016 24.0593 20.8797 23.6328 21.4385C23.3184 21.8503 23.1758 22.4877 23.1758 23.3589V26.2171C23.1758 27.0832 23.3368 27.7276 23.6507 28.1347C24.0777 28.6916 24.666 28.9702 25.4399 28.9702C26.2118 28.9702 26.8176 28.6779 27.2271 28.0867C27.406 27.8236 27.5227 27.5275 27.5722 27.2004C27.5853 27.0521 27.6037 26.7235 27.6037 26.2481V26.0316H26.0951C26.0951 26.6247 26.0767 26.9528 26.0631 27.0333C25.9788 27.4282 25.7661 27.6259 25.4027 27.6259C24.8953 27.6259 24.6486 27.2493 24.6486 26.4943V25.0483H27.6042V23.3585C27.6042 22.4867 27.4559 21.8499 27.1466 21.438C26.7329 20.8793 26.1445 20.6016 25.4027 20.6016ZM26.1262 23.8184H24.6486V23.0638C24.6486 22.3097 24.8953 21.9322 25.3895 21.9322C25.8786 21.9322 26.1262 22.3097 26.1262 23.0638V23.8184Z" fill="white"/>
<path d="M30.8438 0.392212H3.54298C1.73077 0.392212 0.248047 1.87493 0.248047 3.68714V30.988C0.248047 32.8002 1.73077 34.2829 3.54298 34.2829H30.8438C32.656 34.2829 34.1388 32.8002 34.1388 30.988V3.68714C34.1388 1.87493 32.656 0.392212 30.8438 0.392212ZM20.2906 5.32049H21.7795V11.3888C21.7795 11.74 21.7795 11.9221 21.7978 11.9701C21.8308 12.2017 21.9475 12.3199 22.148 12.3199C22.4465 12.3199 22.7604 12.0883 23.0913 11.6204V5.32049H24.5853V13.5625H23.0913V12.6635C22.4968 13.3455 21.9296 13.6769 21.385 13.6769C20.904 13.6769 20.5721 13.4816 20.4229 13.0636C20.3405 12.8146 20.2906 12.4197 20.2906 11.8379V5.32049ZM14.6483 8.00727C14.6483 7.12658 14.7985 6.48219 15.1162 6.06561C15.5295 5.50265 16.1113 5.2207 16.855 5.2207C17.6034 5.2207 18.1842 5.50265 18.598 6.06561C18.9105 6.48219 19.0616 7.12658 19.0616 8.00727V10.895C19.0616 11.7705 18.911 12.4201 18.598 12.8339C18.1842 13.3954 17.6039 13.6774 16.855 13.6774C16.1108 13.6774 15.529 13.3954 15.1162 12.8339C14.7985 12.4201 14.6483 11.7705 14.6483 10.895V8.00727ZM10.6539 2.50191L11.8302 6.8451L12.9594 2.50191H14.6342L12.6422 9.0833V13.5625H10.9853V9.0833C10.8356 8.28875 10.5042 7.12611 9.97327 5.58361C9.62401 4.55748 9.26015 3.52663 8.91136 2.50191H10.6539ZM28.9954 29.349C28.6969 30.6496 27.6322 31.6089 26.3519 31.7515C23.3187 32.0904 20.2492 32.0923 17.1934 32.0904C14.1371 32.0923 11.0677 32.0904 8.03491 31.7515C6.75412 31.6084 5.69127 30.6491 5.39238 29.349C4.96639 27.4963 4.96639 25.4742 4.96639 23.5678C4.96639 21.6596 4.9711 19.6388 5.39755 17.7857C5.69598 16.4856 6.7593 15.5268 8.04009 15.3837C11.0728 15.0438 14.1423 15.0429 17.1986 15.0438C20.2544 15.0429 23.3239 15.0438 26.3571 15.3837C27.6369 15.5268 28.7012 16.4856 29.0001 17.7857C29.4261 19.6393 29.4237 21.6596 29.4237 23.5678C29.4242 25.4742 29.4218 27.4963 28.9954 29.349Z" fill="white"/>
</svg>
