<svg width="51" height="46" viewBox="0 0 51 46" fill="none" xmlns="http://www.w3.org/2000/svg">
<path d="M50.1439 21.7395C50.1439 18.6052 41.6159 15.9901 30.2823 15.387L30.2818 10.3932H44.4326V0H5.73773V10.3932H19.8876V15.4114C8.76077 16.0562 0.4375 18.6438 0.4375 21.7395C0.4375 24.8357 8.76077 27.4238 19.8876 28.067V46H30.2818V28.0914C41.6159 27.4893 50.1439 24.8738 50.1439 21.7395ZM25.2904 24.827C13.1261 24.827 3.26442 22.9441 3.26442 20.6202C3.26442 18.6529 10.3358 17.0007 19.8876 16.5414V17.7257H19.8886V22.5788C21.611 22.6758 23.4207 22.7261 25.2904 22.7261C27.0123 22.7261 28.6844 22.6825 30.2828 22.6022V16.5231C40.0419 16.9544 47.3175 18.624 47.3175 20.6202C47.3175 22.9441 37.4553 24.827 25.2904 24.827Z" fill="#328332"/>
</svg>
