<svg width="40" height="40" viewBox="0 0 40 40" fill="none" xmlns="http://www.w3.org/2000/svg">
<path d="M4.03677 35.9688L6.22534 27.9268C4.78324 25.4547 4.02559 22.6431 4.0303 19.7811C4.0303 10.8407 11.2775 3.59351 20.2179 3.59351C29.1584 3.59351 36.4056 10.8407 36.4056 19.7811C36.4056 28.7216 29.1584 35.9688 20.2179 35.9688C17.3572 35.9734 14.5468 35.2163 12.0756 33.7754L4.03677 35.9688ZM14.3758 12.1859C14.1668 12.1989 13.9625 12.2539 13.7753 12.3478C13.5997 12.4472 13.4394 12.5715 13.2993 12.7169C13.1051 12.8998 12.995 13.0584 12.8768 13.2122C12.2786 13.9908 11.9567 14.9466 11.9622 15.9285C11.9655 16.7217 12.1727 17.4938 12.4964 18.2158C13.1585 19.6759 14.2479 21.2218 15.687 22.6544C16.0334 22.9992 16.3717 23.3457 16.736 23.6678C18.5221 25.2404 20.6506 26.3744 22.952 26.9798L23.8731 27.1206C24.1726 27.1368 24.472 27.1141 24.7731 27.0996C25.2446 27.0752 25.7049 26.9476 26.1216 26.7256C26.3903 26.5832 26.5165 26.512 26.7416 26.3695C26.7416 26.3695 26.8112 26.3242 26.9439 26.2238C27.1624 26.0619 27.2968 25.947 27.4781 25.7576C27.6124 25.6184 27.729 25.4549 27.818 25.2688C27.9443 25.0049 28.0706 24.5015 28.1224 24.0822C28.1612 23.7617 28.1499 23.5869 28.145 23.4784C28.1385 23.3052 27.9945 23.1255 27.8375 23.0494L26.8953 22.6269C26.8953 22.6269 25.487 22.0134 24.6274 21.6217C24.5368 21.5822 24.4397 21.5597 24.3409 21.5553C24.2302 21.5439 24.1183 21.5564 24.0127 21.5919C23.9072 21.6273 23.8105 21.6849 23.729 21.7609V21.7577C23.7209 21.7577 23.6125 21.8499 22.4421 23.268C22.3749 23.3582 22.2824 23.4264 22.1763 23.4639C22.0702 23.5014 21.9554 23.5064 21.8464 23.4784C21.7409 23.4502 21.6376 23.4145 21.5372 23.3716C21.3365 23.2874 21.2669 23.255 21.1293 23.1951L21.1212 23.1919C20.1951 22.7876 19.3377 22.2414 18.5797 21.5731C18.3758 21.3951 18.1864 21.2008 17.9921 21.013C17.3553 20.4031 16.8003 19.7132 16.341 18.9604L16.2455 18.8066C16.1769 18.7033 16.1214 18.5918 16.0804 18.4748C16.0189 18.2368 16.1791 18.0458 16.1791 18.0458C16.1791 18.0458 16.5725 17.6152 16.7554 17.3821C16.9077 17.1884 17.0498 16.9869 17.1811 16.7783C17.3721 16.4708 17.432 16.1551 17.3317 15.9107C16.8784 14.8034 16.409 13.7011 15.9266 12.6068C15.8311 12.3899 15.5478 12.2345 15.2904 12.2037C15.203 12.194 15.1156 12.1843 15.0282 12.1778C14.8108 12.167 14.5929 12.1692 14.3758 12.1843V12.1859Z" fill="white"/>
</svg>
