<svg width="39" height="38" viewBox="0 0 39 38" fill="none" xmlns="http://www.w3.org/2000/svg">
<path d="M24.7096 13.2543C23.5003 13.2502 22.3021 13.4845 21.1834 13.9439C20.0648 14.4034 19.0477 15.0789 18.1904 15.9318C17.3331 16.7847 16.6524 17.7983 16.1872 18.9145C15.7221 20.0308 15.4816 21.2278 15.4795 22.4371V31.7146C15.4795 32.0912 15.6291 32.4524 15.8954 32.7187C16.1617 32.985 16.5229 33.1346 16.8995 33.1346H20.2129C20.5895 33.1346 20.9507 32.985 21.217 32.7187C21.4833 32.4524 21.6329 32.0912 21.6329 31.7146V22.4371C21.6326 22.007 21.7229 21.5817 21.898 21.1888C22.0731 20.796 22.329 20.4444 22.6491 20.1571C22.9692 19.8698 23.3462 19.6532 23.7556 19.5213C24.165 19.3895 24.5976 19.3454 25.0252 19.392C25.792 19.4886 26.4967 19.8632 27.0057 20.4449C27.5146 21.0265 27.7924 21.7747 27.7863 22.5476V31.7146C27.7863 32.0912 27.9359 32.4524 28.2022 32.7187C28.4686 32.985 28.8297 33.1346 29.2064 33.1346H32.5197C32.8963 33.1346 33.2575 32.985 33.5238 32.7187C33.7901 32.4524 33.9398 32.0912 33.9398 31.7146V22.4371C33.9377 21.2278 33.6972 20.0308 33.232 18.9145C32.7668 17.7983 32.0861 16.7847 31.2288 15.9318C30.3715 15.0789 29.3544 14.4034 28.2358 13.9439C27.1172 13.4845 25.9189 13.2502 24.7096 13.2543Z" fill="white"/>
<path d="M11.2201 14.6742H6.96006C6.1758 14.6742 5.54004 15.31 5.54004 16.0942V31.7144C5.54004 32.4987 6.1758 33.1345 6.96006 33.1345H11.2201C12.0044 33.1345 12.6401 32.4987 12.6401 31.7144V16.0942C12.6401 15.31 12.0044 14.6742 11.2201 14.6742Z" fill="white"/>
<path d="M9.09009 11.8339C11.0507 11.8339 12.6401 10.2445 12.6401 8.28381C12.6401 6.32318 11.0507 4.73376 9.09009 4.73376C7.12945 4.73376 5.54004 6.32318 5.54004 8.28381C5.54004 10.2445 7.12945 11.8339 9.09009 11.8339Z" fill="white"/>
</svg>
