<svg width="32" height="32" viewBox="0 0 32 32" fill="none" xmlns="http://www.w3.org/2000/svg">
<path d="M31.8035 9.37985C31.7843 8.05961 31.5401 6.74984 31.0727 5.51507C30.2548 3.40653 28.5892 1.73923 26.4807 0.923021C25.2616 0.46434 23.9728 0.218431 22.6682 0.190527C20.9905 0.115533 20.4585 0.0946045 16.1996 0.0946045C11.9407 0.0946045 11.3948 0.0946046 9.72922 0.190527C8.42643 0.218431 7.13759 0.46434 5.91851 0.923021C3.80997 1.73923 2.14267 3.40653 1.32646 5.51507C0.867782 6.73415 0.620129 8.02299 0.595713 9.32578C0.520719 11.0053 0.498047 11.5372 0.498047 15.7962C0.498047 20.0551 0.498047 20.5992 0.595713 22.2665C0.621873 23.5711 0.867782 24.8582 1.32646 26.0807C2.14442 28.1875 3.80997 29.8548 5.92025 30.671C7.1341 31.1454 8.42294 31.414 9.73097 31.4558C11.4105 31.5308 11.9424 31.5535 16.2013 31.5535C20.4603 31.5535 21.0062 31.5535 22.6717 31.4558C23.9745 31.4297 25.2633 31.1838 26.4842 30.7251C28.5927 29.9071 30.2583 28.2398 31.0762 26.133C31.5349 24.9122 31.7808 23.6251 31.807 22.3188C31.882 20.6411 31.9046 20.1091 31.9046 15.8485C31.9011 11.5895 31.9011 11.0489 31.8035 9.37985ZM16.1891 23.8501C11.7349 23.8501 8.12646 20.2417 8.12646 15.7874C8.12646 11.3332 11.7349 7.72476 16.1891 7.72476C20.6399 7.72476 24.2518 11.3332 24.2518 15.7874C24.2518 20.2417 20.6399 23.8501 16.1891 23.8501ZM24.5727 9.3066C23.5315 9.3066 22.6926 8.46597 22.6926 7.42653C22.6926 6.38708 23.5315 5.54646 24.5727 5.54646C25.6104 5.54646 26.451 6.38708 26.451 7.42653C26.451 8.46597 25.6104 9.3066 24.5727 9.3066Z" fill="white"/>
<path d="M16.1924 21.0255C19.0849 21.0255 21.4298 18.6806 21.4298 15.7881C21.4298 12.8956 19.0849 10.5508 16.1924 10.5508C13.2999 10.5508 10.9551 12.8956 10.9551 15.7881C10.9551 18.6806 13.2999 21.0255 16.1924 21.0255Z" fill="white"/>
</svg>
