<svg width="81" height="81" viewBox="0 0 81 81" fill="none" xmlns="http://www.w3.org/2000/svg">
<circle cx="40.5" cy="40.5" r="40.5" fill="#7C993F"/>
<circle cx="40.5" cy="40.5" r="29.5" fill="#BAE264"/>
<path d="M34.2017 45.7911L53.4652 26.5347M34.7493 46.657L39.1173 55.3932C40.1729 57.5043 40.7006 58.5599 41.3656 58.843C41.9426 59.0887 42.6022 59.044 43.1411 58.7233C43.762 58.3536 44.1433 57.2366 44.9061 55.0029L53.1592 30.833C53.8239 28.8867 54.1561 27.9135 53.9287 27.2698C53.7307 26.7097 53.2903 26.2692 52.7303 26.0713C52.0865 25.8439 51.1134 26.1762 49.167 26.8408L24.997 35.094C22.7633 35.8567 21.6464 36.2381 21.2767 36.859C20.9559 37.3978 20.9114 38.0574 21.1571 38.6343C21.4401 39.2992 22.4957 39.8271 24.6069 40.8826L33.343 45.2508C33.6909 45.4247 33.8648 45.5116 34.0154 45.6277C34.1492 45.7309 34.2691 45.8508 34.3721 45.9845C34.4885 46.1352 34.5753 46.3092 34.7493 46.657Z" stroke="#212C0C" stroke-width="4" stroke-linecap="round" stroke-linejoin="round"/>
</svg>
