<svg xmlns="http://www.w3.org/2000/svg" xmlns:xlink="http://www.w3.org/1999/xlink" viewBox="0 0 901.64 240.84"><defs><style>.cls-1{fill:#171717;}.cls-2{fill:url(#linear-gradient);}.cls-3{fill:url(#linear-gradient-2);}.cls-4{fill:url(#linear-gradient-3);}.cls-5{fill:url(#linear-gradient-5);}</style><linearGradient id="linear-gradient" x1="43.97" y1="16.34" x2="132.9" y2="20.79" gradientUnits="userSpaceOnUse"><stop offset="0.27" stop-color="#ddda4c"/><stop offset="0.55" stop-color="#b6ce30"/><stop offset="0.84" stop-color="#92c318"/><stop offset="1" stop-color="#85bf0e"/></linearGradient><linearGradient id="linear-gradient-2" x1="16.39" y1="51.74" x2="154.05" y2="58.62" xlink:href="#linear-gradient"/><linearGradient id="linear-gradient-3" x1="39.54" y1="-208.78" x2="221.28" y2="-199.69" gradientTransform="translate(53.72 389.32) rotate(-23.71)" xlink:href="#linear-gradient"/><linearGradient id="linear-gradient-5" x1="19.53" y1="-207.06" x2="155.12" y2="-200.28" gradientTransform="translate(53.72 389.32) rotate(-23.71)" gradientUnits="userSpaceOnUse"><stop offset="0.14" stop-color="#ddda4c"/><stop offset="0.78" stop-color="#85bf0e"/></linearGradient></defs><g id="Layer_2" data-name="Layer 2"><g id="Layer_1-2" data-name="Layer 1"><path class="cls-1" d="M288.24,102.55c30,0,46.69,17.14,46.69,51.89,0,34.6-16.53,51.44-46.69,51.44H274.16c-30.16,0-46.69-16.84-46.69-51.44,0-34.75,16.68-51.89,46.69-51.89Zm-14.08,18.06c-19.9,0-28.63,10.1-28.63,33.83s8.57,33.38,28.63,33.38h14.08c19.9,0,28.48-9.8,28.48-33.53,0-23.58-8.58-33.68-28.48-33.68Z"/><path class="cls-1" d="M403.21,125.05c21.43,0,34.9,13.16,34.9,40.41s-13.47,40.42-34.9,40.42H367.38v32.45H351.16V159.65c0-23.27,10.25-34.6,29.7-34.6Zm-35.83,65.06h34.14c14.09,0,20.21-7.19,20.21-24.65s-6.12-24.8-20.21-24.8H385.6c-13.16,0-18.22,5.82-18.22,19.75Z"/><path class="cls-1" d="M456.63,125.05V105.91H473v19.14h22.35v15.61H473v38.28c0,9,3.21,12.09,10.87,12.09h11.17v14.85H480.51c-16.69,0-23.88-6.74-23.88-27.86V140.66h-11V125.05Z"/><path class="cls-1" d="M523.68,94.59v18.83H507.3V94.59Zm-.15,30.46v80.83H507.3V125.05Z"/><path class="cls-1" d="M615.84,125.05v15.61H575.73c-14.09,0-20.21,7.35-20.21,24.8s6.12,24.65,20.21,24.65h40.11v15.77H574.2c-21.59,0-35.06-13.17-35.06-40.42s13.47-40.41,35.06-40.41Z"/><path class="cls-1" d="M683,125.05c20.2,0,28.17,11.33,28.17,26.64v38c0,11.64-3.07,16.23-16.69,16.23H656.71c-19.14,0-27.1-9.34-27.1-24.65,0-14.69,7.35-23.27,27.25-23.27h38.42v-6.12c0-6.28-3.52-11.18-12.4-11.18H634.51V125.05ZM695.28,186V170.82H657.17c-8.58,0-11.64,3.52-11.64,9.49s3.22,9.8,11.33,9.8h34C694.06,190.11,695.28,188.89,695.28,186Z"/><path class="cls-1" d="M797.7,125.05v15.61H753c-7.51,0-10.57,3.07-10.57,9.19,0,5.66,2.45,8.73,11.48,8.73h19c22.35,0,28,10.25,28,22.81,0,14.39-7.5,24.49-26.48,24.49h-47V190.11h47c7.5,0,10.56-2.6,10.56-8.88s-3.37-9-11.48-9H754.37c-22.35,0-27.86-11.18-27.86-23.58,0-14.54,7.5-23.57,26.33-23.57Z"/><path class="cls-1" d="M832.44,90v35.06h28.48c27.25,0,40.72,13.16,40.72,35.36v45.47H885.26V160.41c0-12.4-7.5-19.75-24.34-19.75H832.44v65.22H816.22V90Z"/><path class="cls-2" d="M124.3,6.06A11.36,11.36,0,0,0,109,1.32L43,36.16l89.84-13.95Z"/><path class="cls-3" d="M152.26,62.87l-3.52-22.71a11.36,11.36,0,0,0-13-9.49l-.48.07L29.41,47.18l-3.74.58a11.36,11.36,0,0,0-9.49,13L19,79.14A100.31,100.31,0,0,1,69.5,51.25a100.66,100.66,0,0,1,84,19.32Z"/><path class="cls-4" d="M164.57,96.42a90.84,90.84,0,0,0-127-20.1,89.71,89.71,0,0,0-27,31.15c-.24.43-.47.87-.7,1.32a91,91,0,0,0,56,128.49c.54.16,1.07.31,1.61.45a91,91,0,0,0,60.05-4.51,92.31,92.31,0,0,0,17-9.76,90.94,90.94,0,0,0,20.09-127ZM134.7,139.84l-33.49,48.85L90.8,203.8s0,0,0,0c-4.75,5.69-14.34,1.27-13.7-6.76L80,160.57A8.88,8.88,0,0,0,76.63,153L47.81,130.42c-6.56-5.14-2.87-15.73,5.08-14.59l17.18,2.46.17,0,58.69,8.39A8.6,8.6,0,0,1,134.7,139.84Z"/><path class="cls-4" d="M164.57,96.42a90.84,90.84,0,0,0-127-20.1,89.71,89.71,0,0,0-27,31.15c-.24.43-.47.87-.7,1.32a91,91,0,0,0,56,128.49c.54.16,1.07.31,1.61.45a91,91,0,0,0,60.05-4.51,92.31,92.31,0,0,0,17-9.76,90.94,90.94,0,0,0,20.09-127ZM134.7,139.84l-33.49,48.85L90.8,203.8s0,0,0,0c-4.75,5.69-14.34,1.27-13.7-6.76L80,160.57A8.88,8.88,0,0,0,76.63,153L47.81,130.42c-6.56-5.14-2.87-15.73,5.08-14.59l17.18,2.46.17,0,58.69,8.39A8.6,8.6,0,0,1,134.7,139.84Z"/><path class="cls-5" d="M76.63,153A8.88,8.88,0,0,1,80,160.57l-2.88,36.5c-.64,8,9,12.45,13.7,6.76l-23.33,33.9c-.54-.14-1.07-.29-1.61-.45a91,91,0,0,1-56-128.49c.23-.45.46-.89.7-1.32l59.52,10.82-17.18-2.46c-8-1.14-11.64,9.45-5.08,14.59Z"/></g></g></svg>