<svg width="1130" height="459" viewBox="0 0 1130 459" fill="none" xmlns="http://www.w3.org/2000/svg">
<path d="M1129.52 4.34067C1122.9 16.9966 1115.95 29.7458 1108.57 42.2595L1094.09 38.4169C1101.26 25.9654 1108.26 13.2905 1114.81 0.740127L1129.46 4.26619L1129.52 4.34067ZM1085.79 79.7019C1077.79 92.1169 1069.4 104.551 1060.98 116.55L1046.87 112.075C1055.23 100.181 1063.56 87.8522 1071.5 75.5429L1085.79 79.7019ZM1034.12 152.804C1024.85 164.767 1015.03 176.706 1005.06 188.241L991.486 183.176C1001.4 171.746 1011.04 159.944 1020.19 148.012L1034.12 152.804ZM973.695 222.891C962.661 234.452 951.19 245.778 939.692 256.489L926.879 250.592C938.204 240.017 949.553 228.903 960.526 217.447L973.747 222.966L973.695 222.891ZM902.843 288.736C889.776 299.523 876.341 309.789 862.878 319.44L851.169 312.618C864.345 303.134 877.606 293.005 890.499 282.354L902.843 288.736ZM819.534 348.23C804.066 357.722 788.239 366.513 772.558 374.553L762.632 366.618C778.027 358.746 793.515 350.048 808.635 340.83L819.534 348.23ZM721.693 397.857C703.865 405.154 685.399 411.738 666.973 417.422L659.895 408.35C677.867 402.79 695.654 396.393 713.082 389.295L721.64 397.782L721.693 397.857ZM603.322 423.183L608.929 432.659C588.879 437.191 568.687 441.139 549.139 444.467L544.604 434.785C563.76 431.476 583.611 427.621 603.322 423.183ZM484.743 443.235L487.928 453.111C466.86 455.434 445.825 457.038 425.381 457.946L423.764 447.995C443.703 447.137 464.181 445.509 484.743 443.235ZM362.258 448.368L362.14 458.352C340.985 457.678 319.81 456.211 298.893 453.961L300.903 444.169C321.148 446.425 341.879 447.837 362.31 448.443L362.258 448.368ZM240.388 435.03L236.599 444.6C216.646 440.842 196.229 436.235 176.07 430.845L181.463 421.634C201.072 426.819 220.879 431.328 240.388 435.03ZM124.437 404.606L117.83 413.44C99.8229 407.46 81.3952 400.884 61.6744 393.242L69.1616 384.699C88.4984 392.18 106.595 398.669 124.384 404.532L124.437 404.606ZM15.5368 362.916L7.33437 371.211C-10.2682 363.698 -28.0283 355.962 -45.667 348.014L-37.2462 339.836C-19.66 347.71 -2.06575 355.403 15.5368 362.916ZM-89.5602 316.272L-98.0335 324.375C-115.288 316.589 -132.761 308.684 -150.348 300.811L-141.927 292.633C-124.227 300.476 -106.754 308.38 -89.4471 316.241L-89.5602 316.272ZM-195.215 269.604L-203.305 277.868C-222.225 269.828 -239.844 262.674 -257.034 255.936L-249.382 247.437C-232.025 254.218 -214.188 261.489 -195.102 269.572L-195.215 269.604ZM-305.016 226.828L-311.953 235.576C-330.826 228.944 -349.714 222.673 -368.296 217.028L-362.074 208.033C-343.274 213.795 -324.054 220.154 -305.016 226.828ZM-420.799 191.472L-426.027 200.727C-445.696 195.647 -465.495 190.958 -485.153 186.853L-480.92 177.338C-460.931 181.53 -440.853 186.231 -420.852 191.397L-420.799 191.472ZM-542.174 166.003L-545.352 175.672C-565.33 172.454 -585.882 169.572 -606.458 167.229L-604.335 157.405C-583.427 159.835 -562.483 162.699 -542.174 166.003ZM-667.237 151.588L-668.358 161.491C-688.696 160.06 -709.609 158.965 -730.433 158.378L-730.315 148.395C-709.046 149.037 -687.907 150.07 -667.237 151.588Z" fill="#C3FF43"/>
</svg>
