<?xml version="1.0" encoding="utf-8"?>
<!-- Generator: Adobe Illustrator 26.5.0, SVG Export Plug-In . SVG Version: 6.00 Build 0)  -->
<svg version="1.1" id="Layer_1" xmlns="http://www.w3.org/2000/svg" xmlns:xlink="http://www.w3.org/1999/xlink" x="0px" y="0px"
	 viewBox="0 0 705.1 933.2" style="enable-background:new 0 0 705.1 933.2;" xml:space="preserve">
<style type="text/css">
	.st0{fill:#FFFFFF;}
	.st1{fill:url(#SVGID_1_);}
	.st2{fill:url(#SVGID_00000127763720925743969200000014406084374152839329_);}
	.st3{fill:url(#SVGID_00000083792727148247794390000013995860298356306824_);}
	.st4{fill:url(#SVGID_00000128482602049729815570000012943798870152003731_);}
	.st5{fill:url(#SVGID_00000114048832315712358880000007701205153484231342_);}
</style>
<path class="st0" d="M340.6,370.7c-63.8,0-121.2,27.3-161.2,70.9c-35.7,38.9-57.5,90.8-57.5,147.8c0,120.3,97.2,218,217.3,218.7
	c0.5,0,0.9,0,1.4,0c120.8,0,218.7-97.9,218.7-218.7C559.3,468.6,461.4,370.7,340.6,370.7z M392.2,731.2l-40.3,58.5
	c0,0.1,0,0.1-0.1,0.1c-0.5,0.7-1.1,1.3-1.7,1.8c-1.1,1.1-2.3,2.2-3.6,3.1c0,0,0,0,0,0c-1.2,0.9-2.5,1.7-3.9,2.3c0,0,0,0,0,0
	c-11.4,5.6-25.4,2.2-34.5-7c-6.3-6.4-10.3-15.5-9.4-26.4l11.2-141.4c0.8-11.3-4-22.3-12.9-29.4l-111.6-87.5
	c-23.2-18.2-13.3-54,12-56.7c0.3,0,0.5-0.1,0.8-0.1c0.3,0,0.5,0,0.8-0.1c1.2-0.1,2.5,0,3.8,0c0.4,0,0.8,0.1,1.1,0.1
	c0.4,0,0.8,0.1,1.2,0.1l66.6,9.5l0.6,0.1L499.6,491c23.2,3.3,35.6,31.6,22.4,50.9L392.2,731.2z"/>
<g id="Layer_2_00000152951737997397520470000010988426129768477839_">
	<g id="Layer_1-2">
		
			<linearGradient id="SVGID_1_" gradientUnits="userSpaceOnUse" x1="186.7737" y1="832.3595" x2="500.3997" y2="816.6873" gradientTransform="matrix(1 0 0 -1 0 931.8898)">
			<stop  offset="0.27" style="stop-color:#DDDA4C"/>
			<stop  offset="0.55" style="stop-color:#B6CE30"/>
			<stop  offset="0.84" style="stop-color:#92C318"/>
			<stop  offset="1" style="stop-color:#85BF0E"/>
		</linearGradient>
		<path class="st1" d="M470.1,63.3c-10.3-19.6-34.5-27-54.1-16.7c0,0,0,0,0,0L183.3,169.4l316.9-49.2L470.1,63.3z"/>
		
			<linearGradient id="SVGID_00000038381417592320213590000003197460987591697843_" gradientUnits="userSpaceOnUse" x1="89.5078" y1="707.5179" x2="575.0114" y2="683.2446" gradientTransform="matrix(1 0 0 -1 0 931.8898)">
			<stop  offset="0.27" style="stop-color:#DDDA4C"/>
			<stop  offset="0.55" style="stop-color:#B6CE30"/>
			<stop  offset="0.84" style="stop-color:#92C318"/>
			<stop  offset="1" style="stop-color:#85BF0E"/>
		</linearGradient>
		<path style="fill:url(#SVGID_00000038381417592320213590000003197460987591697843_);" d="M568.7,263.6l-12.4-80.1
			c-3.4-21.9-23.8-36.8-45.7-33.5c0,0,0,0,0,0l-1.7,0.2l-373.5,58l-13.2,2c-21.9,3.4-36.8,23.8-33.5,45.7c0,0,0,0,0,0.1L98.8,321
			c48.4-49.5,110.3-83.7,178-98.4c103.9-22.8,212.6,2.2,296.1,68.1L568.7,263.6z"/>
		
			<linearGradient id="SVGID_00000001655844065523663470000017903199987942924177_" gradientUnits="userSpaceOnUse" x1="-1268.6079" y1="884.9511" x2="-627.7883" y2="852.9119" gradientTransform="matrix(0.9156 -0.4021 -0.4021 -0.9156 1570.1576 984.7755)">
			<stop  offset="0.27" style="stop-color:#DDDA4C"/>
			<stop  offset="0.55" style="stop-color:#B6CE30"/>
			<stop  offset="0.84" style="stop-color:#92C318"/>
			<stop  offset="1" style="stop-color:#85BF0E"/>
		</linearGradient>
		<path style="fill:url(#SVGID_00000001655844065523663470000017903199987942924177_);" d="M612.1,381.9
			C508.3,238.7,308,206.8,164.7,310.6c-0.2,0.2-0.4,0.3-0.6,0.5c-39.8,28.7-72.4,66.3-95.2,109.9c-0.8,1.5-1.7,3.1-2.5,4.7
			c-54.6,108-44.3,235.8,26.7,333.5c9.9,13.7,20.8,26.4,32.5,38.2c3.9,3.9,7.9,7.7,12,11.4c35.9,32.5,78.7,56.3,126.3,70
			c1.9,0.6,3.8,1.1,5.7,1.6h0c171.1,45.9,347-55.6,392.9-226.7C687.6,560.1,669,460.2,612.1,381.9z M506.8,535.1L388.6,707.4
			L352,760.6c0,0.1,0,0.1-0.1,0.1c-0.5,0.6-1,1.1-1.5,1.7c-1,1-2.1,2-3.3,2.8c0,0,0,0,0,0c-1.1,0.8-2.3,1.5-3.5,2.1c0,0,0,0,0,0
			c-10.4,5.1-23.1,2-31.4-6.4c-5.8-5.8-9.4-14.1-8.6-24l10.2-128.7c0.7-10.3-3.6-20.3-11.7-26.7l-101.6-79.6
			c-21.1-16.5-12.1-49.2,11-51.6c0.2,0,0.5-0.1,0.7-0.1c0.2,0,0.5,0,0.7-0.1c1.1-0.1,2.3,0,3.4,0c0.3,0,0.7,0.1,1,0.1
			c0.3,0,0.7,0.1,1.1,0.1l60.6,8.7l0.6,0.1l207,29.6C507.5,491.8,518.9,517.5,506.8,535.1z"/>
		
			<linearGradient id="SVGID_00000044869898376846372740000018287622750012338844_" gradientUnits="userSpaceOnUse" x1="-1268.6079" y1="884.9511" x2="-627.7883" y2="852.9119" gradientTransform="matrix(0.9156 -0.4021 -0.4021 -0.9156 1570.1576 984.7755)">
			<stop  offset="0.27" style="stop-color:#DDDA4C"/>
			<stop  offset="0.55" style="stop-color:#B6CE30"/>
			<stop  offset="0.84" style="stop-color:#92C318"/>
			<stop  offset="1" style="stop-color:#85BF0E"/>
		</linearGradient>
		<path style="fill:url(#SVGID_00000044869898376846372740000018287622750012338844_);" d="M612.1,381.9
			C508.3,238.7,308,206.8,164.7,310.6c-0.2,0.2-0.4,0.3-0.6,0.5c-39.8,28.7-72.4,66.3-95.2,109.9c-0.8,1.5-1.7,3.1-2.5,4.7
			c-54.6,108-44.3,235.8,26.7,333.5c9.9,13.7,20.8,26.4,32.5,38.2c3.9,3.9,7.9,7.7,12,11.4c35.9,32.5,78.7,56.3,126.3,70
			c1.9,0.6,3.8,1.1,5.7,1.6h0c171.1,45.9,347-55.6,392.9-226.7C687.6,560.1,669,460.2,612.1,381.9z M506.8,535.1L388.6,707.4
			L352,760.6c0,0.1,0,0.1-0.1,0.1c-0.5,0.6-1,1.1-1.5,1.7c-1,1-2.1,2-3.3,2.8c0,0,0,0,0,0c-1.1,0.8-2.3,1.5-3.5,2.1c0,0,0,0,0,0
			c-10.4,5.1-23.1,2-31.4-6.4c-5.8-5.8-9.4-14.1-8.6-24l10.2-128.7c0.7-10.3-3.6-20.3-11.7-26.7l-101.6-79.6
			c-21.1-16.5-12.1-49.2,11-51.6c0.2,0,0.5-0.1,0.7-0.1c0.2,0,0.5,0,0.7-0.1c1.1-0.1,2.3,0,3.4,0c0.3,0,0.7,0.1,1,0.1
			c0.3,0,0.7,0.1,1.1,0.1l60.6,8.7l0.6,0.1l207,29.6C507.5,491.8,518.9,517.5,506.8,535.1z"/>
		<path class="st0" d="M506.8,535.1L388.6,707.4L352,760.6c0,0.1,0,0.1-0.1,0.1c-0.5,0.6-1,1.1-1.5,1.7c-1,1-2.1,2-3.3,2.8
			c0,0,0,0,0,0c-1.1,0.8-2.3,1.5-3.5,2.1c0,0,0,0,0,0c-10.4,5.1-23.1,2-31.4-6.4c-5.8-5.8-9.4-14.1-8.6-24l10.2-128.7
			c0.7-10.3-3.6-20.3-11.7-26.7l-101.6-79.6c-21.1-16.5-12.1-49.1,10.9-51.6c0.2,0,0.5,0,0.7-0.1c0.2,0,0.5,0,0.7-0.1
			c1.1-0.1,2.3,0,3.4,0c0.3,0,0.7,0.1,1,0.1c0.3,0,0.7,0.1,1.1,0.1l60.6,8.7l0.6,0.1l207,29.6C507.5,491.8,518.9,517.5,506.8,535.1z
			"/>
		
			<linearGradient id="SVGID_00000142175352856906093770000007590505154060171672_" gradientUnits="userSpaceOnUse" x1="-39.0189" y1="661.0234" x2="470.5395" y2="635.5455">
			<stop  offset="0.14" style="stop-color:#DDDA4C"/>
			<stop  offset="0.78" style="stop-color:#85BF0E"/>
		</linearGradient>
		<path style="fill:url(#SVGID_00000142175352856906093770000007590505154060171672_);" d="M351.9,760.7l-11.4,16.6l-70.9,102.9h0v0
			c-1.9-0.5-3.8-1-5.7-1.6c-47.6-13.7-90.4-37.5-126.3-70c-4.1-3.7-8.1-7.5-12-11.4c-11.7-11.8-22.5-24.5-32.5-38.2
			c-71-97.7-81.3-225.6-26.7-333.5c0.8-1.6,1.6-3.1,2.5-4.7L195,443.8l83.9,15.2l-60.6-8.7h0c-0.4-0.1-0.7-0.1-1.1-0.1
			c-0.4,0-0.7-0.1-1-0.1c-1.2-0.1-2.3-0.1-3.4,0c-0.2,0-0.5,0-0.7,0.1c-0.2,0-0.5,0-0.7,0.1c-23.1,2.5-32,35.1-10.9,51.6L302,581.4
			c8.1,6.4,12.5,16.4,11.7,26.7l-10.2,128.7c-0.8,9.9,2.8,18.2,8.6,24c8.3,8.4,21,11.5,31.4,6.4c0,0,0,0,0,0
			c1.2-0.6,2.4-1.3,3.5-2.1c0,0,0,0,0,0c1.1-0.8,2.2-1.7,3.3-2.8C350.9,761.9,351.4,761.3,351.9,760.7z"/>
	</g>
</g>
</svg>
