<svg width="1391" height="17" viewBox="0 0 1391 17" fill="none" xmlns="http://www.w3.org/2000/svg">
<g opacity="0.3">
<rect x="13" width="1365" height="1.9999" fill="url(#paint0_linear_1579_6870)"/>
<path d="M13 4V2H15L13 4Z" fill="url(#paint1_linear_1579_6870)"/>
<path d="M1378 4V2H1376L1378 4Z" fill="url(#paint2_linear_1579_6870)"/>
</g>
<g opacity="0.3">
<rect x="5" y="8" width="1" height="5" fill="url(#paint3_linear_1579_6870)"/>
<path d="M6 9V8H7L6 9Z" fill="url(#paint4_linear_1579_6870)"/>
<path d="M5 13V12L4 13H5Z" fill="url(#paint5_linear_1579_6870)"/>
<path d="M9 8H5L7 6L9 8Z" fill="url(#paint6_linear_1579_6870)"/>
<path d="M12 3L8 7" stroke="url(#paint7_linear_1579_6870)" stroke-width="2.83"/>
<path d="M13 4L13 0L11 2L13 4Z" fill="url(#paint8_linear_1579_6870)"/>
<path d="M2 17H0L1 16L2 17Z" fill="url(#paint9_linear_1579_6870)"/>
<path d="M4.5 13.5L1.5 16.5" stroke="url(#paint10_linear_1579_6870)" stroke-width="1.41"/>
<path d="M6 13H4L5 14L6 13Z" fill="url(#paint11_linear_1579_6870)"/>
</g>
<g opacity="0.3">
<rect x="1385" y="8" width="1" height="5" fill="url(#paint12_linear_1579_6870)"/>
<path d="M1385 9V8H1384L1385 9Z" fill="url(#paint13_linear_1579_6870)"/>
<path d="M1386 13V12L1387 13H1386Z" fill="url(#paint14_linear_1579_6870)"/>
<path d="M1378 4L1378 0L1380 2L1378 4Z" fill="url(#paint15_linear_1579_6870)"/>
<path d="M1379 3L1383 7" stroke="url(#paint16_linear_1579_6870)" stroke-width="2.83"/>
<path d="M1386 8H1382L1384 6L1386 8Z" fill="url(#paint17_linear_1579_6870)"/>
<path d="M1387 13H1385L1386 14L1387 13Z" fill="url(#paint18_linear_1579_6870)"/>
<path d="M1386.5 13.5L1389.5 16.5" stroke="url(#paint19_linear_1579_6870)" stroke-width="1.41"/>
<path d="M1391 17H1389L1390 16L1391 17Z" fill="url(#paint20_linear_1579_6870)"/>
</g>
<path d="M16 5V4L15 5H16Z" fill="url(#paint21_linear_1579_6870)"/>
<rect x="16" y="4" width="1359" height="1" fill="url(#paint22_linear_1579_6870)"/>
<path d="M1375 5V4L1376 5H1375Z" fill="url(#paint23_linear_1579_6870)"/>
<defs>
<linearGradient id="paint0_linear_1579_6870" x1="695.5" y1="0" x2="695.5" y2="1.9999" gradientUnits="userSpaceOnUse">
<stop stop-color="#E1D64E"/>
<stop offset="1" stop-color="#C3FF43"/>
</linearGradient>
<linearGradient id="paint1_linear_1579_6870" x1="14" y1="2" x2="14" y2="4" gradientUnits="userSpaceOnUse">
<stop stop-color="#E1D64E"/>
<stop offset="1" stop-color="#C3FF43"/>
</linearGradient>
<linearGradient id="paint2_linear_1579_6870" x1="1377" y1="2" x2="1377" y2="4" gradientUnits="userSpaceOnUse">
<stop stop-color="#E1D64E"/>
<stop offset="1" stop-color="#C3FF43"/>
</linearGradient>
<linearGradient id="paint3_linear_1579_6870" x1="5.5" y1="8" x2="5.5" y2="13" gradientUnits="userSpaceOnUse">
<stop stop-color="#E1D64E"/>
<stop offset="1" stop-color="#C3FF43"/>
</linearGradient>
<linearGradient id="paint4_linear_1579_6870" x1="6.5" y1="8" x2="6.5" y2="9" gradientUnits="userSpaceOnUse">
<stop stop-color="#E1D64E"/>
<stop offset="1" stop-color="#C3FF43"/>
</linearGradient>
<linearGradient id="paint5_linear_1579_6870" x1="4.5" y1="12" x2="4.5" y2="13" gradientUnits="userSpaceOnUse">
<stop stop-color="#E1D64E"/>
<stop offset="1" stop-color="#C3FF43"/>
</linearGradient>
<linearGradient id="paint6_linear_1579_6870" x1="7" y1="8" x2="7" y2="6" gradientUnits="userSpaceOnUse">
<stop stop-color="#E1D64E"/>
<stop offset="1" stop-color="#C3FF43"/>
</linearGradient>
<linearGradient id="paint7_linear_1579_6870" x1="10" y1="3" x2="10" y2="7" gradientUnits="userSpaceOnUse">
<stop stop-color="#E1D64E"/>
<stop offset="1" stop-color="#C3FF43"/>
</linearGradient>
<linearGradient id="paint8_linear_1579_6870" x1="13" y1="2" x2="11" y2="2" gradientUnits="userSpaceOnUse">
<stop stop-color="#E1D64E"/>
<stop offset="1" stop-color="#C3FF43"/>
</linearGradient>
<linearGradient id="paint9_linear_1579_6870" x1="1" y1="17" x2="1" y2="16" gradientUnits="userSpaceOnUse">
<stop stop-color="#E1D64E"/>
<stop offset="1" stop-color="#C3FF43"/>
</linearGradient>
<linearGradient id="paint10_linear_1579_6870" x1="3" y1="13.5" x2="3" y2="16.5" gradientUnits="userSpaceOnUse">
<stop stop-color="#E1D64E"/>
<stop offset="1" stop-color="#C3FF43"/>
</linearGradient>
<linearGradient id="paint11_linear_1579_6870" x1="5" y1="13" x2="5" y2="14" gradientUnits="userSpaceOnUse">
<stop stop-color="#E1D64E"/>
<stop offset="1" stop-color="#C3FF43"/>
</linearGradient>
<linearGradient id="paint12_linear_1579_6870" x1="1385.5" y1="8" x2="1385.5" y2="13" gradientUnits="userSpaceOnUse">
<stop stop-color="#E1D64E"/>
<stop offset="1" stop-color="#C3FF43"/>
</linearGradient>
<linearGradient id="paint13_linear_1579_6870" x1="1384.5" y1="8" x2="1384.5" y2="9" gradientUnits="userSpaceOnUse">
<stop stop-color="#E1D64E"/>
<stop offset="1" stop-color="#C3FF43"/>
</linearGradient>
<linearGradient id="paint14_linear_1579_6870" x1="1386.5" y1="12" x2="1386.5" y2="13" gradientUnits="userSpaceOnUse">
<stop stop-color="#E1D64E"/>
<stop offset="1" stop-color="#C3FF43"/>
</linearGradient>
<linearGradient id="paint15_linear_1579_6870" x1="1378" y1="2" x2="1380" y2="2" gradientUnits="userSpaceOnUse">
<stop stop-color="#E1D64E"/>
<stop offset="1" stop-color="#C3FF43"/>
</linearGradient>
<linearGradient id="paint16_linear_1579_6870" x1="1381" y1="3" x2="1381" y2="7" gradientUnits="userSpaceOnUse">
<stop stop-color="#E1D64E"/>
<stop offset="1" stop-color="#C3FF43"/>
</linearGradient>
<linearGradient id="paint17_linear_1579_6870" x1="1384" y1="8" x2="1384" y2="6" gradientUnits="userSpaceOnUse">
<stop stop-color="#E1D64E"/>
<stop offset="1" stop-color="#C3FF43"/>
</linearGradient>
<linearGradient id="paint18_linear_1579_6870" x1="1386" y1="13" x2="1386" y2="14" gradientUnits="userSpaceOnUse">
<stop stop-color="#E1D64E"/>
<stop offset="1" stop-color="#C3FF43"/>
</linearGradient>
<linearGradient id="paint19_linear_1579_6870" x1="1388" y1="13.5" x2="1388" y2="16.5" gradientUnits="userSpaceOnUse">
<stop stop-color="#E1D64E"/>
<stop offset="1" stop-color="#C3FF43"/>
</linearGradient>
<linearGradient id="paint20_linear_1579_6870" x1="1390" y1="17" x2="1390" y2="16" gradientUnits="userSpaceOnUse">
<stop stop-color="#E1D64E"/>
<stop offset="1" stop-color="#C3FF43"/>
</linearGradient>
<linearGradient id="paint21_linear_1579_6870" x1="15.5" y1="4" x2="15.5" y2="5" gradientUnits="userSpaceOnUse">
<stop stop-color="#E1D64E"/>
<stop offset="1" stop-color="#C3FF43"/>
</linearGradient>
<linearGradient id="paint22_linear_1579_6870" x1="695.5" y1="4" x2="695.5" y2="5" gradientUnits="userSpaceOnUse">
<stop stop-color="#E1D64E"/>
<stop offset="1" stop-color="#C3FF43"/>
</linearGradient>
<linearGradient id="paint23_linear_1579_6870" x1="1375.5" y1="4" x2="1375.5" y2="5" gradientUnits="userSpaceOnUse">
<stop stop-color="#E1D64E"/>
<stop offset="1" stop-color="#C3FF43"/>
</linearGradient>
</defs>
</svg>
