<svg width="1391" height="17" viewBox="0 0 1391 17" fill="none" xmlns="http://www.w3.org/2000/svg">
<g opacity="0.3">
<rect width="1365" height="1.9999" transform="matrix(1 0 0 -1 13 17)" fill="url(#paint0_linear_1579_6886)"/>
<path d="M13 13V15H15L13 13Z" fill="url(#paint1_linear_1579_6886)"/>
<path d="M1378 13V15H1376L1378 13Z" fill="url(#paint2_linear_1579_6886)"/>
</g>
<g opacity="0.3">
<rect width="1" height="5" transform="matrix(1 0 0 -1 5 9)" fill="url(#paint3_linear_1579_6886)"/>
<path d="M6 8V9H7L6 8Z" fill="url(#paint4_linear_1579_6886)"/>
<path d="M5 4V5L4 4H5Z" fill="url(#paint5_linear_1579_6886)"/>
<path d="M9 9H5L7 11L9 9Z" fill="url(#paint6_linear_1579_6886)"/>
<path d="M12 14L8 10" stroke="url(#paint7_linear_1579_6886)" stroke-width="2.83"/>
<path d="M13 13L13 17L11 15L13 13Z" fill="url(#paint8_linear_1579_6886)"/>
<path d="M2 0H0L1 1L2 0Z" fill="url(#paint9_linear_1579_6886)"/>
<path d="M4.5 3.5L1.5 0.5" stroke="url(#paint10_linear_1579_6886)" stroke-width="1.41"/>
<path d="M6 4H4L5 3L6 4Z" fill="url(#paint11_linear_1579_6886)"/>
</g>
<g opacity="0.3">
<rect width="1" height="5" transform="matrix(1 0 0 -1 1385 9)" fill="url(#paint12_linear_1579_6886)"/>
<path d="M1385 8V9H1384L1385 8Z" fill="url(#paint13_linear_1579_6886)"/>
<path d="M1386 4V5L1387 4H1386Z" fill="url(#paint14_linear_1579_6886)"/>
<path d="M1378 13L1378 17L1380 15L1378 13Z" fill="url(#paint15_linear_1579_6886)"/>
<path d="M1379 14L1383 10" stroke="url(#paint16_linear_1579_6886)" stroke-width="2.83"/>
<path d="M1386 9H1382L1384 11L1386 9Z" fill="url(#paint17_linear_1579_6886)"/>
<path d="M1387 4H1385L1386 3L1387 4Z" fill="url(#paint18_linear_1579_6886)"/>
<path d="M1386.5 3.5L1389.5 0.5" stroke="url(#paint19_linear_1579_6886)" stroke-width="1.41"/>
<path d="M1391 0H1389L1390 1L1391 0Z" fill="url(#paint20_linear_1579_6886)"/>
</g>
<path d="M16 12V13L15 12H16Z" fill="url(#paint21_linear_1579_6886)"/>
<rect width="1359" height="1" transform="matrix(1 0 0 -1 16 13)" fill="url(#paint22_linear_1579_6886)"/>
<path d="M1375 12V13L1376 12H1375Z" fill="url(#paint23_linear_1579_6886)"/>
<defs>
<linearGradient id="paint0_linear_1579_6886" x1="682.5" y1="0" x2="682.5" y2="1.9999" gradientUnits="userSpaceOnUse">
<stop stop-color="#E1D64E"/>
<stop offset="1" stop-color="#C3FF43"/>
</linearGradient>
<linearGradient id="paint1_linear_1579_6886" x1="14" y1="15" x2="14" y2="13" gradientUnits="userSpaceOnUse">
<stop stop-color="#E1D64E"/>
<stop offset="1" stop-color="#C3FF43"/>
</linearGradient>
<linearGradient id="paint2_linear_1579_6886" x1="1377" y1="15" x2="1377" y2="13" gradientUnits="userSpaceOnUse">
<stop stop-color="#E1D64E"/>
<stop offset="1" stop-color="#C3FF43"/>
</linearGradient>
<linearGradient id="paint3_linear_1579_6886" x1="0.5" y1="0" x2="0.5" y2="5" gradientUnits="userSpaceOnUse">
<stop stop-color="#E1D64E"/>
<stop offset="1" stop-color="#C3FF43"/>
</linearGradient>
<linearGradient id="paint4_linear_1579_6886" x1="6.5" y1="9" x2="6.5" y2="8" gradientUnits="userSpaceOnUse">
<stop stop-color="#E1D64E"/>
<stop offset="1" stop-color="#C3FF43"/>
</linearGradient>
<linearGradient id="paint5_linear_1579_6886" x1="4.5" y1="5" x2="4.5" y2="4" gradientUnits="userSpaceOnUse">
<stop stop-color="#E1D64E"/>
<stop offset="1" stop-color="#C3FF43"/>
</linearGradient>
<linearGradient id="paint6_linear_1579_6886" x1="7" y1="9" x2="7" y2="11" gradientUnits="userSpaceOnUse">
<stop stop-color="#E1D64E"/>
<stop offset="1" stop-color="#C3FF43"/>
</linearGradient>
<linearGradient id="paint7_linear_1579_6886" x1="10" y1="14" x2="10" y2="10" gradientUnits="userSpaceOnUse">
<stop stop-color="#E1D64E"/>
<stop offset="1" stop-color="#C3FF43"/>
</linearGradient>
<linearGradient id="paint8_linear_1579_6886" x1="13" y1="15" x2="11" y2="15" gradientUnits="userSpaceOnUse">
<stop stop-color="#E1D64E"/>
<stop offset="1" stop-color="#C3FF43"/>
</linearGradient>
<linearGradient id="paint9_linear_1579_6886" x1="1" y1="0" x2="1" y2="1" gradientUnits="userSpaceOnUse">
<stop stop-color="#E1D64E"/>
<stop offset="1" stop-color="#C3FF43"/>
</linearGradient>
<linearGradient id="paint10_linear_1579_6886" x1="3" y1="3.5" x2="3" y2="0.5" gradientUnits="userSpaceOnUse">
<stop stop-color="#E1D64E"/>
<stop offset="1" stop-color="#C3FF43"/>
</linearGradient>
<linearGradient id="paint11_linear_1579_6886" x1="5" y1="4" x2="5" y2="3" gradientUnits="userSpaceOnUse">
<stop stop-color="#E1D64E"/>
<stop offset="1" stop-color="#C3FF43"/>
</linearGradient>
<linearGradient id="paint12_linear_1579_6886" x1="0.5" y1="0" x2="0.5" y2="5" gradientUnits="userSpaceOnUse">
<stop stop-color="#E1D64E"/>
<stop offset="1" stop-color="#C3FF43"/>
</linearGradient>
<linearGradient id="paint13_linear_1579_6886" x1="1384.5" y1="9" x2="1384.5" y2="8" gradientUnits="userSpaceOnUse">
<stop stop-color="#E1D64E"/>
<stop offset="1" stop-color="#C3FF43"/>
</linearGradient>
<linearGradient id="paint14_linear_1579_6886" x1="1386.5" y1="5" x2="1386.5" y2="4" gradientUnits="userSpaceOnUse">
<stop stop-color="#E1D64E"/>
<stop offset="1" stop-color="#C3FF43"/>
</linearGradient>
<linearGradient id="paint15_linear_1579_6886" x1="1378" y1="15" x2="1380" y2="15" gradientUnits="userSpaceOnUse">
<stop stop-color="#E1D64E"/>
<stop offset="1" stop-color="#C3FF43"/>
</linearGradient>
<linearGradient id="paint16_linear_1579_6886" x1="1381" y1="14" x2="1381" y2="10" gradientUnits="userSpaceOnUse">
<stop stop-color="#E1D64E"/>
<stop offset="1" stop-color="#C3FF43"/>
</linearGradient>
<linearGradient id="paint17_linear_1579_6886" x1="1384" y1="9" x2="1384" y2="11" gradientUnits="userSpaceOnUse">
<stop stop-color="#E1D64E"/>
<stop offset="1" stop-color="#C3FF43"/>
</linearGradient>
<linearGradient id="paint18_linear_1579_6886" x1="1386" y1="4" x2="1386" y2="3" gradientUnits="userSpaceOnUse">
<stop stop-color="#E1D64E"/>
<stop offset="1" stop-color="#C3FF43"/>
</linearGradient>
<linearGradient id="paint19_linear_1579_6886" x1="1388" y1="3.5" x2="1388" y2="0.5" gradientUnits="userSpaceOnUse">
<stop stop-color="#E1D64E"/>
<stop offset="1" stop-color="#C3FF43"/>
</linearGradient>
<linearGradient id="paint20_linear_1579_6886" x1="1390" y1="0" x2="1390" y2="1" gradientUnits="userSpaceOnUse">
<stop stop-color="#E1D64E"/>
<stop offset="1" stop-color="#C3FF43"/>
</linearGradient>
<linearGradient id="paint21_linear_1579_6886" x1="15.5" y1="13" x2="15.5" y2="12" gradientUnits="userSpaceOnUse">
<stop stop-color="#E1D64E"/>
<stop offset="1" stop-color="#C3FF43"/>
</linearGradient>
<linearGradient id="paint22_linear_1579_6886" x1="679.5" y1="0" x2="679.5" y2="1" gradientUnits="userSpaceOnUse">
<stop stop-color="#E1D64E"/>
<stop offset="1" stop-color="#C3FF43"/>
</linearGradient>
<linearGradient id="paint23_linear_1579_6886" x1="1375.5" y1="13" x2="1375.5" y2="12" gradientUnits="userSpaceOnUse">
<stop stop-color="#E1D64E"/>
<stop offset="1" stop-color="#C3FF43"/>
</linearGradient>
</defs>
</svg>
