<svg width="90" height="90" viewBox="0 0 90 90" fill="none" xmlns="http://www.w3.org/2000/svg">
<circle opacity="0.2" cx="45" cy="45" r="43.5" stroke="white" stroke-width="3"/>
<circle cx="45" cy="45" r="33" fill="url(#paint0_linear_1579_6852)"/>
<path d="M53.721 34.5602L46.3877 31.8135C45.6277 31.5335 44.3877 31.5335 43.6277 31.8135L36.2944 34.5602C34.881 35.0935 33.7344 36.7468 33.7344 38.2535V49.0535C33.7344 50.1335 34.441 51.5602 35.3077 52.2002L42.641 57.6802C43.9344 58.6535 46.0544 58.6535 47.3477 57.6802L54.681 52.2002C55.5477 51.5468 56.2544 50.1335 56.2544 49.0535V38.2535C56.2677 36.7468 55.121 35.0935 53.721 34.5602ZM46.001 46.1602V49.6668C46.001 50.2135 45.5477 50.6668 45.001 50.6668C44.4544 50.6668 44.001 50.2135 44.001 49.6668V46.1602C42.6544 45.7335 41.6677 44.4802 41.6677 43.0002C41.6677 41.1602 43.161 39.6668 45.001 39.6668C46.841 39.6668 48.3344 41.1602 48.3344 43.0002C48.3344 44.4935 47.3477 45.7335 46.001 46.1602Z" fill="black"/>
<defs>
<linearGradient id="paint0_linear_1579_6852" x1="62.6" y1="12" x2="4.68296" y2="23.1233" gradientUnits="userSpaceOnUse">
<stop stop-color="#C3FF43"/>
<stop offset="1" stop-color="#E4D14E"/>
</linearGradient>
</defs>
</svg>
