<svg width="32" height="288" viewBox="0 0 32 288" fill="none" xmlns="http://www.w3.org/2000/svg">
<path d="M6 17H0L3 14L6 17Z" fill="url(#paint0_linear_1579_7291)"/>
<path d="M15.5 4.5L4.5 15.5" stroke="url(#paint1_linear_1579_7291)" stroke-width="4.24"/>
<path d="M17 6L17 0L14 3L17 6Z" fill="url(#paint2_linear_1579_7291)"/>
<path d="M29 3V0H32L29 3Z" fill="url(#paint3_linear_1579_7291)"/>
<rect x="17" width="12" height="0.9999" fill="url(#paint4_linear_1579_7291)"/>
<path d="M17 2V1H18L17 2Z" fill="url(#paint5_linear_1579_7291)"/>
<path d="M29 2V1H28L29 2Z" fill="url(#paint6_linear_1579_7291)"/>
<rect y="17" width="1" height="12" fill="url(#paint7_linear_1579_7291)"/>
<path d="M1 18V17H2L1 18Z" fill="url(#paint8_linear_1579_7291)"/>
<path d="M1 29V28L2 29H1Z" fill="url(#paint9_linear_1579_7291)"/>
<path d="M0 32V29H3L0 32Z" fill="url(#paint10_linear_1579_7291)"/>
<g opacity="0.4">
<path d="M16 18H12L14 16L16 18Z" fill="url(#paint11_linear_1579_7291)"/>
<path d="M17 15L15 17" stroke="url(#paint12_linear_1579_7291)" stroke-width="2.83"/>
<path d="M18 16L18 12L16 14L18 16Z" fill="url(#paint13_linear_1579_7291)"/>
</g>
<path d="M19 23L19 25L20 24L19 23Z" fill="url(#paint14_linear_1579_7291)"/>
<path d="M23.5 19.5L19.5 23.5" stroke="url(#paint15_linear_1579_7291)" stroke-width="1.41"/>
<path d="M25 19H23L24 20L25 19Z" fill="url(#paint16_linear_1579_7291)"/>
<path d="M6 271H0L3 274L6 271Z" fill="url(#paint17_linear_1579_7291)"/>
<path d="M15.5 283.5L4.5 272.5" stroke="url(#paint18_linear_1579_7291)" stroke-width="4.24"/>
<path d="M17 282L17 288L14 285L17 282Z" fill="url(#paint19_linear_1579_7291)"/>
<path d="M29 285V288H32L29 285Z" fill="url(#paint20_linear_1579_7291)"/>
<rect width="12" height="0.9999" transform="matrix(1 0 0 -1 17 288)" fill="url(#paint21_linear_1579_7291)"/>
<path d="M17 286V287H18L17 286Z" fill="url(#paint22_linear_1579_7291)"/>
<path d="M29 286V287H28L29 286Z" fill="url(#paint23_linear_1579_7291)"/>
<rect width="1" height="12" transform="matrix(1 0 0 -1 0 271)" fill="url(#paint24_linear_1579_7291)"/>
<path d="M1 270V271H2L1 270Z" fill="url(#paint25_linear_1579_7291)"/>
<path d="M1 259V260L2 259H1Z" fill="url(#paint26_linear_1579_7291)"/>
<path d="M0 256V259H3L0 256Z" fill="url(#paint27_linear_1579_7291)"/>
<g opacity="0.4">
<path d="M16 270H12L14 272L16 270Z" fill="url(#paint28_linear_1579_7291)"/>
<path d="M17 273L15 271" stroke="url(#paint29_linear_1579_7291)" stroke-width="2.83"/>
<path d="M18 272L18 276L16 274L18 272Z" fill="url(#paint30_linear_1579_7291)"/>
</g>
<path d="M19 265L19 263L20 264L19 265Z" fill="url(#paint31_linear_1579_7291)"/>
<path d="M23.5 268.5L19.5 264.5" stroke="url(#paint32_linear_1579_7291)" stroke-width="1.41"/>
<path d="M25 269H23L24 268L25 269Z" fill="url(#paint33_linear_1579_7291)"/>
<g opacity="0.3">
<rect y="250" width="212" height="1.9999" transform="rotate(-90 0 250)" fill="url(#paint34_linear_1579_7291)"/>
<path d="M4 250L2 250L2 248L4 250Z" fill="url(#paint35_linear_1579_7291)"/>
<path d="M4 38L2 38L2 40L4 38Z" fill="url(#paint36_linear_1579_7291)"/>
</g>
<g opacity="0.3">
<rect x="8" y="258" width="1" height="5" transform="rotate(-90 8 258)" fill="url(#paint37_linear_1579_7291)"/>
<path d="M9 257L8 257L8 256L9 257Z" fill="url(#paint38_linear_1579_7291)"/>
<path d="M13 258L12 258L13 259L13 258Z" fill="url(#paint39_linear_1579_7291)"/>
<path d="M8 254L8 258L6 256L8 254Z" fill="url(#paint40_linear_1579_7291)"/>
<path d="M3 250.999L7 254.999" stroke="url(#paint41_linear_1579_7291)" stroke-width="2.83"/>
<path d="M4 250L0 250L2 252L4 250Z" fill="url(#paint42_linear_1579_7291)"/>
<path d="M17 261L17 263L16 262L17 261Z" fill="url(#paint43_linear_1579_7291)"/>
<path d="M13.5 258.499L16.5 261.499" stroke="url(#paint44_linear_1579_7291)" stroke-width="1.41"/>
<path d="M13 257L13 259L14 258L13 257Z" fill="url(#paint45_linear_1579_7291)"/>
</g>
<g opacity="0.3">
<rect x="8" y="31" width="1" height="5" transform="rotate(-90 8 31)" fill="url(#paint46_linear_1579_7291)"/>
<path d="M9 31L8 31L8 32L9 31Z" fill="url(#paint47_linear_1579_7291)"/>
<path d="M13 30L12 30L13 29L13 30Z" fill="url(#paint48_linear_1579_7291)"/>
<path d="M4 38L0 38L2 36L4 38Z" fill="url(#paint49_linear_1579_7291)"/>
<path d="M3 37L7 33" stroke="url(#paint50_linear_1579_7291)" stroke-width="2.83"/>
<path d="M8 30.001L8 34.001L6 32.001L8 30.001Z" fill="url(#paint51_linear_1579_7291)"/>
<path d="M13 29L13 31L14 30L13 29Z" fill="url(#paint52_linear_1579_7291)"/>
<path d="M13.5 29.499L16.5 26.499" stroke="url(#paint53_linear_1579_7291)" stroke-width="1.41"/>
<path d="M17 25L17 27L16 26L17 25Z" fill="url(#paint54_linear_1579_7291)"/>
</g>
<path d="M5 247L4 247L5 248L5 247Z" fill="url(#paint55_linear_1579_7291)"/>
<rect x="4" y="247" width="206" height="1" transform="rotate(-90 4 247)" fill="url(#paint56_linear_1579_7291)"/>
<path d="M5 41L4 41L5 40L5 41Z" fill="url(#paint57_linear_1579_7291)"/>
<defs>
<linearGradient id="paint0_linear_1579_7291" x1="3" y1="17" x2="3" y2="14" gradientUnits="userSpaceOnUse">
<stop stop-color="#E1D64E"/>
<stop offset="1" stop-color="#C3FF43"/>
</linearGradient>
<linearGradient id="paint1_linear_1579_7291" x1="10" y1="4.5" x2="10" y2="15.5" gradientUnits="userSpaceOnUse">
<stop stop-color="#E1D64E"/>
<stop offset="1" stop-color="#C3FF43"/>
</linearGradient>
<linearGradient id="paint2_linear_1579_7291" x1="17" y1="3" x2="14" y2="3" gradientUnits="userSpaceOnUse">
<stop stop-color="#E1D64E"/>
<stop offset="1" stop-color="#C3FF43"/>
</linearGradient>
<linearGradient id="paint3_linear_1579_7291" x1="30.5" y1="0" x2="30.5" y2="3" gradientUnits="userSpaceOnUse">
<stop stop-color="#E1D64E"/>
<stop offset="1" stop-color="#C3FF43"/>
</linearGradient>
<linearGradient id="paint4_linear_1579_7291" x1="23" y1="0" x2="23" y2="0.9999" gradientUnits="userSpaceOnUse">
<stop stop-color="#E1D64E"/>
<stop offset="1" stop-color="#C3FF43"/>
</linearGradient>
<linearGradient id="paint5_linear_1579_7291" x1="17.5" y1="1" x2="17.5" y2="2" gradientUnits="userSpaceOnUse">
<stop stop-color="#E1D64E"/>
<stop offset="1" stop-color="#C3FF43"/>
</linearGradient>
<linearGradient id="paint6_linear_1579_7291" x1="28.5" y1="1" x2="28.5" y2="2" gradientUnits="userSpaceOnUse">
<stop stop-color="#E1D64E"/>
<stop offset="1" stop-color="#C3FF43"/>
</linearGradient>
<linearGradient id="paint7_linear_1579_7291" x1="0.5" y1="17" x2="0.5" y2="29" gradientUnits="userSpaceOnUse">
<stop stop-color="#E1D64E"/>
<stop offset="1" stop-color="#C3FF43"/>
</linearGradient>
<linearGradient id="paint8_linear_1579_7291" x1="1.5" y1="17" x2="1.5" y2="18" gradientUnits="userSpaceOnUse">
<stop stop-color="#E1D64E"/>
<stop offset="1" stop-color="#C3FF43"/>
</linearGradient>
<linearGradient id="paint9_linear_1579_7291" x1="1.5" y1="28" x2="1.5" y2="29" gradientUnits="userSpaceOnUse">
<stop stop-color="#E1D64E"/>
<stop offset="1" stop-color="#C3FF43"/>
</linearGradient>
<linearGradient id="paint10_linear_1579_7291" x1="1.5" y1="29" x2="1.5" y2="32" gradientUnits="userSpaceOnUse">
<stop stop-color="#E1D64E"/>
<stop offset="1" stop-color="#C3FF43"/>
</linearGradient>
<linearGradient id="paint11_linear_1579_7291" x1="14" y1="18" x2="14" y2="16" gradientUnits="userSpaceOnUse">
<stop stop-color="#E1D64E"/>
<stop offset="1" stop-color="#C3FF43"/>
</linearGradient>
<linearGradient id="paint12_linear_1579_7291" x1="16" y1="15" x2="16" y2="17" gradientUnits="userSpaceOnUse">
<stop stop-color="#E1D64E"/>
<stop offset="1" stop-color="#C3FF43"/>
</linearGradient>
<linearGradient id="paint13_linear_1579_7291" x1="18" y1="14" x2="16" y2="14" gradientUnits="userSpaceOnUse">
<stop stop-color="#E1D64E"/>
<stop offset="1" stop-color="#C3FF43"/>
</linearGradient>
<linearGradient id="paint14_linear_1579_7291" x1="19" y1="24" x2="20" y2="24" gradientUnits="userSpaceOnUse">
<stop stop-color="#E1D64E"/>
<stop offset="1" stop-color="#C3FF43"/>
</linearGradient>
<linearGradient id="paint15_linear_1579_7291" x1="21.5" y1="19.5" x2="21.5" y2="23.5" gradientUnits="userSpaceOnUse">
<stop stop-color="#E1D64E"/>
<stop offset="1" stop-color="#C3FF43"/>
</linearGradient>
<linearGradient id="paint16_linear_1579_7291" x1="24" y1="19" x2="24" y2="20" gradientUnits="userSpaceOnUse">
<stop stop-color="#E1D64E"/>
<stop offset="1" stop-color="#C3FF43"/>
</linearGradient>
<linearGradient id="paint17_linear_1579_7291" x1="3" y1="271" x2="3" y2="274" gradientUnits="userSpaceOnUse">
<stop stop-color="#E1D64E"/>
<stop offset="1" stop-color="#C3FF43"/>
</linearGradient>
<linearGradient id="paint18_linear_1579_7291" x1="10" y1="283.5" x2="10" y2="272.5" gradientUnits="userSpaceOnUse">
<stop stop-color="#E1D64E"/>
<stop offset="1" stop-color="#C3FF43"/>
</linearGradient>
<linearGradient id="paint19_linear_1579_7291" x1="17" y1="285" x2="14" y2="285" gradientUnits="userSpaceOnUse">
<stop stop-color="#E1D64E"/>
<stop offset="1" stop-color="#C3FF43"/>
</linearGradient>
<linearGradient id="paint20_linear_1579_7291" x1="30.5" y1="288" x2="30.5" y2="285" gradientUnits="userSpaceOnUse">
<stop stop-color="#E1D64E"/>
<stop offset="1" stop-color="#C3FF43"/>
</linearGradient>
<linearGradient id="paint21_linear_1579_7291" x1="6" y1="0" x2="6" y2="0.9999" gradientUnits="userSpaceOnUse">
<stop stop-color="#E1D64E"/>
<stop offset="1" stop-color="#C3FF43"/>
</linearGradient>
<linearGradient id="paint22_linear_1579_7291" x1="17.5" y1="287" x2="17.5" y2="286" gradientUnits="userSpaceOnUse">
<stop stop-color="#E1D64E"/>
<stop offset="1" stop-color="#C3FF43"/>
</linearGradient>
<linearGradient id="paint23_linear_1579_7291" x1="28.5" y1="287" x2="28.5" y2="286" gradientUnits="userSpaceOnUse">
<stop stop-color="#E1D64E"/>
<stop offset="1" stop-color="#C3FF43"/>
</linearGradient>
<linearGradient id="paint24_linear_1579_7291" x1="0.5" y1="0" x2="0.5" y2="12" gradientUnits="userSpaceOnUse">
<stop stop-color="#E1D64E"/>
<stop offset="1" stop-color="#C3FF43"/>
</linearGradient>
<linearGradient id="paint25_linear_1579_7291" x1="1.5" y1="271" x2="1.5" y2="270" gradientUnits="userSpaceOnUse">
<stop stop-color="#E1D64E"/>
<stop offset="1" stop-color="#C3FF43"/>
</linearGradient>
<linearGradient id="paint26_linear_1579_7291" x1="1.5" y1="260" x2="1.5" y2="259" gradientUnits="userSpaceOnUse">
<stop stop-color="#E1D64E"/>
<stop offset="1" stop-color="#C3FF43"/>
</linearGradient>
<linearGradient id="paint27_linear_1579_7291" x1="1.5" y1="259" x2="1.5" y2="256" gradientUnits="userSpaceOnUse">
<stop stop-color="#E1D64E"/>
<stop offset="1" stop-color="#C3FF43"/>
</linearGradient>
<linearGradient id="paint28_linear_1579_7291" x1="14" y1="270" x2="14" y2="272" gradientUnits="userSpaceOnUse">
<stop stop-color="#E1D64E"/>
<stop offset="1" stop-color="#C3FF43"/>
</linearGradient>
<linearGradient id="paint29_linear_1579_7291" x1="16" y1="273" x2="16" y2="271" gradientUnits="userSpaceOnUse">
<stop stop-color="#E1D64E"/>
<stop offset="1" stop-color="#C3FF43"/>
</linearGradient>
<linearGradient id="paint30_linear_1579_7291" x1="18" y1="274" x2="16" y2="274" gradientUnits="userSpaceOnUse">
<stop stop-color="#E1D64E"/>
<stop offset="1" stop-color="#C3FF43"/>
</linearGradient>
<linearGradient id="paint31_linear_1579_7291" x1="19" y1="264" x2="20" y2="264" gradientUnits="userSpaceOnUse">
<stop stop-color="#E1D64E"/>
<stop offset="1" stop-color="#C3FF43"/>
</linearGradient>
<linearGradient id="paint32_linear_1579_7291" x1="21.5" y1="268.5" x2="21.5" y2="264.5" gradientUnits="userSpaceOnUse">
<stop stop-color="#E1D64E"/>
<stop offset="1" stop-color="#C3FF43"/>
</linearGradient>
<linearGradient id="paint33_linear_1579_7291" x1="24" y1="269" x2="24" y2="268" gradientUnits="userSpaceOnUse">
<stop stop-color="#E1D64E"/>
<stop offset="1" stop-color="#C3FF43"/>
</linearGradient>
<linearGradient id="paint34_linear_1579_7291" x1="106" y1="250" x2="106" y2="252" gradientUnits="userSpaceOnUse">
<stop stop-color="#E1D64E"/>
<stop offset="1" stop-color="#C3FF43"/>
</linearGradient>
<linearGradient id="paint35_linear_1579_7291" x1="2" y1="249" x2="4" y2="249" gradientUnits="userSpaceOnUse">
<stop stop-color="#E1D64E"/>
<stop offset="1" stop-color="#C3FF43"/>
</linearGradient>
<linearGradient id="paint36_linear_1579_7291" x1="2" y1="39" x2="4" y2="39" gradientUnits="userSpaceOnUse">
<stop stop-color="#E1D64E"/>
<stop offset="1" stop-color="#C3FF43"/>
</linearGradient>
<linearGradient id="paint37_linear_1579_7291" x1="8.5" y1="258" x2="8.5" y2="263" gradientUnits="userSpaceOnUse">
<stop stop-color="#E1D64E"/>
<stop offset="1" stop-color="#C3FF43"/>
</linearGradient>
<linearGradient id="paint38_linear_1579_7291" x1="8" y1="256.5" x2="9" y2="256.5" gradientUnits="userSpaceOnUse">
<stop stop-color="#E1D64E"/>
<stop offset="1" stop-color="#C3FF43"/>
</linearGradient>
<linearGradient id="paint39_linear_1579_7291" x1="12" y1="258.5" x2="13" y2="258.5" gradientUnits="userSpaceOnUse">
<stop stop-color="#E1D64E"/>
<stop offset="1" stop-color="#C3FF43"/>
</linearGradient>
<linearGradient id="paint40_linear_1579_7291" x1="8" y1="256" x2="6" y2="256" gradientUnits="userSpaceOnUse">
<stop stop-color="#E1D64E"/>
<stop offset="1" stop-color="#C3FF43"/>
</linearGradient>
<linearGradient id="paint41_linear_1579_7291" x1="3" y1="252.999" x2="7" y2="252.999" gradientUnits="userSpaceOnUse">
<stop stop-color="#E1D64E"/>
<stop offset="1" stop-color="#C3FF43"/>
</linearGradient>
<linearGradient id="paint42_linear_1579_7291" x1="2" y1="250" x2="2" y2="252" gradientUnits="userSpaceOnUse">
<stop stop-color="#E1D64E"/>
<stop offset="1" stop-color="#C3FF43"/>
</linearGradient>
<linearGradient id="paint43_linear_1579_7291" x1="17" y1="262" x2="16" y2="262" gradientUnits="userSpaceOnUse">
<stop stop-color="#E1D64E"/>
<stop offset="1" stop-color="#C3FF43"/>
</linearGradient>
<linearGradient id="paint44_linear_1579_7291" x1="13.5" y1="259.999" x2="16.5" y2="259.999" gradientUnits="userSpaceOnUse">
<stop stop-color="#E1D64E"/>
<stop offset="1" stop-color="#C3FF43"/>
</linearGradient>
<linearGradient id="paint45_linear_1579_7291" x1="13" y1="258" x2="14" y2="258" gradientUnits="userSpaceOnUse">
<stop stop-color="#E1D64E"/>
<stop offset="1" stop-color="#C3FF43"/>
</linearGradient>
<linearGradient id="paint46_linear_1579_7291" x1="8.5" y1="31" x2="8.5" y2="36" gradientUnits="userSpaceOnUse">
<stop stop-color="#E1D64E"/>
<stop offset="1" stop-color="#C3FF43"/>
</linearGradient>
<linearGradient id="paint47_linear_1579_7291" x1="8" y1="31.5" x2="9" y2="31.5" gradientUnits="userSpaceOnUse">
<stop stop-color="#E1D64E"/>
<stop offset="1" stop-color="#C3FF43"/>
</linearGradient>
<linearGradient id="paint48_linear_1579_7291" x1="12" y1="29.5" x2="13" y2="29.5" gradientUnits="userSpaceOnUse">
<stop stop-color="#E1D64E"/>
<stop offset="1" stop-color="#C3FF43"/>
</linearGradient>
<linearGradient id="paint49_linear_1579_7291" x1="2" y1="38" x2="2" y2="36" gradientUnits="userSpaceOnUse">
<stop stop-color="#E1D64E"/>
<stop offset="1" stop-color="#C3FF43"/>
</linearGradient>
<linearGradient id="paint50_linear_1579_7291" x1="3" y1="35" x2="7" y2="35" gradientUnits="userSpaceOnUse">
<stop stop-color="#E1D64E"/>
<stop offset="1" stop-color="#C3FF43"/>
</linearGradient>
<linearGradient id="paint51_linear_1579_7291" x1="8" y1="32.001" x2="6" y2="32.001" gradientUnits="userSpaceOnUse">
<stop stop-color="#E1D64E"/>
<stop offset="1" stop-color="#C3FF43"/>
</linearGradient>
<linearGradient id="paint52_linear_1579_7291" x1="13" y1="30" x2="14" y2="30" gradientUnits="userSpaceOnUse">
<stop stop-color="#E1D64E"/>
<stop offset="1" stop-color="#C3FF43"/>
</linearGradient>
<linearGradient id="paint53_linear_1579_7291" x1="13.5" y1="27.999" x2="16.5" y2="27.999" gradientUnits="userSpaceOnUse">
<stop stop-color="#E1D64E"/>
<stop offset="1" stop-color="#C3FF43"/>
</linearGradient>
<linearGradient id="paint54_linear_1579_7291" x1="17" y1="26" x2="16" y2="26" gradientUnits="userSpaceOnUse">
<stop stop-color="#E1D64E"/>
<stop offset="1" stop-color="#C3FF43"/>
</linearGradient>
<linearGradient id="paint55_linear_1579_7291" x1="4" y1="247.5" x2="5" y2="247.5" gradientUnits="userSpaceOnUse">
<stop stop-color="#E1D64E"/>
<stop offset="1" stop-color="#C3FF43"/>
</linearGradient>
<linearGradient id="paint56_linear_1579_7291" x1="107" y1="247" x2="107" y2="248" gradientUnits="userSpaceOnUse">
<stop stop-color="#E1D64E"/>
<stop offset="1" stop-color="#C3FF43"/>
</linearGradient>
<linearGradient id="paint57_linear_1579_7291" x1="4" y1="40.5" x2="5" y2="40.5" gradientUnits="userSpaceOnUse">
<stop stop-color="#E1D64E"/>
<stop offset="1" stop-color="#C3FF43"/>
</linearGradient>
</defs>
</svg>
