<svg width="32" height="288" viewBox="0 0 32 288" fill="none" xmlns="http://www.w3.org/2000/svg">
<path d="M26 17H32L29 14L26 17Z" fill="url(#paint0_linear_1579_7290)"/>
<path d="M16.5 4.5L27.5 15.5" stroke="url(#paint1_linear_1579_7290)" stroke-width="4.24"/>
<path d="M15 6L15 0L18 3L15 6Z" fill="url(#paint2_linear_1579_7290)"/>
<path d="M3 3V0H0L3 3Z" fill="url(#paint3_linear_1579_7290)"/>
<rect width="12" height="0.9999" transform="matrix(-1 0 0 1 15 0)" fill="url(#paint4_linear_1579_7290)"/>
<path d="M15 2V1H14L15 2Z" fill="url(#paint5_linear_1579_7290)"/>
<path d="M3 2V1H4L3 2Z" fill="url(#paint6_linear_1579_7290)"/>
<rect width="1" height="12" transform="matrix(-1 0 0 1 32 17)" fill="url(#paint7_linear_1579_7290)"/>
<path d="M31 18V17H30L31 18Z" fill="url(#paint8_linear_1579_7290)"/>
<path d="M31 29V28L30 29H31Z" fill="url(#paint9_linear_1579_7290)"/>
<path d="M32 32V29H29L32 32Z" fill="url(#paint10_linear_1579_7290)"/>
<g opacity="0.4">
<path d="M16 18H20L18 16L16 18Z" fill="url(#paint11_linear_1579_7290)"/>
<path d="M15 15L17 17" stroke="url(#paint12_linear_1579_7290)" stroke-width="2.83"/>
<path d="M14 16L14 12L16 14L14 16Z" fill="url(#paint13_linear_1579_7290)"/>
</g>
<path d="M13 23L13 25L12 24L13 23Z" fill="url(#paint14_linear_1579_7290)"/>
<path d="M8.5 19.5L12.5 23.5" stroke="url(#paint15_linear_1579_7290)" stroke-width="1.41"/>
<path d="M7 19H9L8 20L7 19Z" fill="url(#paint16_linear_1579_7290)"/>
<path d="M26 271H32L29 274L26 271Z" fill="url(#paint17_linear_1579_7290)"/>
<path d="M16.5 283.5L27.5 272.5" stroke="url(#paint18_linear_1579_7290)" stroke-width="4.24"/>
<path d="M15 282L15 288L18 285L15 282Z" fill="url(#paint19_linear_1579_7290)"/>
<path d="M3 285V288H0L3 285Z" fill="url(#paint20_linear_1579_7290)"/>
<rect x="15" y="288" width="12" height="0.9999" transform="rotate(180 15 288)" fill="url(#paint21_linear_1579_7290)"/>
<path d="M15 286V287H14L15 286Z" fill="url(#paint22_linear_1579_7290)"/>
<path d="M3 286V287H4L3 286Z" fill="url(#paint23_linear_1579_7290)"/>
<rect x="32" y="271" width="1" height="12" transform="rotate(180 32 271)" fill="url(#paint24_linear_1579_7290)"/>
<path d="M31 270V271H30L31 270Z" fill="url(#paint25_linear_1579_7290)"/>
<path d="M31 259V260L30 259H31Z" fill="url(#paint26_linear_1579_7290)"/>
<path d="M32 256V259H29L32 256Z" fill="url(#paint27_linear_1579_7290)"/>
<g opacity="0.4">
<path d="M16 270H20L18 272L16 270Z" fill="url(#paint28_linear_1579_7290)"/>
<path d="M15 273L17 271" stroke="url(#paint29_linear_1579_7290)" stroke-width="2.83"/>
<path d="M14 272L14 276L16 274L14 272Z" fill="url(#paint30_linear_1579_7290)"/>
</g>
<path d="M13 265L13 263L12 264L13 265Z" fill="url(#paint31_linear_1579_7290)"/>
<path d="M8.5 268.5L12.5 264.5" stroke="url(#paint32_linear_1579_7290)" stroke-width="1.41"/>
<path d="M7 269H9L8 268L7 269Z" fill="url(#paint33_linear_1579_7290)"/>
<g opacity="0.3">
<rect x="32" y="38" width="212" height="1.9999" transform="rotate(90 32 38)" fill="url(#paint34_linear_1579_7290)"/>
<path d="M28 38L30 38L30 40L28 38Z" fill="url(#paint35_linear_1579_7290)"/>
<path d="M28 250L30 250L30 248L28 250Z" fill="url(#paint36_linear_1579_7290)"/>
</g>
<g opacity="0.3">
<rect x="24" y="30" width="1" height="5" transform="rotate(90 24 30)" fill="url(#paint37_linear_1579_7290)"/>
<path d="M23 31L24 31L24 32L23 31Z" fill="url(#paint38_linear_1579_7290)"/>
<path d="M19 30L20 30L19 29L19 30Z" fill="url(#paint39_linear_1579_7290)"/>
<path d="M24 34L24 30L26 32L24 34Z" fill="url(#paint40_linear_1579_7290)"/>
<path d="M29 37.001L25 33.001" stroke="url(#paint41_linear_1579_7290)" stroke-width="2.83"/>
<path d="M28 38L32 38L30 36L28 38Z" fill="url(#paint42_linear_1579_7290)"/>
<path d="M15 27L15 25L16 26L15 27Z" fill="url(#paint43_linear_1579_7290)"/>
<path d="M18.5 29.501L15.5 26.501" stroke="url(#paint44_linear_1579_7290)" stroke-width="1.41"/>
<path d="M19 31L19 29L18 30L19 31Z" fill="url(#paint45_linear_1579_7290)"/>
</g>
<g opacity="0.3">
<rect x="24" y="257" width="1" height="5" transform="rotate(90 24 257)" fill="url(#paint46_linear_1579_7290)"/>
<path d="M23 257L24 257L24 256L23 257Z" fill="url(#paint47_linear_1579_7290)"/>
<path d="M19 258L20 258L19 259L19 258Z" fill="url(#paint48_linear_1579_7290)"/>
<path d="M28 250L32 250L30 252L28 250Z" fill="url(#paint49_linear_1579_7290)"/>
<path d="M29 251L25 255" stroke="url(#paint50_linear_1579_7290)" stroke-width="2.83"/>
<path d="M24 257.999L24 253.999L26 255.999L24 257.999Z" fill="url(#paint51_linear_1579_7290)"/>
<path d="M19 259L19 257L18 258L19 259Z" fill="url(#paint52_linear_1579_7290)"/>
<path d="M18.5 258.501L15.5 261.501" stroke="url(#paint53_linear_1579_7290)" stroke-width="1.41"/>
<path d="M15 263L15 261L16 262L15 263Z" fill="url(#paint54_linear_1579_7290)"/>
</g>
<path d="M27 41L28 41L27 40L27 41Z" fill="url(#paint55_linear_1579_7290)"/>
<rect x="28" y="41" width="206" height="1" transform="rotate(90 28 41)" fill="url(#paint56_linear_1579_7290)"/>
<path d="M27 247L28 247L27 248L27 247Z" fill="url(#paint57_linear_1579_7290)"/>
<defs>
<linearGradient id="paint0_linear_1579_7290" x1="29" y1="17" x2="29" y2="14" gradientUnits="userSpaceOnUse">
<stop stop-color="#E1D64E"/>
<stop offset="1" stop-color="#C3FF43"/>
</linearGradient>
<linearGradient id="paint1_linear_1579_7290" x1="22" y1="4.5" x2="22" y2="15.5" gradientUnits="userSpaceOnUse">
<stop stop-color="#E1D64E"/>
<stop offset="1" stop-color="#C3FF43"/>
</linearGradient>
<linearGradient id="paint2_linear_1579_7290" x1="15" y1="3" x2="18" y2="3" gradientUnits="userSpaceOnUse">
<stop stop-color="#E1D64E"/>
<stop offset="1" stop-color="#C3FF43"/>
</linearGradient>
<linearGradient id="paint3_linear_1579_7290" x1="1.5" y1="0" x2="1.5" y2="3" gradientUnits="userSpaceOnUse">
<stop stop-color="#E1D64E"/>
<stop offset="1" stop-color="#C3FF43"/>
</linearGradient>
<linearGradient id="paint4_linear_1579_7290" x1="6" y1="0" x2="6" y2="0.9999" gradientUnits="userSpaceOnUse">
<stop stop-color="#E1D64E"/>
<stop offset="1" stop-color="#C3FF43"/>
</linearGradient>
<linearGradient id="paint5_linear_1579_7290" x1="14.5" y1="1" x2="14.5" y2="2" gradientUnits="userSpaceOnUse">
<stop stop-color="#E1D64E"/>
<stop offset="1" stop-color="#C3FF43"/>
</linearGradient>
<linearGradient id="paint6_linear_1579_7290" x1="3.5" y1="1" x2="3.5" y2="2" gradientUnits="userSpaceOnUse">
<stop stop-color="#E1D64E"/>
<stop offset="1" stop-color="#C3FF43"/>
</linearGradient>
<linearGradient id="paint7_linear_1579_7290" x1="0.5" y1="0" x2="0.5" y2="12" gradientUnits="userSpaceOnUse">
<stop stop-color="#E1D64E"/>
<stop offset="1" stop-color="#C3FF43"/>
</linearGradient>
<linearGradient id="paint8_linear_1579_7290" x1="30.5" y1="17" x2="30.5" y2="18" gradientUnits="userSpaceOnUse">
<stop stop-color="#E1D64E"/>
<stop offset="1" stop-color="#C3FF43"/>
</linearGradient>
<linearGradient id="paint9_linear_1579_7290" x1="30.5" y1="28" x2="30.5" y2="29" gradientUnits="userSpaceOnUse">
<stop stop-color="#E1D64E"/>
<stop offset="1" stop-color="#C3FF43"/>
</linearGradient>
<linearGradient id="paint10_linear_1579_7290" x1="30.5" y1="29" x2="30.5" y2="32" gradientUnits="userSpaceOnUse">
<stop stop-color="#E1D64E"/>
<stop offset="1" stop-color="#C3FF43"/>
</linearGradient>
<linearGradient id="paint11_linear_1579_7290" x1="18" y1="18" x2="18" y2="16" gradientUnits="userSpaceOnUse">
<stop stop-color="#E1D64E"/>
<stop offset="1" stop-color="#C3FF43"/>
</linearGradient>
<linearGradient id="paint12_linear_1579_7290" x1="16" y1="15" x2="16" y2="17" gradientUnits="userSpaceOnUse">
<stop stop-color="#E1D64E"/>
<stop offset="1" stop-color="#C3FF43"/>
</linearGradient>
<linearGradient id="paint13_linear_1579_7290" x1="14" y1="14" x2="16" y2="14" gradientUnits="userSpaceOnUse">
<stop stop-color="#E1D64E"/>
<stop offset="1" stop-color="#C3FF43"/>
</linearGradient>
<linearGradient id="paint14_linear_1579_7290" x1="13" y1="24" x2="12" y2="24" gradientUnits="userSpaceOnUse">
<stop stop-color="#E1D64E"/>
<stop offset="1" stop-color="#C3FF43"/>
</linearGradient>
<linearGradient id="paint15_linear_1579_7290" x1="10.5" y1="19.5" x2="10.5" y2="23.5" gradientUnits="userSpaceOnUse">
<stop stop-color="#E1D64E"/>
<stop offset="1" stop-color="#C3FF43"/>
</linearGradient>
<linearGradient id="paint16_linear_1579_7290" x1="8" y1="19" x2="8" y2="20" gradientUnits="userSpaceOnUse">
<stop stop-color="#E1D64E"/>
<stop offset="1" stop-color="#C3FF43"/>
</linearGradient>
<linearGradient id="paint17_linear_1579_7290" x1="29" y1="271" x2="29" y2="274" gradientUnits="userSpaceOnUse">
<stop stop-color="#E1D64E"/>
<stop offset="1" stop-color="#C3FF43"/>
</linearGradient>
<linearGradient id="paint18_linear_1579_7290" x1="22" y1="283.5" x2="22" y2="272.5" gradientUnits="userSpaceOnUse">
<stop stop-color="#E1D64E"/>
<stop offset="1" stop-color="#C3FF43"/>
</linearGradient>
<linearGradient id="paint19_linear_1579_7290" x1="15" y1="285" x2="18" y2="285" gradientUnits="userSpaceOnUse">
<stop stop-color="#E1D64E"/>
<stop offset="1" stop-color="#C3FF43"/>
</linearGradient>
<linearGradient id="paint20_linear_1579_7290" x1="1.5" y1="288" x2="1.5" y2="285" gradientUnits="userSpaceOnUse">
<stop stop-color="#E1D64E"/>
<stop offset="1" stop-color="#C3FF43"/>
</linearGradient>
<linearGradient id="paint21_linear_1579_7290" x1="21" y1="288" x2="21" y2="289" gradientUnits="userSpaceOnUse">
<stop stop-color="#E1D64E"/>
<stop offset="1" stop-color="#C3FF43"/>
</linearGradient>
<linearGradient id="paint22_linear_1579_7290" x1="14.5" y1="287" x2="14.5" y2="286" gradientUnits="userSpaceOnUse">
<stop stop-color="#E1D64E"/>
<stop offset="1" stop-color="#C3FF43"/>
</linearGradient>
<linearGradient id="paint23_linear_1579_7290" x1="3.5" y1="287" x2="3.5" y2="286" gradientUnits="userSpaceOnUse">
<stop stop-color="#E1D64E"/>
<stop offset="1" stop-color="#C3FF43"/>
</linearGradient>
<linearGradient id="paint24_linear_1579_7290" x1="32.5" y1="271" x2="32.5" y2="283" gradientUnits="userSpaceOnUse">
<stop stop-color="#E1D64E"/>
<stop offset="1" stop-color="#C3FF43"/>
</linearGradient>
<linearGradient id="paint25_linear_1579_7290" x1="30.5" y1="271" x2="30.5" y2="270" gradientUnits="userSpaceOnUse">
<stop stop-color="#E1D64E"/>
<stop offset="1" stop-color="#C3FF43"/>
</linearGradient>
<linearGradient id="paint26_linear_1579_7290" x1="30.5" y1="260" x2="30.5" y2="259" gradientUnits="userSpaceOnUse">
<stop stop-color="#E1D64E"/>
<stop offset="1" stop-color="#C3FF43"/>
</linearGradient>
<linearGradient id="paint27_linear_1579_7290" x1="30.5" y1="259" x2="30.5" y2="256" gradientUnits="userSpaceOnUse">
<stop stop-color="#E1D64E"/>
<stop offset="1" stop-color="#C3FF43"/>
</linearGradient>
<linearGradient id="paint28_linear_1579_7290" x1="18" y1="270" x2="18" y2="272" gradientUnits="userSpaceOnUse">
<stop stop-color="#E1D64E"/>
<stop offset="1" stop-color="#C3FF43"/>
</linearGradient>
<linearGradient id="paint29_linear_1579_7290" x1="16" y1="273" x2="16" y2="271" gradientUnits="userSpaceOnUse">
<stop stop-color="#E1D64E"/>
<stop offset="1" stop-color="#C3FF43"/>
</linearGradient>
<linearGradient id="paint30_linear_1579_7290" x1="14" y1="274" x2="16" y2="274" gradientUnits="userSpaceOnUse">
<stop stop-color="#E1D64E"/>
<stop offset="1" stop-color="#C3FF43"/>
</linearGradient>
<linearGradient id="paint31_linear_1579_7290" x1="13" y1="264" x2="12" y2="264" gradientUnits="userSpaceOnUse">
<stop stop-color="#E1D64E"/>
<stop offset="1" stop-color="#C3FF43"/>
</linearGradient>
<linearGradient id="paint32_linear_1579_7290" x1="10.5" y1="268.5" x2="10.5" y2="264.5" gradientUnits="userSpaceOnUse">
<stop stop-color="#E1D64E"/>
<stop offset="1" stop-color="#C3FF43"/>
</linearGradient>
<linearGradient id="paint33_linear_1579_7290" x1="8" y1="269" x2="8" y2="268" gradientUnits="userSpaceOnUse">
<stop stop-color="#E1D64E"/>
<stop offset="1" stop-color="#C3FF43"/>
</linearGradient>
<linearGradient id="paint34_linear_1579_7290" x1="138" y1="38" x2="138" y2="39.9999" gradientUnits="userSpaceOnUse">
<stop stop-color="#E1D64E"/>
<stop offset="1" stop-color="#C3FF43"/>
</linearGradient>
<linearGradient id="paint35_linear_1579_7290" x1="30" y1="39" x2="28" y2="39" gradientUnits="userSpaceOnUse">
<stop stop-color="#E1D64E"/>
<stop offset="1" stop-color="#C3FF43"/>
</linearGradient>
<linearGradient id="paint36_linear_1579_7290" x1="30" y1="249" x2="28" y2="249" gradientUnits="userSpaceOnUse">
<stop stop-color="#E1D64E"/>
<stop offset="1" stop-color="#C3FF43"/>
</linearGradient>
<linearGradient id="paint37_linear_1579_7290" x1="24.5" y1="30" x2="24.5" y2="35" gradientUnits="userSpaceOnUse">
<stop stop-color="#E1D64E"/>
<stop offset="1" stop-color="#C3FF43"/>
</linearGradient>
<linearGradient id="paint38_linear_1579_7290" x1="24" y1="31.5" x2="23" y2="31.5" gradientUnits="userSpaceOnUse">
<stop stop-color="#E1D64E"/>
<stop offset="1" stop-color="#C3FF43"/>
</linearGradient>
<linearGradient id="paint39_linear_1579_7290" x1="20" y1="29.5" x2="19" y2="29.5" gradientUnits="userSpaceOnUse">
<stop stop-color="#E1D64E"/>
<stop offset="1" stop-color="#C3FF43"/>
</linearGradient>
<linearGradient id="paint40_linear_1579_7290" x1="24" y1="32" x2="26" y2="32" gradientUnits="userSpaceOnUse">
<stop stop-color="#E1D64E"/>
<stop offset="1" stop-color="#C3FF43"/>
</linearGradient>
<linearGradient id="paint41_linear_1579_7290" x1="29" y1="35.001" x2="25" y2="35.001" gradientUnits="userSpaceOnUse">
<stop stop-color="#E1D64E"/>
<stop offset="1" stop-color="#C3FF43"/>
</linearGradient>
<linearGradient id="paint42_linear_1579_7290" x1="30" y1="38" x2="30" y2="36" gradientUnits="userSpaceOnUse">
<stop stop-color="#E1D64E"/>
<stop offset="1" stop-color="#C3FF43"/>
</linearGradient>
<linearGradient id="paint43_linear_1579_7290" x1="15" y1="26" x2="16" y2="26" gradientUnits="userSpaceOnUse">
<stop stop-color="#E1D64E"/>
<stop offset="1" stop-color="#C3FF43"/>
</linearGradient>
<linearGradient id="paint44_linear_1579_7290" x1="18.5" y1="28.001" x2="15.5" y2="28.001" gradientUnits="userSpaceOnUse">
<stop stop-color="#E1D64E"/>
<stop offset="1" stop-color="#C3FF43"/>
</linearGradient>
<linearGradient id="paint45_linear_1579_7290" x1="19" y1="30" x2="18" y2="30" gradientUnits="userSpaceOnUse">
<stop stop-color="#E1D64E"/>
<stop offset="1" stop-color="#C3FF43"/>
</linearGradient>
<linearGradient id="paint46_linear_1579_7290" x1="24.5" y1="257" x2="24.5" y2="262" gradientUnits="userSpaceOnUse">
<stop stop-color="#E1D64E"/>
<stop offset="1" stop-color="#C3FF43"/>
</linearGradient>
<linearGradient id="paint47_linear_1579_7290" x1="24" y1="256.5" x2="23" y2="256.5" gradientUnits="userSpaceOnUse">
<stop stop-color="#E1D64E"/>
<stop offset="1" stop-color="#C3FF43"/>
</linearGradient>
<linearGradient id="paint48_linear_1579_7290" x1="20" y1="258.5" x2="19" y2="258.5" gradientUnits="userSpaceOnUse">
<stop stop-color="#E1D64E"/>
<stop offset="1" stop-color="#C3FF43"/>
</linearGradient>
<linearGradient id="paint49_linear_1579_7290" x1="30" y1="250" x2="30" y2="252" gradientUnits="userSpaceOnUse">
<stop stop-color="#E1D64E"/>
<stop offset="1" stop-color="#C3FF43"/>
</linearGradient>
<linearGradient id="paint50_linear_1579_7290" x1="29" y1="253" x2="25" y2="253" gradientUnits="userSpaceOnUse">
<stop stop-color="#E1D64E"/>
<stop offset="1" stop-color="#C3FF43"/>
</linearGradient>
<linearGradient id="paint51_linear_1579_7290" x1="24" y1="255.999" x2="26" y2="255.999" gradientUnits="userSpaceOnUse">
<stop stop-color="#E1D64E"/>
<stop offset="1" stop-color="#C3FF43"/>
</linearGradient>
<linearGradient id="paint52_linear_1579_7290" x1="19" y1="258" x2="18" y2="258" gradientUnits="userSpaceOnUse">
<stop stop-color="#E1D64E"/>
<stop offset="1" stop-color="#C3FF43"/>
</linearGradient>
<linearGradient id="paint53_linear_1579_7290" x1="18.5" y1="260.001" x2="15.5" y2="260.001" gradientUnits="userSpaceOnUse">
<stop stop-color="#E1D64E"/>
<stop offset="1" stop-color="#C3FF43"/>
</linearGradient>
<linearGradient id="paint54_linear_1579_7290" x1="15" y1="262" x2="16" y2="262" gradientUnits="userSpaceOnUse">
<stop stop-color="#E1D64E"/>
<stop offset="1" stop-color="#C3FF43"/>
</linearGradient>
<linearGradient id="paint55_linear_1579_7290" x1="28" y1="40.5" x2="27" y2="40.5" gradientUnits="userSpaceOnUse">
<stop stop-color="#E1D64E"/>
<stop offset="1" stop-color="#C3FF43"/>
</linearGradient>
<linearGradient id="paint56_linear_1579_7290" x1="131" y1="41" x2="131" y2="42" gradientUnits="userSpaceOnUse">
<stop stop-color="#E1D64E"/>
<stop offset="1" stop-color="#C3FF43"/>
</linearGradient>
<linearGradient id="paint57_linear_1579_7290" x1="28" y1="247.5" x2="27" y2="247.5" gradientUnits="userSpaceOnUse">
<stop stop-color="#E1D64E"/>
<stop offset="1" stop-color="#C3FF43"/>
</linearGradient>
</defs>
</svg>
