<svg width="81" height="81" viewBox="0 0 81 81" fill="none" xmlns="http://www.w3.org/2000/svg">
<circle cx="40.5" cy="40.5" r="40.5" fill="#7C993F"/>
<circle cx="40.5" cy="40.5" r="29.5" fill="#BAE264"/>
<g clip-path="url(#clip0_1578_6842)">
<path d="M47.1505 46.1512C46.6799 45.6807 46.0618 45.4453 45.4438 45.4453C44.8256 45.4453 44.2076 45.6806 43.7371 46.1512C42.796 47.0923 42.796 48.6236 43.737 49.5647C44.6782 50.5058 46.2095 50.5056 47.1505 49.5647C48.0916 48.6236 48.0916 47.0924 47.1505 46.1512Z" fill="#212C0C"/>
<path d="M36.2677 35.2692C35.3265 34.3281 33.7953 34.3283 32.8542 35.2692C31.9132 36.2103 31.9132 37.7416 32.8542 38.6827C33.7954 39.6239 35.3266 39.6238 36.2677 38.6827C37.2088 37.7417 37.2088 36.2104 36.2677 35.2692Z" fill="#212C0C"/>
<path d="M40 19.1089L21 37.895H23.9676V56.891H56.0325V37.895H59.0001L40 19.1089ZM31.2655 33.6824C33.0815 31.8665 36.0365 31.8663 37.8527 33.6824C39.6687 35.4986 39.6687 38.4536 37.8527 40.2696C36.9446 41.1777 35.7518 41.6317 34.5591 41.6317C33.3664 41.6317 32.1735 41.1777 31.2655 40.2696C29.4496 38.4536 29.4496 35.4986 31.2655 33.6824ZM30.3598 50.4703L48.0533 32.7768L49.6401 34.3636L31.9467 52.0571L30.3598 50.4703ZM48.7345 51.1514C47.8264 52.0595 46.6336 52.5135 45.4409 52.5135C44.2482 52.5135 43.0553 52.0595 42.1473 51.1514C40.3313 49.3354 40.3313 46.3804 42.1473 44.5642C43.9634 42.7483 46.9184 42.7481 48.7345 44.5642C50.5504 46.3803 50.5504 49.3353 48.7345 51.1514Z" fill="#212C0C"/>
</g>
<defs>
<clipPath id="clip0_1578_6842">
<rect width="38" height="38" fill="white" transform="translate(21 19)"/>
</clipPath>
</defs>
</svg>
