<svg width="414" height="414" viewBox="0 0 414 414" fill="none" xmlns="http://www.w3.org/2000/svg">
<path d="M219.254 2.35681C209.871 -0.785602 204.129 -0.785602 194.746 2.35681C171.857 10.0227 172.85 58.5359 179.923 106.4C162.015 61.4523 138.522 18.9951 114.877 23.8543C105.185 25.8462 100.219 28.7282 93.6813 36.1557C77.9584 54.0184 102.235 94.5646 131.806 131.971C94.3349 102.483 53.7354 78.2945 35.9073 94.0566C28.4941 100.611 25.6231 105.583 23.6525 115.28C18.878 138.774 60.7775 162.016 105.423 179.779C57.8775 172.837 9.97057 172.013 2.35681 194.746C-0.785602 204.129 -0.785602 209.871 2.35681 219.254C9.97056 241.987 57.8775 241.163 105.423 234.221C60.7774 251.984 18.8778 275.226 23.6523 298.72C25.6229 308.417 28.4939 313.389 35.9071 319.943C53.735 335.705 94.3338 311.518 131.805 282.03C102.234 319.436 77.9579 359.982 93.6807 377.844C100.218 385.272 105.184 388.154 114.877 390.146C138.522 395.005 162.015 352.546 179.923 307.597C172.85 355.462 171.857 403.977 194.746 411.643C204.129 414.786 209.871 414.786 219.254 411.643C242.144 403.977 241.15 355.461 234.076 307.595C251.985 352.545 275.478 395.005 299.124 390.146C308.816 388.154 313.782 385.272 320.32 377.844C336.043 359.982 311.766 319.436 282.196 282.03C319.667 311.518 360.266 335.705 378.094 319.943C385.507 313.389 388.378 308.417 390.348 298.72C395.123 275.226 353.224 251.984 308.578 234.221C356.123 241.163 404.029 241.987 411.643 219.254C414.786 209.871 414.786 204.129 411.643 194.746C404.029 172.013 356.123 172.837 308.578 179.779C353.223 162.016 395.123 138.774 390.348 115.28C388.378 105.583 385.507 100.611 378.093 94.0566C360.265 78.2945 319.666 102.482 282.195 131.971C311.765 94.5646 336.042 54.0184 320.319 36.1557C313.782 28.7282 308.816 25.8462 299.123 23.8543C275.478 18.995 251.985 61.454 234.077 106.403C241.15 58.5377 242.143 10.0229 219.254 2.35681Z" fill="#F5BD33"/>
</svg>
