<svg width="60" height="60" viewBox="0 0 60 60" fill="none" xmlns="http://www.w3.org/2000/svg">
<path d="M12.2832 18.2292C22.068 8.59028 37.9321 8.59028 47.7168 18.2292L48.8944 19.3892C49.3837 19.8712 49.3837 20.6525 48.8944 21.1345L44.8661 25.1028C44.6214 25.3438 44.2248 25.3438 43.9802 25.1028L42.3597 23.5064C35.5336 16.7821 24.4664 16.7821 17.6404 23.5064L15.9049 25.216C15.6603 25.457 15.2637 25.457 15.0191 25.216L10.9907 21.2477C10.5015 20.7657 10.5015 19.9844 10.9907 19.5024L12.2832 18.2292ZM56.0478 26.436L59.6331 29.9679C60.1223 30.4498 60.1223 31.2312 59.6331 31.7131L43.467 47.6385C42.9777 48.1205 42.1845 48.1205 41.6953 47.6385C41.6953 47.6385 41.6953 47.6385 41.6953 47.6385L30.2216 36.3358C30.0993 36.2153 29.901 36.2153 29.7787 36.3358C29.7786 36.3358 29.7786 36.3358 29.7786 36.3358L18.3052 47.6385C17.8159 48.1205 17.0227 48.1205 16.5335 47.6385C16.5335 47.6385 16.5335 47.6385 16.5335 47.6385L0.366926 31.7129C-0.122309 31.231 -0.122309 30.4496 0.366926 29.9677L3.95218 26.4358C4.44141 25.9539 5.23462 25.9539 5.72385 26.4358L17.1977 37.7387C17.32 37.8592 17.5184 37.8592 17.6407 37.7387C17.6407 37.7387 17.6407 37.7387 17.6407 37.7387L29.114 26.4358C29.6032 25.9539 30.3964 25.9539 30.8857 26.4358C30.8857 26.4358 30.8857 26.4358 30.8857 26.4358L42.3596 37.7387C42.4819 37.8592 42.6802 37.8592 42.8025 37.7387L54.2762 26.436C54.7654 25.9541 55.5586 25.9541 56.0478 26.436Z" fill="#3B99FC"/>
</svg>
